# Blender v2.92.0 OBJ File: 'medkit.blend'
# www.blender.org
mtllib medkit.mtl
o Cube_Cube.001
v -0.294578 -0.294578 0.194339
v -0.294578 0.294578 0.194339
v -0.294578 -0.294578 -0.194339
v -0.294578 0.294578 -0.194339
v 0.294578 -0.294578 0.194339
v 0.294578 0.294578 0.194339
v 0.294578 -0.294578 -0.194339
v 0.294578 0.294578 -0.194339
v -0.294578 -0.294578 0.000000
v -0.294578 0.294578 0.000000
v 0.294578 -0.294578 0.000000
v 0.294578 0.294578 0.000000
v -0.294578 -0.294578 0.097170
v 0.294578 0.294578 0.097170
v -0.294578 0.294578 0.097170
v 0.294578 -0.294578 0.097170
v -0.294578 0.294578 -0.097170
v 0.294578 -0.294578 -0.097170
v -0.294578 -0.294578 -0.097170
v 0.294578 0.294578 -0.097170
v 0.000000 -0.294578 -0.194339
v 0.000000 0.294578 -0.194339
v 0.000000 -0.294578 0.194339
v 0.000000 0.294578 0.194339
v 0.000000 -0.294578 0.000000
v 0.000000 0.294578 0.097170
v 0.000000 -0.294578 0.097170
v 0.000000 -0.294578 -0.097170
v 0.000000 0.294578 -0.097170
v 0.147289 0.294578 -0.194339
v 0.147289 -0.294578 0.194339
v 0.147289 0.294578 0.097170
v 0.147289 0.294578 -0.097170
v 0.147289 -0.294578 -0.194339
v 0.147289 0.294578 0.194339
v 0.147289 -0.294578 0.000000
v 0.147289 -0.294578 0.097170
v 0.147289 -0.294578 -0.097170
v -0.147289 -0.294578 -0.194339
v -0.147289 0.294578 0.194339
v -0.147289 -0.294578 0.000000
v -0.147289 -0.294578 0.097170
v -0.147289 -0.294578 -0.097170
v -0.147289 0.294578 -0.194339
v -0.147289 -0.294578 0.194339
v -0.147289 0.294578 0.097170
v -0.147289 0.294578 -0.097170
v -0.220934 -0.294578 -0.194339
v -0.220934 0.294578 0.194339
v -0.220934 -0.294578 0.000000
v -0.220934 -0.294578 0.097170
v -0.220934 -0.294578 -0.097170
v -0.220934 0.294578 -0.194339
v -0.220934 -0.294578 0.194339
v -0.220934 0.294578 0.000000
v -0.220934 0.294578 0.097170
v -0.220934 0.294578 -0.097170
v 0.220934 0.294578 -0.194339
v 0.220934 -0.294578 0.194339
v 0.220934 0.294578 0.000000
v 0.220934 0.294578 0.097170
v 0.220934 0.294578 -0.097170
v 0.220934 -0.294578 -0.194339
v 0.220934 0.294578 0.194339
v 0.220934 -0.294578 0.000000
v 0.220934 -0.294578 0.097170
v 0.220934 -0.294578 -0.097170
v -0.147289 0.383275 -0.194339
v 0.000000 0.383275 -0.194339
v 0.147289 0.383275 0.194339
v 0.000000 0.383275 0.194339
v -0.147289 0.383275 0.097170
v 0.000000 0.383275 0.097170
v -0.147289 0.383275 -0.097170
v 0.000000 0.383275 -0.097170
v 0.147289 0.383275 -0.194339
v 0.147289 0.383275 0.097170
v 0.147289 0.383275 -0.097170
v 0.220934 0.383275 0.194339
v -0.147289 0.383275 0.194339
v -0.220934 0.383275 -0.194339
v -0.220934 0.383275 0.097170
v -0.220934 0.383275 -0.097170
v -0.220934 0.383275 0.194339
v 0.220934 0.383275 -0.194339
v 0.220934 0.383275 0.097170
v 0.220934 0.383275 -0.097170
v -0.147289 0.173162 0.000000
v 0.000000 0.173162 0.000000
v -0.147289 0.173162 0.097170
v 0.000000 0.173162 0.097170
v -0.147289 0.173162 -0.097170
v 0.000000 0.173162 -0.097170
v 0.147289 0.173162 0.000000
v 0.147289 0.173162 0.097170
v 0.147289 0.173162 -0.097170
v -0.220934 0.173162 0.000000
v -0.220934 0.173162 0.097170
v -0.220934 0.173162 -0.097170
v 0.220934 0.173162 0.000000
v 0.220934 0.173162 0.097170
v 0.220934 0.173162 -0.097170
vt 0.270695 0.758478
vt 0.227305 0.758478
vt 0.227305 0.752153
vt 0.270695 0.752153
vt 0.000100 0.874925
vt 0.999900 0.874925
vt 0.999900 0.999900
vt 0.000100 0.999900
vt 0.087088 0.832686
vt 0.337088 0.832686
vt 0.337088 0.895186
vt 0.087088 0.895186
vt 0.874925 0.999899
vt 0.874925 0.000100
vt 0.999900 0.000100
vt 0.999900 0.999899
vt 0.294534 0.854833
vt 0.325784 0.854833
vt 0.325784 0.917333
vt 0.294534 0.917333
vt 0.843750 0.687500
vt 0.875000 0.687500
vt 0.875000 0.750000
vt 0.843750 0.750000
vt 0.846211 0.727372
vt 0.877461 0.727372
vt 0.877461 0.789872
vt 0.846211 0.789872
vt 0.294534 0.729833
vt 0.325784 0.729833
vt 0.325784 0.792333
vt 0.294534 0.792333
vt 0.087088 0.707686
vt 0.337088 0.707686
vt 0.337088 0.770186
vt 0.087088 0.770186
vt 0.270695 0.771129
vt 0.227305 0.771129
vt 0.227305 0.764804
vt 0.270695 0.764804
vt 0.270695 0.777454
vt 0.227305 0.777454
vt 0.843750 0.625000
vt 0.875000 0.625000
vt 0.087088 0.645186
vt 0.337088 0.645186
vt 0.294534 0.667333
vt 0.325784 0.667333
vt 0.897887 0.753461
vt 0.929137 0.753461
vt 0.929137 0.815961
vt 0.897887 0.815961
vt 0.656250 0.687500
vt 0.687500 0.687500
vt 0.687500 0.687500
vt 0.656250 0.687500
vt 0.138284 0.667333
vt 0.200784 0.667333
vt 0.200784 0.729833
vt 0.138284 0.729833
vt 0.138284 0.792333
vt 0.200784 0.792333
vt 0.200784 0.854833
vt 0.138284 0.854833
vt 0.819142 0.710147
vt 0.819142 0.772647
vt 0.819142 0.772647
vt 0.819142 0.710147
vt 0.762304 0.700304
vt 0.824804 0.700304
vt 0.824804 0.700304
vt 0.762304 0.700304
vt 0.710387 0.815961
vt 0.710387 0.753461
vt 0.710387 0.753461
vt 0.710387 0.815961
vt 0.200784 0.917333
vt 0.138284 0.917333
vt 0.250050 0.999900
vt 0.250050 0.000100
vt 0.500000 0.000100
vt 0.500000 0.999899
vt 0.000100 0.250050
vt 0.999900 0.250050
vt 0.999900 0.500000
vt 0.000100 0.500000
vt 0.125075 0.999900
vt 0.125075 0.000100
vt 0.625000 0.375000
vt 0.625000 0.312500
vt 0.625000 0.312500
vt 0.625000 0.375000
vt 0.656250 0.687500
vt 0.687500 0.687500
vt 0.856054 0.700304
vt 0.856054 0.700304
vt 0.897887 0.815961
vt 0.897887 0.753461
vt 0.263284 0.667333
vt 0.263284 0.729833
vt 0.263284 0.792333
vt 0.263284 0.854833
vt 0.263284 0.917333
vt 0.999900 0.749950
vt 0.000100 0.749950
vt 0.000100 0.125075
vt 0.999900 0.125075
vt 0.107034 0.854833
vt 0.107034 0.917333
vt 0.107034 0.729833
vt 0.107034 0.792333
vt 0.107034 0.667333
vt 0.750000 0.687500
vt 0.750000 0.687500
vt 0.843750 0.687500
vt 0.843750 0.625000
vt 0.812500 0.687500
vt 0.812500 0.687500
vt 0.625000 0.281250
vt 0.625000 0.281250
vt 0.749950 0.000100
vt 0.749950 0.999899
vt 0.075784 0.667333
vt 0.075784 0.729833
vt 0.075784 0.792333
vt 0.075784 0.854833
vt 0.075784 0.917333
vt 0.000100 0.000100
vt 0.999900 0.000100
vt 0.812500 0.687500
vt 0.699804 0.700304
vt 0.699804 0.700304
vt 0.722691 0.725892
vt 0.722691 0.663392
vt 0.722691 0.663392
vt 0.722691 0.725892
vt 0.696363 0.279270
vt 0.696363 0.248020
vt 0.696363 0.248020
vt 0.696363 0.279270
vt 0.679137 0.753461
vt 0.679137 0.815961
vt 0.625000 0.625000
vt 0.656250 0.625000
vt 0.625000 0.687500
vt 0.691441 0.663392
vt 0.691441 0.725892
vt 0.656250 0.750000
vt 0.625000 0.750000
vt 0.000100 0.999900
vt 0.000100 0.000100
vt 0.741637 0.753461
vt 0.804137 0.753461
vt 0.804137 0.815961
vt 0.741637 0.815961
vt 0.750000 0.750000
vt 0.687500 0.750000
vt 0.656250 0.750000
vt 0.866637 0.753461
vt 0.866637 0.815961
vt 0.812500 0.750000
vt 0.843750 0.687500
vt 0.843750 0.750000
vt 0.762304 0.700304
vt 0.824804 0.700304
vt 0.699804 0.700304
vt 0.625000 0.968750
vt 0.625000 0.937500
vt 0.625000 0.937500
vt 0.625000 0.968750
vt 0.668554 0.700304
vt 0.668554 0.700304
vt 0.625000 0.875000
vt 0.625000 0.812500
vt 0.625000 0.812500
vt 0.625000 0.875000
vt 0.625000 0.781250
vt 0.625000 0.781250
vt 0.856054 0.700304
vt 0.696363 0.185520
vt 0.696363 0.185520
vt 0.429118 0.437981
vt 0.491618 0.437981
vt 0.491618 0.500481
vt 0.429118 0.500481
vt 0.441422 0.513284
vt 0.503922 0.513284
vt 0.503922 0.575784
vt 0.441422 0.575784
vt 0.410172 0.513284
vt 0.410172 0.575784
vt 0.397868 0.437981
vt 0.397868 0.500481
vt 0.554118 0.437981
vt 0.554118 0.500481
vt 0.566422 0.513284
vt 0.566422 0.575784
vt 0.585368 0.437981
vt 0.585368 0.500481
vt 0.597672 0.513284
vt 0.597672 0.575784
vt 0.668554 0.700304
vt 0.656250 0.625000
vt 0.750000 0.687500
vn -1.0000 0.0000 0.0000
vn 0.0000 0.0000 -1.0000
vn 1.0000 0.0000 0.0000
vn 0.0000 0.0000 1.0000
vn 0.0000 -1.0000 0.0000
vn 0.0000 1.0000 0.0000
usemtl texture
s off
f 19/1/1 17/2/1 4/3/1 3/4/1
f 63/5/2 58/6/2 8/7/2 7/8/2
f 16/9/3 14/10/3 6/11/3 5/12/3
f 54/13/4 49/14/4 2/15/4 1/16/4
f 66/17/5 16/18/5 5/19/5 59/20/5
f 56/21/6 15/22/6 2/23/6 49/24/6
f 57/25/6 17/26/6 10/27/6 55/28/6
f 67/29/5 18/30/5 11/31/5 65/32/5
f 18/33/3 20/34/3 12/35/3 11/36/3
f 13/37/1 15/38/1 10/39/1 9/40/1
f 1/41/1 2/42/1 15/38/1 13/37/1
f 55/43/6 10/44/6 15/22/6 56/21/6
f 65/32/5 11/31/5 16/18/5 66/17/5
f 11/36/3 12/35/3 14/10/3 16/9/3
f 7/45/3 8/46/3 20/34/3 18/33/3
f 63/47/5 7/48/5 18/30/5 67/29/5
f 53/49/6 4/50/6 17/51/6 57/52/6
f 9/40/1 10/39/1 17/2/1 19/1/1
f 61/53/2 32/54/2 77/55/2 86/56/2
f 39/57/5 21/58/5 28/59/5 43/60/5
f 41/61/5 25/62/5 27/63/5 42/64/5
f 57/65/3 55/66/3 97/67/3 99/68/3
f 43/60/5 28/59/5 25/62/5 41/61/5
f 29/69/4 47/70/4 92/71/4 93/72/4
f 62/73/3 58/74/3 85/75/3 87/76/3
f 42/64/5 27/63/5 23/77/5 45/78/5
f 31/79/4 35/80/4 24/81/4 23/82/4
f 39/83/2 44/84/2 22/85/2 21/86/2
f 59/87/4 64/88/4 35/80/4 31/79/4
f 22/89/2 44/90/2 68/91/2 69/92/2
f 32/54/2 61/53/2 101/93/2 95/94/2
f 47/70/4 57/95/4 99/96/4 92/71/4
f 53/49/1 57/52/1 83/97/1 81/98/1
f 21/58/5 34/99/5 38/100/5 28/59/5
f 25/62/5 36/101/5 37/102/5 27/63/5
f 28/59/5 38/100/5 36/101/5 25/62/5
f 27/63/5 37/102/5 31/103/5 23/77/5
f 21/86/2 22/85/2 30/104/2 34/105/2
f 48/106/2 53/107/2 44/84/2 39/83/2
f 51/108/5 42/64/5 45/78/5 54/109/5
f 52/110/5 43/60/5 41/61/5 50/111/5
f 50/111/5 41/61/5 42/64/5 51/108/5
f 48/112/5 39/57/5 43/60/5 52/110/5
f 32/54/2 26/113/2 73/114/2 77/55/2
f 55/43/3 56/21/3 98/115/3 97/116/3
f 56/21/2 46/117/2 90/118/2 98/115/2
f 44/90/2 53/119/2 81/120/2 68/91/2
f 23/82/4 24/81/4 40/121/4 45/122/4
f 3/123/5 48/112/5 52/110/5 19/124/5
f 9/125/5 50/111/5 51/108/5 13/126/5
f 19/124/5 52/110/5 50/111/5 9/125/5
f 13/126/5 51/108/5 54/109/5 1/127/5
f 3/128/2 4/129/2 53/107/2 48/106/2
f 26/113/2 46/117/2 72/130/2 73/114/2
f 33/131/4 29/69/4 93/72/4 96/132/4
f 60/133/1 62/134/1 102/135/1 100/136/1
f 58/137/2 30/138/2 76/139/2 85/140/2
f 45/122/4 40/121/4 49/14/4 54/13/4
f 8/141/6 58/74/6 62/73/6 20/142/6
f 12/143/6 60/144/6 61/53/6 14/145/6
f 20/146/6 62/134/6 60/133/6 12/147/6
f 14/145/6 61/53/6 64/148/6 6/149/6
f 5/150/4 6/151/4 64/88/4 59/87/4
f 34/99/5 63/47/5 67/29/5 38/100/5
f 36/101/5 65/32/5 66/17/5 37/102/5
f 38/100/5 67/29/5 65/32/5 36/101/5
f 37/102/5 66/17/5 59/20/5 31/103/5
f 34/105/2 30/104/2 58/6/2 63/5/2
f 76/152/6 69/153/6 75/154/6 78/155/6
f 77/55/6 73/114/6 71/156/6 70/157/6
f 86/56/6 77/55/6 70/157/6 79/158/6
f 85/75/6 76/152/6 78/155/6 87/76/6
f 69/153/6 68/159/6 74/160/6 75/154/6
f 73/114/6 72/130/6 80/161/6 71/156/6
f 68/159/6 81/98/6 83/97/6 74/160/6
f 72/130/6 82/162/6 84/163/6 80/161/6
f 47/70/4 29/69/4 75/164/4 74/165/4
f 29/69/4 33/131/4 78/166/4 75/164/4
f 49/167/4 40/168/4 80/169/4 84/170/4
f 33/131/4 62/171/4 87/172/4 78/166/4
f 24/173/4 35/174/4 70/175/4 71/176/4
f 46/117/2 56/21/2 82/162/2 72/130/2
f 35/174/4 64/177/4 79/178/4 70/175/4
f 56/21/1 49/24/1 84/163/1 82/162/1
f 40/168/4 24/173/4 71/176/4 80/169/4
f 64/148/3 61/53/3 86/56/3 79/158/3
f 57/95/4 47/70/4 74/165/4 83/179/4
f 30/138/2 22/180/2 69/181/2 76/139/2
f 94/182/6 89/183/6 91/184/6 95/185/6
f 96/186/6 93/187/6 89/188/6 94/189/6
f 102/190/6 96/186/6 94/189/6 100/191/6
f 100/192/6 94/182/6 95/185/6 101/193/6
f 89/183/6 88/194/6 90/195/6 91/184/6
f 93/187/6 92/196/6 88/197/6 89/188/6
f 88/194/6 97/198/6 98/199/6 90/195/6
f 92/196/6 99/200/6 97/201/6 88/197/6
f 62/171/4 33/131/4 96/132/4 102/202/4
f 61/53/1 60/144/1 100/203/1 101/93/1
f 46/117/2 26/113/2 91/204/2 90/118/2
f 26/113/2 32/54/2 95/94/2 91/204/2
