# Blender v2.83.5 OBJ File: 'Ground.blend'
# www.blender.org
mtllib Ground.mtl
o Model_Plane
v -305.417755 0.000000 163.582687
v 305.417755 0.000000 163.582687
v -305.417755 0.000000 -163.582687
v 305.417755 0.000000 -163.582687
v 0.000000 0.000000 163.582687
v 0.000000 0.000000 -163.582687
v -152.708878 0.000000 -163.582687
v -152.708878 0.000000 163.582687
v -229.063324 0.000000 -163.582687
v -229.063324 0.000000 163.582687
v -76.354439 0.000000 163.582687
v -76.354439 0.000000 -163.582687
v 152.708878 0.000000 163.582687
v 152.708878 0.000000 -163.582687
v 76.354439 0.000000 -163.582687
v 76.354439 0.000000 163.582687
v 229.063324 0.000000 163.582687
v 229.063324 0.000000 -163.582687
v -305.417755 0.000000 0.000000
v 305.417755 0.000000 0.000000
v 0.000000 2.262838 0.000000
v -152.708878 0.000000 0.000000
v -229.063324 -2.641273 0.000000
v -76.354439 0.000000 0.000000
v 152.708878 -2.723647 0.000000
v 76.354439 0.000000 0.000000
v 229.063324 2.552474 0.000000
v 305.417755 0.000000 -81.791344
v 0.000000 -2.682523 -81.791344
v -152.708878 -4.482817 -81.791344
v -229.063324 2.081756 -81.791344
v -76.354439 -4.611131 -81.791344
v 152.708878 5.964591 -81.791344
v 76.354439 2.144227 -81.791344
v 229.063324 -2.048693 -81.791344
v -305.417755 0.000000 -81.791344
v -305.417755 0.000000 81.791344
v 305.417755 0.000000 81.791344
v 0.000000 0.000000 81.791344
v -152.708878 -2.590281 81.791344
v -229.063324 -7.039742 81.791344
v -76.354439 5.979512 81.791344
v 152.708878 -6.051507 81.791344
v 76.354439 -4.688785 81.791344
v 229.063324 0.000000 81.791344
vt 30.589348 10.407656
vt 40.619129 10.407656
vt 40.619129 20.315311
vt 30.589348 20.315311
vt -9.529782 10.407656
vt 0.500000 10.407656
vt 0.500000 20.315311
vt -9.529782 20.315311
vt -29.589348 10.407656
vt -19.559565 10.407656
vt -19.559565 20.315311
vt -29.589348 20.315311
vt -39.619129 10.407656
vt -39.619129 20.315311
vt 10.529781 10.407656
vt 20.559563 10.407656
vt 20.559563 20.315311
vt 10.529781 20.315311
vt 20.559563 -9.407656
vt 30.589348 -9.407656
vt 30.589348 0.500000
vt 20.559563 0.500000
vt 0.500000 -9.407656
vt 10.529781 -9.407656
vt 10.529781 0.500000
vt 0.500000 0.500000
vt -19.559565 -9.407656
vt -9.529782 -9.407656
vt -9.529782 0.500000
vt -19.559565 0.500000
vt -39.619129 -9.407656
vt -29.589348 -9.407656
vt -29.589348 0.500000
vt -39.619129 0.500000
vt 40.619129 -9.407656
vt 40.619129 0.500000
vt 30.589348 -19.315311
vt 40.619129 -19.315311
vt -9.529782 -19.315311
vt 0.500000 -19.315311
vt -29.589348 -19.315311
vt -19.559565 -19.315311
vt -39.619129 -19.315311
vt 10.529781 -19.315311
vt 20.559563 -19.315311
vn -0.0134 0.9998 0.0125
vn -0.0126 0.9989 0.0445
vn 0.0429 0.9990 0.0147
vn -0.0136 0.9998 -0.0127
vn 0.0008 0.9985 0.0555
vn -0.0250 0.9985 -0.0495
vn -0.0316 0.9995 0.0033
vn 0.0524 0.9983 -0.0239
vn -0.0739 0.9966 0.0358
vn 0.0454 0.9981 0.0424
vn 0.0267 0.9984 0.0489
vn -0.0560 0.9982 -0.0207
vn 0.0632 0.9976 0.0268
vn -0.0463 0.9980 0.0426
vn 0.0243 0.9994 -0.0227
vn 0.0167 0.9997 0.0156
vn 0.0179 0.9995 0.0250
vn -0.0168 0.9997 -0.0171
vn -0.0072 0.9978 0.0661
vn 0.0008 0.9985 -0.0555
vn 0.0037 0.9996 0.0289
vn 0.0257 0.9997 0.0015
vn -0.0274 0.9979 -0.0583
vn 0.0033 0.9996 -0.0281
vn 0.0000 1.0000 0.0000
vn 0.0391 0.9986 0.0365
vn -0.0291 0.9978 -0.0587
vn 0.0460 0.9980 -0.0429
vn -0.0560 0.9982 0.0207
vn 0.0089 0.9978 -0.0655
vn 0.0307 0.9991 -0.0286
vn -0.0396 0.9985 -0.0369
usemtl grass
s off
f 35/1/1 28/2/1 4/3/1 18/4/1
f 32/5/2 29/6/2 6/7/2 12/8/2
f 31/9/3 30/10/3 7/11/3 9/12/3
f 36/13/4 31/9/4 9/12/4 3/14/4
f 30/10/5 32/5/5 12/8/5 7/11/5
f 34/15/6 33/16/6 14/17/6 15/18/6
f 29/6/7 34/15/7 15/18/7 6/7/7
f 33/16/8 35/1/8 18/4/8 14/17/8
f 43/19/9 45/20/9 27/21/9 25/22/9
f 39/23/10 44/24/10 26/25/10 21/26/10
f 44/24/11 43/19/11 25/22/11 26/25/11
f 40/27/12 42/28/12 24/29/12 22/30/12
f 37/31/13 41/32/13 23/33/13 19/34/13
f 41/32/14 40/27/14 22/30/14 23/33/14
f 42/28/15 39/23/15 21/26/15 24/29/15
f 45/20/16 38/35/16 20/36/16 27/21/16
f 25/22/17 27/21/17 35/1/17 33/16/17
f 21/26/18 26/25/18 34/15/18 29/6/18
f 26/25/19 25/22/19 33/16/19 34/15/19
f 22/30/20 24/29/20 32/5/20 30/10/20
f 19/34/21 23/33/21 31/9/21 36/13/21
f 23/33/22 22/30/22 30/10/22 31/9/22
f 24/29/23 21/26/23 29/6/23 32/5/23
f 27/21/24 20/36/24 28/2/24 35/1/24
f 17/37/25 2/38/25 38/35/25 45/20/25
f 11/39/26 5/40/26 39/23/26 42/28/26
f 10/41/27 8/42/27 40/27/27 41/32/27
f 1/43/28 10/41/28 41/32/28 37/31/28
f 8/42/29 11/39/29 42/28/29 40/27/29
f 16/44/30 13/45/30 43/19/30 44/24/30
f 5/40/31 16/44/31 44/24/31 39/23/31
f 13/45/32 17/37/32 45/20/32 43/19/32
