# Blender v2.92.0 OBJ File: 'pistol.blend'
# www.blender.org
mtllib pistol_clip.mtl
o clip_Cube.002
v -0.047303 -0.146432 0.059651
v -0.093938 0.304863 0.047746
v -0.046212 -0.146776 -0.055827
v -0.092273 0.304671 -0.049563
v 0.115106 -0.168038 0.060962
v 0.035920 0.328070 0.049869
v 0.116197 -0.168383 -0.054516
v 0.037585 0.327879 -0.047441
v -0.083599 -0.216432 -0.067440
v -0.084819 -0.215796 0.071317
v 0.139319 -0.216013 -0.065865
v 0.138099 -0.215377 0.072892
v 0.127758 -0.192198 -0.060190
v -0.067173 -0.181604 -0.061633
v -0.068329 -0.181114 0.065484
v 0.126603 -0.191708 0.066927
v 0.034993 -0.157579 -0.055171
v -0.027344 0.316275 -0.048502
v 0.033901 -0.157235 0.060307
v -0.029009 0.316467 0.048807
v 0.027860 -0.216222 -0.066652
v 0.026640 -0.215587 0.072105
v 0.029137 -0.186411 0.066206
v 0.030293 -0.186901 -0.060912
v -0.005609 -0.152178 -0.055499
v -0.061473 0.310665 0.048277
v -0.027869 -0.216327 -0.067046
v -0.018440 -0.184252 -0.061273
v -0.059808 0.310473 -0.049032
v -0.006701 -0.151833 0.059979
v -0.029089 -0.215691 0.071711
v -0.019596 -0.183762 0.065845
v 0.005120 0.322077 -0.039546
v 0.074503 -0.162636 0.052124
v 0.082370 -0.215482 0.072499
v 0.077870 -0.189059 0.066567
v 0.075595 -0.162981 -0.046418
v 0.003455 0.322269 0.040828
v 0.083590 -0.216118 -0.066259
v 0.079025 -0.189549 -0.060551
v 0.055294 -0.160280 -0.046582
v -0.012777 0.319367 0.040563
v 0.055725 -0.216170 -0.066455
v 0.054659 -0.188225 -0.060731
v -0.011112 0.319176 -0.039811
v 0.054202 -0.159935 0.051960
v 0.054505 -0.215534 0.072302
v 0.053503 -0.187735 0.066386
v -0.046758 -0.146604 0.001912
v -0.093105 0.304767 -0.000908
v 0.115652 -0.168210 0.003223
v 0.036752 0.327975 0.001214
v -0.084209 -0.216114 0.001939
v 0.138709 -0.215695 0.003514
v 0.127180 -0.191953 0.003368
v -0.067751 -0.181359 0.001926
v 0.027250 -0.215904 0.002726
v -0.028479 -0.216009 0.002333
v 0.082980 -0.215800 0.003120
v 0.055115 -0.215852 0.002923
v -0.047030 -0.146518 0.030782
v 0.036336 0.328023 0.025541
v -0.084514 -0.215955 0.036628
v -0.068040 -0.181236 0.033705
v 0.026945 -0.215745 0.037416
v -0.028784 -0.215850 0.037022
v 0.082675 -0.215641 0.037809
v 0.054810 -0.215693 0.037612
v -0.093521 0.304815 0.023419
v 0.115379 -0.168124 0.032093
v 0.138404 -0.215536 0.038203
v 0.126891 -0.191830 0.035148
v -0.092686 0.304719 -0.025404
v 0.115926 -0.168297 -0.025847
v 0.139016 -0.215855 -0.031416
v 0.127471 -0.192076 -0.028632
v -0.046483 -0.146691 -0.027157
v 0.037171 0.327926 -0.023282
v -0.083902 -0.216274 -0.032991
v -0.067460 -0.181482 -0.030074
v 0.027557 -0.216065 -0.032204
v -0.028172 -0.216169 -0.032597
v 0.083287 -0.215960 -0.031810
v 0.055422 -0.216012 -0.032007
v -0.036028 -0.148131 -0.055744
v -0.085795 0.306318 0.047879
v -0.069621 -0.216405 -0.067341
v -0.054950 -0.182268 -0.061543
v -0.084130 0.306127 -0.049430
v -0.037120 -0.147786 0.059734
v -0.070841 -0.215770 0.071416
v -0.056106 -0.181778 0.065575
v -0.070231 -0.216088 0.002038
v -0.084963 0.306222 -0.000775
v -0.070536 -0.215929 0.036727
v -0.085379 0.306270 0.023552
v -0.084544 0.306174 -0.025271
v -0.069924 -0.216248 -0.032892
v 0.029911 0.326508 -0.047566
v 0.105509 -0.166761 0.060885
v 0.124927 -0.215402 0.072799
v 0.115084 -0.191081 0.066842
v 0.106600 -0.167106 -0.054593
v 0.028246 0.326699 0.049743
v 0.126147 -0.216038 -0.065958
v 0.116240 -0.191572 -0.060276
v 0.029079 0.326603 0.001089
v 0.125537 -0.215720 0.003421
v 0.028663 0.326651 0.025416
v 0.125232 -0.215561 0.038110
v 0.125844 -0.215880 -0.031509
v 0.029498 0.326555 -0.023408
v -0.092479 0.304695 -0.037484
v 0.116062 -0.168340 -0.040181
v 0.139168 -0.215934 -0.048641
v 0.127615 -0.192137 -0.044411
v -0.046347 -0.146734 -0.041492
v 0.037378 0.327903 -0.035361
v -0.083750 -0.216353 -0.050215
v -0.067317 -0.181543 -0.045854
v 0.027709 -0.216143 -0.049428
v -0.027551 0.316299 -0.036422
v -0.028021 -0.216248 -0.049822
v -0.060015 0.310497 -0.036953
v 0.004914 0.322101 -0.035892
v 0.083438 -0.216039 -0.049034
v 0.055573 -0.216091 -0.049231
v -0.011319 0.319200 -0.036157
v -0.069773 -0.216327 -0.050117
v -0.084337 0.306150 -0.037350
v 0.029705 0.326531 -0.035487
v 0.125995 -0.215959 -0.048734
v -0.047167 -0.146475 0.045217
v 0.036128 0.328047 0.037705
v -0.084666 -0.215875 0.053973
v -0.068184 -0.181175 0.049595
v 0.026793 -0.215666 0.054760
v -0.028801 0.316443 0.036644
v -0.028937 -0.215771 0.054367
v -0.061265 0.310641 0.036113
v 0.003664 0.322245 0.037174
v 0.082522 -0.215561 0.055154
v 0.054657 -0.215614 0.054957
v -0.012569 0.319344 0.036909
v -0.093730 0.304839 0.035583
v 0.115242 -0.168081 0.046527
v 0.138252 -0.215457 0.055548
v 0.126747 -0.191769 0.051038
v -0.070689 -0.215849 0.054072
v -0.085587 0.306294 0.035716
v 0.028455 0.326675 0.037580
v 0.125079 -0.215481 0.055455
v 0.021179 0.042373 -0.022967
v 0.020760 0.042422 0.001529
v -0.011285 0.036571 -0.023498
v -0.011704 0.036620 0.000998
v 0.053643 0.048175 -0.022437
v 0.053224 0.048223 0.002059
v 0.037411 0.045274 -0.022702
v 0.036992 0.045322 0.001794
v -0.036026 0.032273 0.000601
v 0.020344 0.042469 0.025856
v -0.012121 0.036667 0.025326
v 0.052808 0.048271 0.026387
v 0.036576 0.045370 0.026121
v -0.036443 0.032321 0.024928
v 0.021386 0.042350 -0.035046
v -0.011079 0.036548 -0.035577
v 0.053850 0.048151 -0.034516
v 0.037618 0.045250 -0.034781
v -0.035607 0.032225 -0.023895
v -0.035401 0.032201 -0.035974
v 0.078015 0.052654 0.002465
v 0.077599 0.052702 0.026792
v 0.078434 0.052606 -0.022032
v 0.078641 0.052582 -0.034111
v 0.020136 0.042493 0.038020
v -0.012329 0.036691 0.037489
v 0.052600 0.048295 0.038550
v 0.036368 0.045394 0.038285
v -0.036651 0.032345 0.037092
v 0.077391 0.052726 0.038956
vt 0.375000 0.218967
vt 0.625000 0.218967
vt 0.625000 0.250000
vt 0.375000 0.250000
vt 0.375000 0.485227
vt 0.625000 0.485227
vt 0.625000 0.500000
vt 0.375000 0.500000
vt 0.375000 0.718750
vt 0.625000 0.718750
vt 0.625000 0.750000
vt 0.375000 0.750000
vt 0.375000 0.984324
vt 0.625000 0.984324
vt 0.625000 1.000000
vt 0.375000 1.000000
vt 0.375000 0.485227
vt 0.375000 0.500000
vt 0.375000 0.500000
vt 0.375000 0.485227
vt 0.859324 0.718750
vt 0.875000 0.718750
vt 0.875000 0.750000
vt 0.859324 0.750000
vt 0.360227 0.718750
vt 0.375000 0.718750
vt 0.375000 0.750000
vt 0.360227 0.750000
vt 0.375000 0.218967
vt 0.375000 0.250000
vt 0.375000 0.250000
vt 0.375000 0.218967
vt 0.375000 0.718750
vt 0.375000 0.750000
vt 0.375000 0.984324
vt 0.375000 1.000000
vt 0.375000 1.000000
vt 0.375000 0.984324
vt 0.375000 0.312500
vt 0.375000 0.375000
vt 0.375000 0.375000
vt 0.375000 0.312500
vt 0.375000 0.843750
vt 0.375000 0.875000
vt 0.375000 0.875000
vt 0.375000 0.843750
vt 0.375000 0.875000
vt 0.375000 0.843750
vt 0.187500 0.718750
vt 0.250000 0.718750
vt 0.250000 0.750000
vt 0.187500 0.750000
vt 0.718750 0.718750
vt 0.750000 0.718750
vt 0.750000 0.750000
vt 0.718750 0.750000
vt 0.375000 0.375000
vt 0.375000 0.312500
vt 0.625000 0.843750
vt 0.625000 0.875000
vt 0.625000 0.312500
vt 0.625000 0.375000
vt 0.375000 0.265676
vt 0.625000 0.265676
vt 0.375000 0.265676
vt 0.375000 0.265676
vt 0.140676 0.718750
vt 0.140676 0.750000
vt 0.375000 0.937500
vt 0.375000 0.937500
vt 0.375000 0.937500
vt 0.812500 0.718750
vt 0.812500 0.750000
vt 0.625000 0.937500
vt 0.375000 0.764773
vt 0.625000 0.764773
vt 0.625000 0.812500
vt 0.375000 0.812500
vt 0.639773 0.718750
vt 0.687500 0.718750
vt 0.687500 0.750000
vt 0.639773 0.750000
vt 0.375000 0.764773
vt 0.375000 0.812500
vt 0.375000 0.812500
vt 0.375000 0.764773
vt 0.375000 0.406250
vt 0.375000 0.437500
vt 0.375000 0.437500
vt 0.375000 0.406250
vt 0.281250 0.718750
vt 0.312500 0.718750
vt 0.312500 0.750000
vt 0.281250 0.750000
vt 0.375000 0.437500
vt 0.375000 0.406250
vt 0.625000 0.406250
vt 0.625000 0.437500
vt 0.250000 0.562066
vt 0.281250 0.562066
vt 0.281250 0.625000
vt 0.250000 0.625000
vt 0.312500 0.562066
vt 0.312500 0.625000
vt 0.859324 0.687500
vt 0.859324 0.718750
vt 0.859324 0.687500
vt 0.140676 0.562066
vt 0.187500 0.562066
vt 0.187500 0.625000
vt 0.140676 0.625000
vt 0.639773 0.531033
vt 0.687500 0.531033
vt 0.687500 0.531033
vt 0.639773 0.531033
vt 0.375000 0.062500
vt 0.375000 0.125000
vt 0.375000 0.125000
vt 0.375000 0.062500
vt 0.375000 0.562066
vt 0.375000 0.625000
vt 0.375000 0.625000
vt 0.375000 0.562066
vt 0.375000 0.625000
vt 0.375000 0.562066
vt 0.375000 0.125000
vt 0.375000 0.062500
vt 0.360227 0.562066
vt 0.360227 0.625000
vt 0.859324 0.562066
vt 0.875000 0.562066
vt 0.875000 0.625000
vt 0.859324 0.625000
vt 0.625000 0.562066
vt 0.625000 0.625000
vt 0.625000 0.062500
vt 0.625000 0.125000
vt 0.375000 0.031250
vt 0.625000 0.031250
vt 0.375000 0.031250
vt 0.375000 0.031250
vt 0.859324 0.625000
vt 0.281250 0.687500
vt 0.250000 0.687500
vt 0.312500 0.687500
vt 0.750000 0.718750
vt 0.812500 0.718750
vt 0.639773 0.687500
vt 0.639773 0.625000
vt 0.639773 0.625000
vt 0.639773 0.687500
vt 0.187500 0.687500
vt 0.140676 0.687500
vt 0.859324 0.531033
vt 0.859324 0.562066
vt 0.859324 0.531033
vt 0.375000 0.687500
vt 0.375000 0.687500
vt 0.375000 0.687500
vt 0.360227 0.687500
vt 0.875000 0.687500
vt 0.625000 0.687500
vt 0.375000 0.531033
vt 0.625000 0.531033
vt 0.875000 0.531033
vt 0.360227 0.531033
vt 0.375000 0.531033
vt 0.375000 0.531033
vt 0.187500 0.531033
vt 0.250000 0.531033
vt 0.639773 0.718750
vt 0.687500 0.718750
vt 0.140676 0.531033
vt 0.718750 0.531033
vt 0.718750 0.531033
vt 0.281250 0.531033
vt 0.312500 0.531033
vt 0.639773 0.562066
vt 0.639773 0.562066
vt 0.375000 0.187934
vt 0.375000 0.187934
vt 0.375000 0.187934
vt 0.625000 0.187934
vt 0.125000 0.531033
vt 0.125000 0.562066
vt 0.750000 0.531033
vt 0.750000 0.531033
vt 0.718750 0.718750
vt 0.125000 0.625000
vt 0.125000 0.687500
vt 0.812500 0.531033
vt 0.812500 0.531033
vt 0.125000 0.718750
vt 0.125000 0.750000
vt 0.312500 0.500000
vt 0.360227 0.500000
vt 0.639773 0.500000
vt 0.812500 0.500000
vt 0.859324 0.500000
vt 0.125000 0.500000
vt 0.140676 0.500000
vt 0.687500 0.500000
vt 0.718750 0.500000
vt 0.250000 0.500000
vt 0.281250 0.500000
vt 0.750000 0.500000
vt 0.187500 0.500000
vt 0.875000 0.500000
vt 0.375000 0.000000
vt 0.375000 0.000000
vt 0.375000 0.000000
vt 0.625000 0.000000
vt 0.687500 0.562066
vt 0.718750 0.562066
vt 0.718750 0.625000
vt 0.687500 0.625000
vt 0.750000 0.562066
vt 0.812500 0.562066
vt 0.812500 0.625000
vt 0.750000 0.625000
vt 0.718750 0.687500
vt 0.687500 0.687500
vt 0.812500 0.687500
vt 0.750000 0.687500
vn -0.9948 -0.1014 -0.0126
vn 0.0117 0.0161 -0.9998
vn 0.9874 0.1578 0.0124
vn -0.0119 0.0250 0.9996
vn 0.0127 0.2343 -0.9721
vn -0.1759 0.9844 -0.0049
vn 0.0018 -1.0000 0.0046
vn -0.9038 0.4279 -0.0099
vn 0.8990 0.4380 0.0062
vn -0.0030 0.1689 0.9856
vn 0.0071 0.1635 0.9865
vn 0.8989 0.4381 0.0068
vn -0.8560 0.5169 -0.0097
vn 0.0292 0.2410 -0.9701
vn 0.0236 0.1778 -0.9838
vn 0.1980 0.3124 0.9291
vn -0.0021 0.2031 0.9792
vn -0.1777 0.9840 -0.0076
vn 0.0115 0.1822 -0.9832
vn 0.4119 0.0780 0.9079
vn 0.0117 0.0155 -0.9998
vn 0.0117 0.0152 -0.9998
vn 0.0112 0.1682 -0.9857
vn 0.0222 0.1618 -0.9866
vn 0.0092 0.1865 0.9824
vn -0.0025 0.1895 0.9819
vn -0.1758 0.9844 -0.0049
vn -0.0119 0.0233 0.9997
vn -0.3018 -0.0239 0.9531
vn -0.1745 0.9846 -0.0076
vn -0.0015 0.2277 0.9737
vn -0.0918 0.3512 0.9318
vn 0.0484 0.4619 -0.8856
vn 0.0121 0.2064 -0.9784
vn 0.0117 0.0158 -0.9998
vn 0.4262 0.0703 -0.9019
vn 0.0119 0.1960 -0.9805
vn 0.2098 0.3033 -0.9295
vn -0.0119 0.0218 0.9997
vn -0.1756 0.9843 -0.0164
vn -0.0019 0.2133 0.9770
vn 0.0357 0.4710 0.8814
vn 0.9843 0.1759 0.0165
vn -0.0167 0.0020 0.9999
vn -0.8559 0.5171 -0.0097
vn 0.8997 0.4365 0.0068
vn 0.8997 0.4365 0.0062
vn -0.9037 0.4280 -0.0099
vn 0.9875 0.1569 0.0124
vn -0.9947 -0.1024 -0.0126
vn -0.9946 -0.1028 -0.0126
vn 0.0167 -0.0020 -0.9999
vn -0.9843 -0.1759 -0.0165
vn 0.8993 0.4372 0.0068
vn 0.8994 0.4372 0.0062
vn 0.9875 0.1573 0.0124
vn 0.9876 0.1566 0.0124
vn 0.8999 0.4360 0.0062
vn 0.9000 0.4359 0.0068
vn -0.8560 0.5170 -0.0097
vn -0.9947 -0.1020 -0.0126
vn 0.0215 0.1538 -0.9879
vn 0.0111 0.1611 -0.9869
vn 0.0117 0.0151 -0.9998
vn 0.0078 0.1712 0.9852
vn -0.0028 0.1759 0.9844
vn -0.0119 0.0243 0.9996
vn -0.1758 0.9844 -0.0050
vn 0.0148 0.2472 0.9689
vn -0.0011 0.2406 0.9706
vn -0.0119 0.0206 0.9997
vn -0.0774 0.3436 -0.9359
vn 0.0124 0.2212 -0.9752
vn -0.2785 -0.0282 -0.9600
vn -0.1756 0.9843 -0.0163
vn -0.1771 0.9842 -0.0076
vn -0.1739 0.9847 -0.0075
vn 0.9001 0.4356 0.0068
vn 0.9001 0.4357 0.0062
vn 0.9876 0.1564 0.0124
vn -0.9947 -0.1017 -0.0126
vn -0.8558 0.5172 -0.0097
vn -0.9946 -0.1030 -0.0126
vn 0.8991 0.4377 0.0068
vn 0.8991 0.4377 0.0062
vn 0.9874 0.1576 0.0124
usemtl metal.002
s off
f 117/1/1 113/2/1 4/3/1 3/4/1
f 103/5/2 99/6/2 8/7/2 7/8/2
f 146/9/3 134/10/3 6/11/3 5/12/3
f 90/13/4 86/14/4 2/15/4 1/16/4
f 106/17/5 13/18/5 11/19/5 105/20/5
f 150/21/6 145/22/6 2/23/6 86/24/6
f 152/25/7 147/26/7 12/27/7 101/28/7
f 120/29/8 14/30/8 9/31/8 119/32/8
f 148/33/9 16/34/9 12/27/9 147/26/9
f 92/35/10 15/36/10 10/37/10 91/38/10
f 90/13/11 1/16/11 15/36/11 92/35/11
f 146/9/12 5/12/12 16/34/12 148/33/12
f 117/1/13 3/4/13 14/30/13 120/29/13
f 103/5/14 7/8/14 13/18/14 106/17/14
f 25/39/15 17/40/15 24/41/15 28/42/15
f 46/43/16 19/44/16 23/45/16 48/46/16
f 48/46/17 23/45/17 22/47/17 47/48/17
f 139/49/7 137/50/7 22/51/7 31/52/7
f 144/53/18 138/54/18 20/55/18 42/56/18
f 28/42/19 24/41/19 21/57/19 27/58/19
f 46/43/20 42/59/20 20/60/20 19/44/20
f 25/39/21 29/61/21 18/62/21 17/40/21
f 85/63/22 89/64/22 29/61/22 25/39/22
f 88/65/23 28/42/23 27/58/23 87/66/23
f 149/67/7 139/49/7 31/52/7 91/68/7
f 85/63/24 25/39/24 28/42/24 88/65/24
f 19/44/25 30/69/25 32/70/25 23/45/25
f 23/45/26 32/70/26 31/71/26 22/47/26
f 138/54/27 140/72/27 26/73/27 20/55/27
f 19/44/28 20/60/28 26/74/28 30/69/28
f 100/75/29 104/76/29 38/77/29 34/78/29
f 151/79/30 141/80/30 38/81/30 104/82/30
f 102/83/31 36/84/31 35/85/31 101/86/31
f 100/75/32 34/78/32 36/84/32 102/83/32
f 41/87/33 37/88/33 40/89/33 44/90/33
f 143/91/7 142/92/7 35/93/7 47/94/7
f 44/90/34 40/89/34 39/95/34 43/96/34
f 41/87/35 45/97/35 33/98/35 37/88/35
f 17/40/36 18/62/36 45/97/36 41/87/36
f 24/41/37 44/90/37 43/96/37 21/57/37
f 137/50/7 143/91/7 47/94/7 22/51/7
f 17/40/38 41/87/38 44/90/38 24/41/38
f 34/78/39 38/77/39 42/59/39 46/43/39
f 141/80/40 144/53/40 42/56/40 38/81/40
f 36/84/41 48/46/41 47/48/41 35/85/41
f 34/78/42 46/43/42 48/46/42 36/84/42
f 81/99/7 84/100/7 60/101/7 57/102/7
f 84/100/7 83/103/7 59/104/7 60/101/7
f 96/105/43 150/21/43 181/106/43 166/107/43
f 98/108/7 82/109/7 58/110/7 93/111/7
f 131/112/44 125/113/44 169/114/44 176/115/44
f 82/109/7 81/99/7 57/102/7 58/110/7
f 61/116/45 49/117/45 56/118/45 64/119/45
f 74/120/46 51/121/46 55/122/46 76/123/46
f 76/123/47 55/122/47 54/124/47 75/125/47
f 64/119/48 56/118/48 53/126/48 63/127/48
f 111/128/7 75/125/7 54/124/7 108/129/7
f 97/130/27 73/131/27 50/132/27 94/133/27
f 74/120/49 78/134/49 52/135/49 51/121/49
f 61/116/50 69/136/50 50/137/50 49/117/50
f 133/138/51 145/139/51 69/136/51 61/116/51
f 136/140/48 64/119/48 63/127/48 135/141/48
f 133/138/45 61/116/45 64/119/45 136/140/45
f 94/133/43 96/105/43 166/107/43 161/142/43
f 57/102/7 60/101/7 68/143/7 65/144/7
f 60/101/7 59/104/7 67/145/7 68/143/7
f 140/72/52 138/54/52 177/146/52 178/147/52
f 109/148/53 107/149/53 173/150/53 174/151/53
f 93/111/7 58/110/7 66/152/7 95/153/7
f 130/154/43 97/130/43 171/155/43 172/156/43
f 58/110/7 57/102/7 65/144/7 66/152/7
f 51/121/54 70/157/54 72/158/54 55/122/54
f 55/122/55 72/158/55 71/159/55 54/124/55
f 108/129/7 54/124/7 71/159/7 110/160/7
f 94/133/27 50/132/27 69/161/27 96/105/27
f 51/121/56 52/135/56 62/162/56 70/157/56
f 114/163/57 118/164/57 78/134/57 74/120/57
f 130/154/6 113/165/6 73/131/6 97/130/6
f 132/166/7 115/167/7 75/125/7 111/128/7
f 116/168/58 76/123/58 75/125/58 115/167/58
f 114/163/59 74/120/59 76/123/59 116/168/59
f 123/169/7 121/170/7 81/99/7 82/109/7
f 141/80/52 151/79/52 182/171/52 179/172/52
f 129/173/7 123/169/7 82/109/7 98/108/7
f 150/21/52 140/72/52 178/147/52 181/106/52
f 125/113/44 128/174/44 170/175/44 169/114/44
f 127/176/7 126/177/7 83/103/7 84/100/7
f 121/170/7 127/176/7 84/100/7 81/99/7
f 112/178/53 131/112/53 176/115/53 175/179/53
f 49/117/60 77/180/60 80/181/60 56/118/60
f 56/118/8 80/181/8 79/182/8 53/126/8
f 49/117/61 50/137/61 73/183/61 77/180/61
f 119/184/7 129/173/7 98/108/7 79/185/7
f 128/174/44 122/186/44 167/187/44 170/175/44
f 144/53/52 141/80/52 179/172/52 180/188/52
f 53/189/7 93/111/7 95/153/7 63/190/7
f 124/191/44 130/154/44 172/156/44 168/192/44
f 79/185/7 98/108/7 93/111/7 53/189/7
f 3/4/62 85/63/62 88/65/62 14/30/62
f 135/193/7 149/67/7 91/68/7 10/194/7
f 14/30/63 88/65/63 87/66/63 9/31/63
f 3/4/64 4/3/64 89/64/64 85/63/64
f 30/69/65 90/13/65 92/35/65 32/70/65
f 32/70/66 92/35/66 91/38/66 31/71/66
f 140/72/27 150/21/27 86/24/27 26/73/27
f 30/69/67 26/74/67 86/14/67 90/13/67
f 118/164/68 131/112/68 112/178/68 78/134/68
f 126/177/7 132/166/7 111/128/7 83/103/7
f 59/104/7 108/129/7 110/160/7 67/145/7
f 52/135/6 107/149/6 109/148/6 62/162/6
f 83/103/7 111/128/7 108/129/7 59/104/7
f 78/134/27 112/178/27 107/149/27 52/135/27
f 5/12/69 100/75/69 102/83/69 16/34/69
f 16/34/70 102/83/70 101/86/70 12/27/70
f 134/10/27 151/79/27 104/82/27 6/11/27
f 5/12/71 6/11/71 104/76/71 100/75/71
f 37/88/72 103/5/72 106/17/72 40/89/72
f 142/92/7 152/25/7 101/28/7 35/93/7
f 40/89/73 106/17/73 105/20/73 39/95/73
f 37/88/74 33/98/74 99/6/74 103/5/74
f 39/195/7 105/196/7 132/166/7 126/177/7
f 8/7/27 99/197/27 131/112/27 118/164/27
f 29/198/27 89/199/27 130/154/27 124/191/27
f 9/200/7 87/201/7 129/173/7 119/184/7
f 33/202/75 45/203/75 128/174/75 125/113/75
f 21/204/7 43/205/7 127/176/7 121/170/7
f 43/205/7 39/195/7 126/177/7 127/176/7
f 99/197/76 33/202/76 125/113/76 131/112/76
f 18/206/27 29/198/27 124/191/27 122/186/27
f 87/201/7 27/207/7 123/169/7 129/173/7
f 45/203/77 18/206/77 122/186/77 128/174/77
f 27/207/7 21/204/7 121/170/7 123/169/7
f 7/8/78 114/163/78 116/168/78 13/18/78
f 13/18/79 116/168/79 115/167/79 11/19/79
f 105/196/7 11/19/7 115/167/7 132/166/7
f 89/199/6 4/208/6 113/165/6 130/154/6
f 7/8/80 8/7/80 118/164/80 114/163/80
f 77/180/13 117/1/13 120/29/13 80/181/13
f 80/181/8 120/29/8 119/32/8 79/182/8
f 77/180/81 73/183/81 113/2/81 117/1/81
f 67/145/7 110/160/7 152/25/7 142/92/7
f 62/162/6 109/148/6 151/79/6 134/10/6
f 97/130/43 94/133/43 161/142/43 171/155/43
f 63/190/7 95/153/7 149/67/7 135/193/7
f 1/209/82 133/138/82 136/140/82 15/210/82
f 15/210/48 136/140/48 135/141/48 10/211/48
f 1/209/83 2/212/83 145/139/83 133/138/83
f 138/54/52 144/53/52 180/188/52 177/146/52
f 65/144/7 68/143/7 143/91/7 137/50/7
f 68/143/7 67/145/7 142/92/7 143/91/7
f 151/79/53 109/148/53 174/151/53 182/171/53
f 122/186/44 124/191/44 168/192/44 167/187/44
f 95/153/7 66/152/7 139/49/7 149/67/7
f 107/149/53 112/178/53 175/179/53 173/150/53
f 66/152/7 65/144/7 137/50/7 139/49/7
f 70/157/84 146/9/84 148/33/84 72/158/84
f 72/158/85 148/33/85 147/26/85 71/159/85
f 110/160/7 71/159/7 147/26/7 152/25/7
f 96/105/6 69/161/6 145/22/6 150/21/6
f 70/157/86 62/162/86 134/10/86 146/9/86
f 157/213/27 159/214/27 160/215/27 158/216/27
f 175/179/27 157/213/27 158/216/27 173/150/27
f 153/217/27 155/218/27 156/219/27 154/220/27
f 159/214/27 153/217/27 154/220/27 160/215/27
f 158/216/27 160/215/27 165/221/27 164/222/27
f 173/150/27 158/216/27 164/222/27 174/151/27
f 154/220/27 156/219/27 163/223/27 162/224/27
f 160/215/27 154/220/27 162/224/27 165/221/27
f 170/175/27 167/187/27 153/217/27 159/214/27
f 167/187/27 168/192/27 155/218/27 153/217/27
f 176/115/27 169/114/27 157/213/27 175/179/27
f 169/114/27 170/175/27 159/214/27 157/213/27
f 168/192/27 172/156/27 171/155/27 155/218/27
f 156/219/27 161/142/27 166/107/27 163/223/27
f 155/218/27 171/155/27 161/142/27 156/219/27
f 163/223/27 166/107/27 181/106/27 178/147/27
f 164/222/27 165/221/27 180/188/27 179/172/27
f 174/151/27 164/222/27 179/172/27 182/171/27
f 162/224/27 163/223/27 178/147/27 177/146/27
f 165/221/27 162/224/27 177/146/27 180/188/27
