# Blender v2.92.0 OBJ File: 'zombie_sphaggeti.blend'
# www.blender.org
mtllib hand_right.mtl
o hand_r_Cube
v -0.037814 1.973384 -0.107077
v 0.043016 2.131180 -0.107077
v -0.037814 2.020590 -0.352658
v 0.043016 2.285242 -0.410252
v 0.119982 1.892555 -0.107077
v 0.200811 2.050350 -0.107077
v 0.119982 1.939760 -0.352658
v 0.200811 2.097555 -0.352658
v -0.041784 1.690237 -0.748888
v -0.052656 1.532442 -0.668792
v -0.031432 1.451612 -0.825154
v -0.020561 1.609408 -0.905249
v -0.228519 1.690237 -0.769450
v -0.426075 1.532442 -0.743334
v -0.081565 1.325764 -0.899695
v -0.136176 1.609408 -0.914475
v 0.002601 2.052282 -0.107077
v -0.014082 2.102754 -0.340610
v 0.183620 1.994587 -0.333466
v 0.160397 1.971452 -0.107077
v -0.047220 1.611339 -0.708840
v -0.025997 1.530510 -0.865202
v -0.596389 1.611339 -0.783381
v -0.575166 1.530510 -0.939743
v 0.041084 1.887920 -0.352658
v 0.121914 2.173267 -0.352658
v 0.041084 1.932969 -0.107077
v 0.121914 2.090765 -0.107077
v -0.042044 1.492027 -0.746973
v -0.031173 1.649822 -0.827068
v -0.591213 1.492027 -0.821514
v -0.580342 1.649822 -0.901610
v -0.618938 1.570925 -0.861562
v 0.081499 2.011867 -0.107077
v 0.006013 1.950083 -0.330242
v 0.082465 2.110972 -0.107077
v -0.047350 1.512234 -0.707883
v -0.596519 1.512234 -0.782424
v 0.042050 2.032075 -0.107077
v 0.082465 2.193474 -0.352658
v 0.001635 1.953177 -0.107077
v -0.036478 1.670030 -0.787978
v -0.585648 1.670030 -0.862519
v -0.591083 1.591132 -0.822472
v -0.034289 2.063306 -0.340610
v 0.153510 1.967818 -0.342145
v 0.140189 1.932003 -0.107077
v -0.049938 1.571890 -0.688816
v -0.028714 1.491061 -0.845178
v -0.690244 1.571890 -0.763357
v -0.577883 1.491061 -0.919719
v -0.017606 2.012833 -0.107077
v 0.061291 1.972418 -0.107077
v -0.588495 1.531476 -0.841538
v -0.593801 1.551683 -0.802448
v 0.021843 1.992626 -0.107077
v 0.161362 2.153059 -0.352658
v 0.080533 1.912762 -0.107077
v -0.025867 1.629615 -0.866159
v -0.618464 1.629615 -0.940700
v -0.580472 1.550717 -0.900652
v 0.090335 1.929786 -0.328671
v 0.161362 2.070558 -0.107077
v -0.036738 1.471820 -0.786064
v -0.585907 1.471819 -0.860605
v 0.120948 1.991660 -0.107077
v 0.100740 1.952211 -0.107077
v -0.634564 1.511268 -0.880629
v 0.022808 2.091731 -0.107077
v 0.006126 2.142203 -0.340610
v 0.193925 2.046716 -0.342145
v 0.180604 2.010901 -0.107077
v -0.044502 1.650788 -0.728864
v -0.023279 1.569959 -0.885225
v -0.593671 1.650788 -0.803405
v -0.572448 1.569959 -0.959767
v -0.583059 1.610373 -0.881586
v 0.101706 2.051316 -0.107077
v -0.588365 1.630581 -0.842495
v 0.062257 2.071523 -0.107077
v 0.141155 2.031109 -0.107077
v -0.577754 1.590166 -0.920676
v -1.127164 1.646035 -0.847174
v -1.127332 1.643588 -0.845932
v -1.091482 1.636622 -1.011925
v -1.091651 1.634175 -1.010683
v -1.091980 1.635428 -1.008259
v -0.889358 1.793849 -0.911088
v -0.889029 1.792596 -0.913513
v -1.116139 1.538426 -0.858293
v -1.116307 1.535980 -0.857051
v -1.116636 1.537233 -0.854627
v -1.127003 1.642335 -0.848357
v -1.116468 1.539680 -0.855869
v -1.091811 1.637875 -1.009501
v -0.889197 1.790149 -0.912271
v -0.037814 2.009213 -0.293473
v 0.043016 2.167009 -0.293473
v 0.119982 1.928383 -0.293473
v 0.200811 2.086179 -0.293473
v 0.178023 1.989011 -0.278906
v -0.010061 2.090590 -0.284329
v 0.121914 2.153384 -0.293473
v 0.041084 1.898777 -0.293473
v 0.004958 1.950829 -0.276459
v 0.082465 2.173591 -0.293473
v -0.030268 2.051142 -0.284329
v 0.150300 1.959187 -0.285494
v 0.161362 2.133176 -0.293473
v 0.087973 1.925683 -0.275267
v 0.190715 2.038084 -0.285494
v 0.010146 2.130039 -0.284329
v 0.103885 1.887865 -0.402889
v 0.177277 2.045660 -0.411404
v -0.039392 1.968694 -0.386266
v 0.034001 2.126490 -0.394781
v -0.017605 2.050512 -0.379757
v 0.161336 1.945250 -0.389995
v 0.105639 2.117619 -0.403093
v 0.032247 1.845832 -0.394578
v 0.069820 2.137826 -0.398937
v 0.000340 1.903535 -0.370389
v -0.035953 2.011063 -0.377628
v 0.134138 1.917133 -0.395623
v 0.076826 1.881099 -0.377297
v 0.141458 2.097411 -0.407248
v 0.170834 1.996031 -0.399880
v 0.000744 2.089961 -0.381886
vt 0.562500 0.189750
vt 0.625000 0.189750
vt 0.625000 0.250000
vt 0.562500 0.250000
vt 0.562500 0.560250
vt 0.625000 0.560250
vt 0.625000 0.750000
vt 0.562500 0.750000
vt 0.562500 0.937500
vt 0.625000 0.937500
vt 0.625000 1.000000
vt 0.562500 1.000000
vt 0.312500 0.560250
vt 0.375000 0.560250
vt 0.375000 0.750000
vt 0.312500 0.750000
vt 0.812500 0.560250
vt 0.875000 0.560250
vt 0.875000 0.750000
vt 0.812500 0.750000
vt 0.437500 0.500000
vt 0.375000 0.500000
vt 0.375000 0.500000
vt 0.437500 0.500000
vt 0.562500 0.437500
vt 0.625000 0.437500
vt 0.625000 0.500000
vt 0.562500 0.500000
vt 0.437500 0.250000
vt 0.500000 0.250000
vt 0.500000 0.250000
vt 0.437500 0.250000
vt 0.437500 0.437500
vt 0.500000 0.437500
vt 0.500000 0.500000
vt 0.562500 0.500000
vt 0.500000 0.500000
vt 0.437500 0.937500
vt 0.500000 0.937500
vt 0.500000 1.000000
vt 0.437500 1.000000
vt 0.437500 0.560250
vt 0.500000 0.560250
vt 0.500000 0.750000
vt 0.437500 0.750000
vt 0.437500 0.189750
vt 0.500000 0.189750
vt 0.500000 0.250000
vt 0.437500 0.250000
vt 0.437500 0.812500
vt 0.500000 0.812500
vt 0.500000 0.875000
vt 0.437500 0.875000
vt 0.437500 0.312500
vt 0.500000 0.312500
vt 0.500000 0.375000
vt 0.437500 0.375000
vt 0.812500 0.500000
vt 0.750000 0.500000
vt 0.750000 0.500000
vt 0.812500 0.500000
vt 0.312500 0.500000
vt 0.250000 0.500000
vt 0.250000 0.500000
vt 0.312500 0.500000
vt 0.687500 0.560250
vt 0.750000 0.560250
vt 0.750000 0.750000
vt 0.687500 0.750000
vt 0.187500 0.560250
vt 0.250000 0.560250
vt 0.250000 0.750000
vt 0.187500 0.750000
vt 0.562500 0.812500
vt 0.625000 0.812500
vt 0.625000 0.875000
vt 0.562500 0.875000
vt 0.125000 0.560250
vt 0.125000 0.750000
vt 0.562500 0.250000
vt 0.625000 0.250000
vt 0.625000 0.312500
vt 0.562500 0.312500
vt 0.187500 0.500000
vt 0.187500 0.500000
vt 0.375000 0.875000
vt 0.375000 0.937500
vt 0.375000 0.250000
vt 0.375000 0.312500
vt 0.437500 0.375000
vt 0.437500 0.312500
vt 0.375000 0.812500
vt 0.375000 0.189750
vt 0.375000 0.250000
vt 0.375000 1.000000
vt 0.375000 0.437500
vt 0.375000 0.375000
vt 0.687500 0.500000
vt 0.687500 0.500000
vt 0.562500 0.375000
vt 0.625000 0.375000
vt 0.000000 0.000000
vt 0.000000 0.000000
vt 0.562500 0.250000
vt 0.625000 0.375000
vt 0.000000 0.000000
vt 0.562500 0.375000
vt 0.375000 0.312500
vt 0.375000 0.375000
vt 0.500000 0.437500
vt 0.562500 0.437500
vt 0.562500 0.500000
vt 0.500000 0.500000
vt 0.562500 0.250000
vt 0.500000 0.250000
vt 0.500000 0.312500
vt 0.750000 0.500000
vt 0.812500 0.500000
vt 0.187500 0.500000
vt 0.250000 0.500000
vt 0.500000 0.000000
vt 0.562500 0.000000
vt 0.500000 0.500000
vt 0.562500 0.500000
vt 0.250000 0.500000
vt 0.312500 0.500000
vt 0.625000 0.500000
vt 0.687500 0.500000
vt 0.375000 0.500000
vt 0.437500 0.500000
vt 0.375000 0.000000
vt 0.437500 0.000000
vt 0.750000 0.500000
vt 0.812500 0.500000
vt 0.125000 0.500000
vt 0.187500 0.500000
vt 0.875000 0.500000
vt 0.625000 0.000000
vt 0.562500 0.250000
vt 0.500000 0.250000
vt 0.562500 0.500000
vt 0.625000 0.500000
vt 0.687500 0.500000
vt 0.750000 0.500000
vt 0.312500 0.500000
vt 0.375000 0.500000
vt 0.437500 0.500000
vt 0.500000 0.500000
vt 0.437500 0.250000
vt 0.375000 0.250000
vt 0.812500 0.500000
vt 0.875000 0.500000
vt 0.625000 0.250000
vt 0.125000 0.500000
vt 0.187500 0.500000
vt 0.125000 0.500000
vt 0.625000 0.500000
vt 0.625000 0.250000
vt 0.125000 0.500000
vt 0.250000 0.500000
vt 0.875000 0.500000
vt 0.875000 0.500000
vt 0.375000 0.250000
vn -0.7972 0.4731 0.3750
vn 0.9437 -0.3295 -0.0308
vn 0.0000 0.0000 1.0000
vn -0.2685 -0.9535 -0.1367
vn 0.1647 0.9537 0.2518
vn 0.1827 0.2548 -0.9496
vn 0.0001 0.3045 -0.9525
vn -0.1040 0.5484 0.8297
vn -0.7226 0.1818 -0.6669
vn 0.1197 -0.4559 -0.8819
vn 0.8227 -0.5685 -0.0075
vn -0.8786 0.4500 0.1600
vn -0.9265 -0.1505 0.3450
vn 0.0613 0.8900 -0.4518
vn -0.0613 -0.8900 0.4518
vn 0.4368 0.8527 0.2865
vn -0.6814 -0.7287 0.0685
vn -0.6809 -0.7285 -0.0749
vn -0.2115 0.9375 0.2764
vn -0.5310 0.2370 -0.8136
vn -0.3090 -0.6934 0.6509
vn 0.0262 0.8895 -0.4562
vn -0.9917 0.1152 0.0580
vn 0.8136 -0.5764 -0.0770
vn -0.3103 -0.8908 -0.3321
vn -0.8199 -0.2063 0.5341
vn 0.6357 0.7463 0.1971
vn -0.0728 -0.5984 0.7979
vn -0.9629 0.2663 -0.0440
vn 0.0625 0.8756 -0.4789
vn -0.8685 -0.1847 0.4600
vn 0.0644 -0.9961 0.0611
vn -0.8331 0.1353 -0.5364
vn 0.0408 0.4500 0.8921
vn -0.8929 0.4496 0.0251
vn -0.1197 0.4559 0.8819
vn -0.9909 -0.0000 -0.1345
vn 0.9377 -0.3462 0.0300
vn -0.5010 -0.7947 0.3428
vn 0.3629 0.2980 -0.8829
vn 0.0223 -0.4537 -0.8909
vn -0.1103 0.4559 0.8832
vn -0.1009 0.4558 0.8843
vn -0.0768 0.4555 0.8869
vn 0.0312 -0.4541 -0.8904
vn -0.1064 -0.8891 0.4452
vn 0.4007 0.8349 -0.3772
vn -0.1680 -0.4370 -0.8837
vn 0.1576 0.8858 -0.4365
vn -0.2337 -0.8763 0.4213
vn -0.1046 -0.8892 0.4455
vn 0.0204 0.3052 -0.9521
vn 0.9755 -0.2141 0.0499
vn 0.5628 -0.8243 0.0613
vn 0.7824 0.6022 0.1590
vn 0.6903 -0.7159 -0.1045
vn -0.9453 0.3116 0.0964
vn -0.8197 -0.5695 -0.0612
vn -0.8402 -0.5402 0.0476
vn 0.7037 -0.7097 -0.0349
vn 0.3703 0.7307 0.5735
vn 0.1114 -0.9848 -0.1331
vn 0.9855 -0.1695 -0.0020
vn -0.8044 0.5761 0.1455
vn -0.8214 0.3902 -0.4160
vn 0.9576 -0.1769 -0.2275
vn 0.2851 0.6072 -0.7416
vn 0.6031 -0.6423 0.4729
vn 0.5684 -0.7044 0.4252
vn -0.9874 0.1088 -0.1151
vn 0.6139 0.0512 -0.7877
vn 0.2744 0.5891 -0.7600
vn 0.9574 -0.2183 -0.1891
vn -0.8004 0.3786 -0.4648
vn -0.8686 0.1181 -0.4812
vn 0.6041 0.4495 -0.6580
vn -0.7834 -0.3347 0.5237
vn 0.4820 -0.6998 0.5273
vn 0.9042 -0.4150 0.1013
vn -0.5469 -0.4758 0.6889
vn 0.3311 0.6178 -0.7132
vn -0.9127 0.3247 -0.2479
vn -0.0993 -0.7828 0.6143
vn 0.0587 0.8662 -0.4963
vn -0.1181 0.3892 0.9136
vn -0.9583 0.1979 -0.2063
vn 0.9581 -0.1983 -0.2069
vn -0.1156 0.6685 -0.7347
vn 0.4559 -0.6823 0.5715
vn -0.5115 0.6048 -0.6104
vn 0.0545 0.9050 -0.4219
vn -0.1308 -0.6619 0.7381
vn -0.9963 0.0675 -0.0538
vn -0.1455 0.0200 0.9892
vn 0.9157 -0.4015 0.0183
vn 0.6358 -0.6281 0.4486
vn -0.0673 0.6963 -0.7146
vn 0.9576 -0.1785 -0.2261
vn 0.1169 -0.3535 -0.9281
vn -0.9633 0.2104 -0.1667
vn -0.5013 -0.5423 0.6743
vn 0.3033 -0.7093 0.6363
usemtl metal.002
s off
f 112/1/1 98/2/1 4/3/1 70/4/1
f 111/5/2 100/6/2 6/7/2 72/8/2
f 80/9/3 36/10/3 2/11/3 69/12/3
f 110/13/4 99/14/4 5/15/4 58/16/4
f 106/17/5 98/18/5 2/19/5 36/20/5
f 49/21/6 11/22/6 15/23/6 51/24/6
f 82/25/7 60/26/7 16/27/7 76/28/7
f 48/29/8 21/30/8 23/31/8 50/32/8
f 68/33/9 61/34/9 24/35/9 51/24/9
f 74/36/10 22/37/10 24/35/10 76/28/10
f 56/38/3 39/39/3 17/40/3 52/41/3
f 108/42/11 101/43/11 20/44/11 47/45/11
f 107/46/12 102/47/12 18/48/12 45/49/12
f 67/50/3 66/51/3 34/52/3 53/53/3
f 55/54/13 44/55/13 33/56/13 54/57/13
f 42/58/14 30/59/14 32/60/14 43/61/14
f 64/62/15 29/63/15 31/64/15 65/65/15
f 109/66/16 103/67/16 28/68/16 63/69/16
f 105/70/17 104/71/17 27/72/17 41/73/17
f 81/74/3 63/75/3 28/76/3 78/77/3
f 97/78/18 105/70/18 41/73/18 1/79/18
f 75/80/19 13/81/19 43/82/19 79/83/19
f 50/32/20 23/31/20 44/55/20 55/54/20
f 53/53/3 34/52/3 39/39/3 56/38/3
f 29/63/15 37/84/15 38/85/15 31/64/15
f 103/67/16 106/17/16 36/20/16 28/68/16
f 78/77/3 28/76/3 36/10/3 80/9/3
f 27/86/3 53/53/3 56/38/3 41/87/3
f 14/88/21 50/32/21 55/54/21 38/89/21
f 55/54/22 54/57/22 90/90/22 94/91/22
f 58/92/3 67/50/3 53/53/3 27/86/3
f 97/93/23 107/46/23 45/49/23 3/94/23
f 99/14/24 108/42/24 47/45/24 5/15/24
f 41/87/3 56/38/3 52/41/3 1/95/3
f 65/96/25 68/33/25 51/24/25 15/23/25
f 31/97/26 54/57/26 68/33/26 65/96/26
f 5/15/3 47/45/3 67/50/3 58/92/3
f 72/8/3 6/7/3 63/75/3 81/74/3
f 100/6/27 109/66/27 63/69/27 6/7/27
f 11/22/28 64/62/28 65/65/28 15/23/28
f 47/45/3 20/44/3 66/51/3 67/50/3
f 54/57/29 33/56/29 61/34/29 68/33/29
f 30/59/30 59/98/30 60/99/30 32/60/30
f 77/100/31 32/101/31 60/26/31 82/25/31
f 104/71/32 110/13/32 58/16/32 27/72/32
f 33/56/33 77/100/33 82/25/33 61/34/33
f 20/44/3 72/8/3 81/74/3 66/51/3
f 34/52/3 78/77/3 80/9/3 39/39/3
f 79/102/34 43/61/34 88/103/34
f 66/51/3 81/74/3 78/77/3 34/52/3
f 44/55/35 79/83/35 77/100/35 33/56/35
f 21/30/36 73/104/36 75/80/36 23/31/36
f 88/103/37 89/105/37 96/106/37
f 39/39/3 80/9/3 69/12/3 17/40/3
f 101/43/38 111/5/38 72/8/38 20/44/38
f 102/47/12 112/1/12 70/4/12 18/48/12
f 77/100/39 79/102/39 96/107/39
f 92/108/37 94/91/37 90/90/37 91/109/37
f 87/110/37 95/111/37 85/112/37 86/113/37
f 88/103/40 79/102/40 96/106/40
f 54/57/41 31/97/41 91/109/41 90/90/41
f 61/34/42 82/25/42 95/111/42 87/110/42
f 38/89/43 55/54/43 94/91/43 92/108/43
f 23/31/44 75/80/44 83/114/44 84/115/44
f 76/28/45 24/35/45 86/113/45 85/112/45
f 44/55/46 23/31/46 84/115/46 93/116/46
f 43/61/47 32/60/47 89/117/47 88/118/47
f 32/101/48 77/100/48 96/107/48 89/105/48
f 82/25/49 76/28/49 85/112/49 95/111/49
f 24/35/50 61/34/50 87/110/50 86/113/50
f 31/64/51 38/85/51 92/119/51 91/120/51
f 84/115/37 83/114/37 93/116/37
f 44/55/52 93/116/52 83/114/52 75/80/52 79/83/52
f 17/121/12 69/122/12 112/1/12 102/47/12
f 19/123/53 71/124/53 111/5/53 101/43/53
f 25/125/54 62/126/54 110/13/54 104/71/54
f 8/127/55 57/128/55 109/66/55 100/6/55
f 7/129/56 46/130/56 108/42/56 99/14/56
f 1/131/57 52/132/57 107/46/57 97/93/57
f 26/133/16 40/134/16 106/17/16 103/67/16
f 3/135/58 35/136/58 105/70/58 97/78/58
f 35/136/59 25/125/59 104/71/59 105/70/59
f 57/128/16 26/133/16 103/67/16 109/66/16
f 52/132/12 17/121/12 102/47/12 107/46/12
f 46/130/60 19/123/60 101/43/60 108/42/60
f 40/134/61 4/137/61 98/18/61 106/17/61
f 62/126/62 7/129/62 99/14/62 110/13/62
f 71/124/63 8/127/63 100/6/63 111/5/63
f 69/122/64 2/138/64 98/2/64 112/1/64
f 18/48/65 70/4/65 128/139/65 117/140/65
f 8/127/66 71/124/66 127/141/66 114/142/66
f 26/133/67 57/128/67 126/143/67 119/144/67
f 7/129/68 62/126/68 125/145/68 113/146/68
f 19/123/69 46/130/69 124/147/69 118/148/69
f 3/94/70 45/49/70 123/149/70 115/150/70
f 4/137/71 40/134/71 121/151/71 116/152/71
f 40/134/72 26/133/72 119/144/72 121/151/72
f 71/124/73 19/123/73 118/148/73 127/141/73
f 45/49/74 18/48/74 117/140/74 123/149/74
f 70/4/75 4/3/75 116/153/75 128/139/75
f 57/128/76 8/127/76 114/142/76 126/143/76
f 35/136/77 3/135/77 115/154/77 122/155/77
f 46/130/78 7/129/78 113/146/78 124/147/78
usemtl pasta.001
f 124/147/79 113/146/79 11/22/79 49/21/79
f 122/155/80 115/154/80 10/156/80 37/84/80
f 126/143/81 114/142/81 12/157/81 59/98/81
f 128/139/82 116/153/82 9/158/82 73/104/82
f 37/84/83 10/156/83 14/159/83 38/85/83
f 59/98/84 12/157/84 16/27/84 60/99/84
f 73/104/85 9/158/85 13/81/85 75/80/85
f 123/149/86 117/140/86 21/30/86 48/29/86
f 127/141/87 118/148/87 22/37/87 74/36/87
f 121/151/88 119/144/88 30/59/88 42/58/88
f 125/145/89 120/160/89 29/63/89 64/62/89
f 116/152/90 121/151/90 42/58/90 9/161/90
f 9/161/91 42/58/91 43/61/91 13/162/91
f 120/160/92 122/155/92 37/84/92 29/63/92
f 115/150/93 123/149/93 48/29/93 10/163/93
f 10/163/94 48/29/94 50/32/94 14/88/94
f 22/37/10 49/21/10 51/24/10 24/35/10
f 118/148/95 124/147/95 49/21/95 22/37/95
f 113/146/96 125/145/96 64/62/96 11/22/96
f 119/144/97 126/143/97 59/98/97 30/59/97
f 114/142/98 127/141/98 74/36/98 12/157/98
f 12/157/99 74/36/99 76/28/99 16/27/99
f 117/140/100 128/139/100 73/104/100 21/30/100
f 25/125/101 35/136/101 122/155/101 120/160/101
f 62/126/102 25/125/102 120/160/102 125/145/102
