# Blender v2.92.0 OBJ File: 'zombie_sphaggeti.blend'
# www.blender.org
mtllib hand_left.mtl
o hand_l_Cube.001
v 0.076434 1.600504 0.433530
v 0.032102 1.824762 0.486872
v 0.066325 1.984730 0.226709
v 0.066325 2.092330 0.226709
v 0.298345 1.527642 0.618763
v 0.298345 1.824762 0.618763
v 0.173925 1.984730 0.226709
v 0.173925 2.092330 0.226709
v -0.023881 1.385020 0.580044
v -0.032183 1.644472 0.599165
v 0.087914 1.644472 0.870932
v 0.128303 1.407786 0.867155
v -0.127901 1.328110 0.629729
v -0.127901 1.625230 0.629729
v -0.173415 1.625230 0.923343
v -0.173415 1.328110 0.923343
v -1.113508 1.470062 0.620594
v -1.113508 1.483278 0.620594
v -1.115533 1.483278 0.633654
v -1.115533 1.470062 0.633654
v 0.026276 1.492762 0.506787
v -0.000041 1.734617 0.543019
v 0.213324 1.467714 0.742959
v 0.193129 1.734617 0.744847
v 0.001198 1.438891 0.543415
v 0.170814 1.437750 0.805057
v -0.016112 1.689544 0.571092
v 0.140522 1.689544 0.807889
v 0.016031 1.779690 0.514945
v 0.245737 1.779690 0.681805
v 0.051355 1.546633 0.470158
v 0.255835 1.497678 0.680861
v 0.024066 1.802226 0.500909
v 0.272041 1.802226 0.650284
v 0.063894 1.573569 0.451844
v 0.277090 1.512660 0.649812
v 0.038816 1.519698 0.488473
v 0.234579 1.482696 0.711910
v 0.007995 1.757153 0.528982
v 0.219433 1.757153 0.713326
v -0.008076 1.712081 0.557055
v 0.166825 1.712081 0.776368
v 0.013737 1.465827 0.525101
v 0.192069 1.452732 0.774008
v -0.011342 1.411956 0.561730
v 0.149559 1.422768 0.836106
v -0.024148 1.667008 0.585128
v 0.114218 1.667008 0.839410
v 0.054268 1.712633 0.460201
v 0.066325 2.038530 0.226709
v 0.173925 2.038530 0.226709
v 0.298345 1.676202 0.618763
v -0.028032 1.514746 0.589604
v 0.108109 1.526129 0.869043
v -0.127901 1.476670 0.629729
v -0.173415 1.476670 0.923343
v -1.113508 1.476670 0.620594
v -1.115533 1.476670 0.633654
v 0.203227 1.601166 0.743903
v 0.013118 1.613690 0.524903
v 0.155668 1.563647 0.806473
v -0.007457 1.564218 0.557254
v 0.033693 1.663161 0.492552
v 0.250786 1.638684 0.681333
v 0.274565 1.657443 0.650048
v 0.043980 1.687897 0.476376
v 0.023405 1.638425 0.508727
v 0.227006 1.619925 0.712618
v 0.002830 1.588954 0.541078
v 0.179447 1.582406 0.775188
v 0.131888 1.544888 0.837758
v -0.017745 1.539482 0.573429
v 0.066325 2.011630 0.226709
v 0.173925 2.011630 0.226709
v 0.298345 1.601922 0.618763
v 0.118206 1.466958 0.868099
v -0.173415 1.402390 0.923343
v -1.115533 1.473366 0.633654
v 0.208275 1.534440 0.743431
v 0.163241 1.500699 0.805765
v 0.253310 1.568181 0.681097
v 0.275828 1.585051 0.649930
v 0.230793 1.551310 0.712264
v 0.185758 1.517569 0.774598
v 0.140723 1.483828 0.836932
v 0.065351 1.656569 0.446865
v -0.025957 1.449883 0.584824
v -0.127901 1.402390 0.629729
v -1.113508 1.473366 0.620594
v 0.019697 1.553226 0.515845
v -0.003130 1.501554 0.550335
v 0.042524 1.604897 0.481355
v 0.053937 1.630733 0.464110
v 0.031111 1.579062 0.498600
v 0.008284 1.527390 0.533090
v -0.014543 1.475719 0.567579
v 0.043185 1.768698 0.473537
v -0.030108 1.579609 0.594385
v -0.127901 1.550950 0.629729
v -1.113508 1.479974 0.620594
v 0.006539 1.674153 0.533961
v -0.011785 1.626881 0.564173
v 0.024862 1.721425 0.503749
v 0.034023 1.745062 0.488643
v 0.015700 1.697789 0.518855
v -0.002623 1.650517 0.549067
v -0.020946 1.603245 0.579279
v 0.066325 2.065430 0.226709
v 0.173925 2.065430 0.226709
v 0.298345 1.750482 0.618763
v 0.098011 1.585300 0.869987
v -0.173415 1.550950 0.923343
v -1.115533 1.479974 0.633654
v 0.198178 1.667891 0.744375
v 0.148095 1.626596 0.807181
v 0.248262 1.709187 0.681569
v 0.273303 1.729834 0.650166
v 0.223220 1.688539 0.712972
v 0.173136 1.647243 0.775778
v 0.123053 1.605948 0.838584
v 0.066325 2.051980 0.226709
v 0.173925 2.051980 0.226709
v 0.298345 1.713342 0.618763
v 0.103060 1.555715 0.869515
v -0.173415 1.513810 0.923343
v -1.115533 1.478322 0.633654
v 0.200702 1.634528 0.744139
v 0.151881 1.595122 0.806827
v 0.249524 1.673935 0.681451
v 0.273934 1.693639 0.650107
v 0.225113 1.654232 0.712795
v 0.176292 1.614825 0.775483
v 0.127470 1.575418 0.838171
v 0.048727 1.740665 0.466869
v -0.029070 1.547177 0.591995
v -0.127901 1.513810 0.629729
v -1.113508 1.478322 0.620594
v 0.009828 1.643921 0.529432
v -0.009621 1.595549 0.560713
v 0.029277 1.692293 0.498150
v 0.039002 1.716479 0.482510
v 0.019553 1.668107 0.513791
v 0.000104 1.619735 0.545072
v -0.019345 1.571363 0.576354
v 0.037644 1.796730 0.480205
v -0.031146 1.612040 0.596775
v -0.127901 1.588090 0.629729
v -1.113508 1.481626 0.620594
v 0.003249 1.704385 0.538490
v -0.013948 1.658213 0.567632
v 0.020446 1.750557 0.509347
v 0.029045 1.773644 0.494776
v 0.011848 1.727471 0.523918
v -0.005350 1.681299 0.553061
v -0.022547 1.635126 0.582204
v 0.066325 2.078880 0.226709
v 0.173925 2.078880 0.226709
v 0.298345 1.787622 0.618763
v 0.092962 1.614886 0.870459
v -0.173415 1.588090 0.923343
v -1.115533 1.481626 0.633654
v 0.195654 1.701254 0.744611
v 0.144308 1.658070 0.807535
v 0.246999 1.744438 0.681687
v 0.272672 1.766030 0.650225
v 0.221327 1.722846 0.713149
v 0.169981 1.679662 0.776073
v 0.118635 1.636478 0.838997
v 0.059809 1.684601 0.453533
v -0.026994 1.482315 0.587214
v -0.127901 1.439530 0.629729
v -1.113508 1.475018 0.620594
v 0.016408 1.583458 0.520374
v -0.005293 1.532886 0.553794
v 0.038108 1.634029 0.486953
v 0.048959 1.659315 0.470243
v 0.027258 1.608744 0.503664
v 0.005557 1.558172 0.537084
v -0.016144 1.507600 0.570504
v 0.066325 2.025080 0.226709
v 0.173925 2.025080 0.226709
v 0.298345 1.639062 0.618763
v 0.113157 1.496543 0.868571
v -0.173415 1.439530 0.923343
v -1.115533 1.475018 0.633654
v 0.205751 1.567803 0.743667
v 0.159454 1.532173 0.806119
v 0.252048 1.603432 0.681215
v 0.275197 1.621247 0.649989
v 0.228900 1.585617 0.712441
v 0.182603 1.549988 0.774893
v 0.136306 1.514358 0.837345
v 0.066325 1.998180 0.226709
v 0.173925 1.998180 0.226709
v 0.298345 1.564782 0.618763
v 0.123255 1.437372 0.867627
v -0.173415 1.365250 0.923343
v -1.115533 1.471714 0.633654
v 0.210800 1.501077 0.743195
v 0.167027 1.469224 0.805411
v 0.254572 1.532929 0.680979
v 0.276459 1.548856 0.649871
v 0.232686 1.517003 0.712087
v 0.188914 1.485151 0.774303
v 0.145141 1.453298 0.836519
v 0.070892 1.628536 0.440197
v -0.024919 1.417452 0.582434
v -0.127901 1.365250 0.629729
v -1.113508 1.471714 0.620594
v 0.022987 1.522994 0.511316
v -0.000966 1.470223 0.546875
v 0.046940 1.575765 0.475757
v 0.058916 1.602151 0.457977
v 0.034963 1.549380 0.493536
v 0.011010 1.496608 0.529095
v -0.012942 1.443837 0.564655
v -0.069331 1.728866 0.612270
v -0.061295 1.751402 0.598234
v 0.069035 1.728866 0.866552
v 0.095339 1.751402 0.835031
v -0.044878 1.772629 0.589219
v -0.036842 1.795165 0.575183
v 0.130024 1.772629 0.808532
v 0.156328 1.795165 0.777011
v -0.007559 1.833677 0.550578
v 0.222148 1.833677 0.717438
v 0.000477 1.856214 0.536541
v 0.248452 1.856214 0.685916
v -0.045093 1.518719 0.432387
v -0.057632 1.491783 0.450701
v -0.045800 1.633050 0.430868
v -0.050216 1.662182 0.436466
v -0.056651 1.607764 0.447578
v -0.060503 1.637446 0.452642
v -0.029641 1.711654 0.404115
v -0.039928 1.686918 0.420291
v -0.013016 1.627557 0.384112
v -0.018558 1.655590 0.390780
v -0.084875 1.469244 0.490789
v -0.087039 1.500576 0.494249
v -0.024993 1.601172 0.401892
v -0.029971 1.629754 0.408025
v -0.096851 1.442858 0.508569
v -0.098452 1.474740 0.511494
v -0.064212 1.552247 0.459759
v -0.075625 1.526411 0.477004
v -0.093530 1.594570 0.504628
v -0.095693 1.625902 0.508087
v -0.103254 1.570384 0.520268
v -0.104855 1.602266 0.523193
v -0.035182 1.739686 0.410783
v -0.044907 1.715500 0.426424
v -0.067501 1.582479 0.464288
v -0.078352 1.557193 0.480998
v -0.060922 1.522015 0.455230
v -0.048946 1.548401 0.437451
v 0.262029 1.740119 0.800492
v 0.288333 1.762655 0.768970
v 0.220781 1.600623 0.862471
v 0.224568 1.569149 0.862117
v 0.318424 1.679437 0.737095
v 0.319686 1.644185 0.736977
v 0.294013 1.659734 0.768439
v 0.295906 1.625426 0.768262
v 0.196370 1.580920 0.893815
v 0.200788 1.550390 0.893402
v 0.274651 1.573304 0.799311
v 0.277175 1.539942 0.799075
v 0.228354 1.537675 0.861763
v 0.232141 1.506200 0.861409
v 0.297800 1.591119 0.768085
v 0.299693 1.556812 0.767908
v 0.251503 1.555490 0.830537
v 0.254658 1.523071 0.830242
v 0.209623 1.489330 0.892576
v 0.187106 1.472459 0.923743
v 0.344728 1.590553 0.705574
v 0.322210 1.573683 0.736741
v 0.161862 1.620388 0.926104
v 0.166911 1.590802 0.925632
v 0.315899 1.749940 0.737331
v 0.317162 1.714688 0.737213
v 0.341572 1.771532 0.705869
v 0.342203 1.735336 0.705810
v 0.187535 1.641980 0.894642
v 0.191953 1.611450 0.894229
v 0.267078 1.673393 0.800019
v 0.242036 1.652745 0.831423
v 0.269602 1.640030 0.799783
v 0.245192 1.620327 0.831127
v 0.264554 1.706756 0.800255
v 0.290227 1.728348 0.768793
v 0.192155 1.442874 0.923271
v 0.279700 1.506579 0.798839
v 0.323472 1.538431 0.736623
v 0.345359 1.554357 0.705515
v 0.257814 1.490652 0.829947
v 0.214041 1.458800 0.892163
v 0.095975 1.561436 0.413732
v 0.317886 1.488573 0.598965
v -0.004340 1.345952 0.560246
v 0.147844 1.368718 0.847357
v 0.008199 1.372887 0.541932
v 0.169099 1.383700 0.816308
v 0.033278 1.426758 0.505304
v 0.020739 1.399823 0.523618
v 0.211610 1.413664 0.754210
v 0.190355 1.398682 0.785259
v 0.275375 1.458609 0.661063
v 0.070896 1.507565 0.450361
v 0.083435 1.534500 0.432046
v 0.296631 1.473591 0.630014
v 0.058357 1.480629 0.468675
v 0.254120 1.443628 0.692112
v -0.151047 1.665489 0.506868
v -0.143012 1.688026 0.492831
v -0.140848 1.656694 0.489371
v -0.149447 1.633608 0.503943
v -0.117072 1.642403 0.451171
v -0.120361 1.672634 0.455700
v -0.126796 1.618217 0.466812
v -0.129523 1.648998 0.470806
v -0.102038 1.719907 0.425488
v -0.111200 1.696271 0.440594
v -0.106453 1.749039 0.431086
v -0.115052 1.725953 0.445658
vt 0.593750 0.250000
vt 0.625000 0.250000
vt 0.625000 0.500000
vt 0.593750 0.500000
vt 0.406250 0.000000
vt 0.375000 0.000000
vt 0.375000 0.000000
vt 0.406250 0.000000
vt 0.375000 0.750000
vt 0.125000 0.750000
vt 0.125000 0.750000
vt 0.375000 0.750000
vt 0.625000 0.750000
vt 0.875000 0.750000
vt 0.875000 0.750000
vt 0.625000 0.750000
vt 0.593750 0.750000
vt 0.593750 0.750000
vt 0.300473 0.010578
vt 0.300473 0.991566
vt 0.166794 0.520252
vt 0.165739 0.492128
vt 0.593750 0.750000
vt 0.625000 0.750000
vt 0.625000 1.000000
vt 0.593750 1.000000
vt 0.259798 0.006048
vt 0.161862 0.491576
vt 0.006148 0.991718
vt 0.000055 0.005638
vt 0.133275 0.491171
vt 0.132546 0.519651
vt 0.046118 0.995708
vt 0.136272 0.520032
vt 0.468750 0.750000
vt 0.437500 0.750000
vt 0.437500 0.750000
vt 0.468750 0.750000
vt 0.625000 0.750000
vt 0.875000 0.750000
vt 0.875000 0.750000
vt 0.625000 0.750000
vt 0.375000 0.750000
vt 0.125000 0.750000
vt 0.406250 0.000000
vt 0.437500 0.000000
vt 0.437500 0.000000
vt 0.406250 0.000000
vt 0.593750 0.750000
vt 0.625000 0.750000
vt 0.625000 0.750000
vt 0.593750 0.750000
vt 0.875000 0.750000
vt 0.875000 0.750000
vt 0.375000 0.750000
vt 0.125000 0.750000
vt 0.125000 0.750000
vt 0.375000 0.750000
vt 0.406250 0.000000
vt 0.375000 0.000000
vt 0.375000 0.000000
vt 0.406250 0.000000
vt 0.375000 0.000000
vt 0.375000 0.000000
vt 0.406250 0.000000
vt 0.125000 0.750000
vt 0.375000 0.750000
vt 0.375000 0.750000
vt 0.125000 0.750000
vt 0.625000 0.000000
vt 0.625000 0.000000
vt 0.625000 0.000000
vt 0.625000 0.000000
vt 0.593750 0.750000
vt 0.625000 0.750000
vt 0.625000 0.750000
vt 0.593750 0.750000
vt 0.593750 0.750000
vt 0.625000 0.750000
vt 0.375000 0.750000
vt 0.125000 0.750000
vt 0.406250 0.000000
vt 0.375000 0.000000
vt 0.375000 0.000000
vt 0.406250 0.000000
vt 0.375000 0.750000
vt 0.375000 0.750000
vt 0.375000 0.750000
vt 0.875000 0.750000
vt 0.593750 0.750000
vt 0.406250 0.000000
vt 0.375000 0.000000
vt 0.375000 0.750000
vt 0.125000 0.750000
vt 0.625000 0.750000
vt 0.875000 0.750000
vt 0.593750 0.750000
vt 0.875000 0.750000
vt 0.625000 0.750000
vt 0.375000 0.750000
vt 0.125000 0.750000
vt 0.531250 0.000000
vt 0.500000 0.000000
vt 0.500000 0.000000
vt 0.531250 0.000000
vt 0.468750 0.750000
vt 0.500000 0.750000
vt 0.500000 0.750000
vt 0.468750 0.750000
vt 0.500000 0.750000
vt 0.500000 0.750000
vt 0.468750 0.750000
vt 0.531250 0.000000
vt 0.500000 0.000000
vt 0.500000 0.000000
vt 0.531250 0.000000
vt 0.468750 0.750000
vt 0.500000 0.750000
vt 0.500000 0.750000
vt 0.468750 0.750000
vt 0.531250 0.000000
vt 0.500000 0.000000
vt 0.500000 0.000000
vt 0.531250 0.000000
vt 0.375000 0.000000
vt 0.406250 0.000000
vt 0.468750 0.750000
vt 0.500000 0.750000
vt 0.500000 0.750000
vt 0.468750 0.750000
vt 0.531250 0.000000
vt 0.500000 0.000000
vt 0.188743 0.999550
vt 0.152988 0.999945
vt 0.149311 0.520720
vt 0.153794 0.520807
vt 0.114565 0.000055
vt 0.151011 0.000343
vt 0.149696 0.490964
vt 0.145705 0.490857
vt 0.468750 0.750000
vt 0.500000 0.750000
vt 0.500000 1.000000
vt 0.468750 1.000000
vt 0.500000 0.750000
vt 0.468750 0.750000
vt 0.500000 0.000000
vt 0.531250 0.000000
vt 0.468750 0.250000
vt 0.500000 0.250000
vt 0.500000 0.500000
vt 0.468750 0.500000
vt 0.406250 0.250000
vt 0.437500 0.250000
vt 0.437500 0.500000
vt 0.406250 0.500000
vt 0.406250 0.750000
vt 0.406250 0.750000
vt 0.406250 0.750000
vt 0.406250 0.750000
vt 0.406250 0.750000
vt 0.437500 0.750000
vt 0.437500 1.000000
vt 0.406250 1.000000
vt 0.041424 0.002461
vt 0.078032 0.000762
vt 0.141758 0.490836
vt 0.137846 0.490917
vt 0.406250 0.750000
vt 0.437500 0.750000
vt 0.406250 0.750000
vt 0.406250 0.750000
vt 0.437500 0.750000
vt 0.437500 0.750000
vt 0.406250 0.750000
vt 0.562500 0.750000
vt 0.562500 0.750000
vt 0.562500 0.750000
vt 0.562500 0.750000
vt 0.406250 0.750000
vt 0.437500 0.750000
vt 0.437500 0.750000
vt 0.406250 0.750000
vt 0.406250 0.750000
vt 0.437500 0.750000
vt 0.437500 0.750000
vt 0.437500 0.750000
vt 0.437500 0.750000
vt 0.468750 0.000000
vt 0.437500 0.000000
vt 0.437500 0.000000
vt 0.468750 0.000000
vt 0.468750 0.000000
vt 0.468750 0.000000
vt 0.500000 0.000000
vt 0.437500 0.000000
vt 0.437500 0.000000
vt 0.468750 0.000000
vt 0.468750 0.000000
vt 0.437500 0.000000
vt 0.468750 0.000000
vt 0.468750 0.000000
vt 0.437500 0.000000
vt 0.437500 0.000000
vt 0.468750 0.000000
vt 0.117279 0.999565
vt 0.081653 0.998116
vt 0.140039 0.520281
vt 0.144715 0.520566
vt 0.437500 0.000000
vt 0.468750 0.000000
vt 0.593750 0.000000
vt 0.562500 0.000000
vt 0.562500 0.000000
vt 0.593750 0.000000
vt 0.260231 0.995640
vt 0.224502 0.998109
vt 0.158202 0.520762
vt 0.162535 0.520584
vt 0.593750 0.000000
vt 0.562500 0.000000
vt 0.562500 0.000000
vt 0.593750 0.000000
vt 0.593750 0.000000
vt 0.562500 0.000000
vt 0.562500 0.000000
vt 0.593750 0.000000
vt 0.593750 0.000000
vt 0.562500 0.000000
vt 0.562500 0.000000
vt 0.593750 0.000000
vt 0.593750 0.000000
vt 0.562500 0.000000
vt 0.593750 0.000000
vt 0.593750 0.000000
vt 0.531250 0.750000
vt 0.562500 0.750000
vt 0.562500 0.750000
vt 0.531250 0.750000
vt 0.468750 0.750000
vt 0.531250 0.750000
vt 0.562500 0.750000
vt 0.531250 0.750000
vt 0.531250 0.750000
vt 0.562500 0.750000
vt 0.531250 0.750000
vt 0.531250 0.750000
vt 0.562500 0.750000
vt 0.562500 0.750000
vt 0.531250 0.750000
vt 0.187368 0.001262
vt 0.223634 0.003169
vt 0.157802 0.491292
vt 0.153740 0.491086
vt 0.531250 0.750000
vt 0.562500 0.750000
vt 0.562500 1.000000
vt 0.531250 1.000000
vt 0.562500 0.750000
vt 0.531250 0.750000
vt 0.531250 0.250000
vt 0.562500 0.250000
vt 0.562500 0.500000
vt 0.531250 0.500000
vt 0.406250 0.750000
vt 0.531250 0.750000
vt 0.500000 0.750000
vt 0.531250 0.000000
vt 0.625000 0.000000
vt 0.625000 0.000000
vt 0.625000 0.000000
vt 0.625000 0.000000
vt 0.531250 0.000000
vt 0.531250 0.000000
vt 0.531250 0.000000
vt 0.562500 0.000000
vt 0.625000 0.000000
vt 0.625000 0.000000
vt 0.625000 0.000000
vt 0.625000 0.000000
vt 0.625000 0.000000
vt 0.437500 0.750000
vt 0.625000 0.750000
vt 0.593750 0.750000
vt 0.500000 0.000000
vt 0.406250 0.000000
vt 0.437500 0.000000
vt 0.437500 0.750000
vt 0.593750 0.750000
vt 0.562500 0.750000
vt 0.500000 0.750000
vt 0.375000 0.750000
vt 0.375000 1.000000
vt 0.375000 0.750000
vt 0.375000 0.250000
vt 0.375000 0.500000
vt 0.562500 0.000000
vt 0.531250 0.000000
vt 0.125000 0.750000
vt 0.125000 0.750000
vt 0.875000 0.750000
vt 0.625000 0.750000
vt 0.625000 0.000000
vt 0.625000 0.000000
vt 0.625000 0.750000
vt 0.875000 0.750000
vt 0.625000 0.000000
vt 0.625000 0.000000
vt 0.625000 0.750000
vt 0.875000 0.750000
vt 0.875000 0.750000
vt 0.625000 0.750000
vt 0.875000 0.750000
vt 0.375000 0.000000
vt 0.406250 0.000000
vt 0.500000 0.000000
vt 0.500000 0.000000
vt 0.468750 0.000000
vt 0.437500 0.000000
vt 0.437500 0.000000
vt 0.468750 0.000000
vt 0.562500 0.000000
vt 0.531250 0.000000
vt 0.468750 0.000000
vt 0.500000 0.000000
vt 0.406250 0.000000
vt 0.437500 0.000000
vt 0.437500 0.000000
vt 0.406250 0.000000
vt 0.625000 0.750000
vt 0.593750 0.750000
vt 0.437500 0.750000
vt 0.437500 0.750000
vt 0.406250 0.750000
vt 0.437500 0.750000
vt 0.437500 0.750000
vt 0.406250 0.750000
vt 0.406250 0.750000
vt 0.531250 0.750000
vt 0.562500 0.750000
vt 0.562500 0.750000
vt 0.531250 0.750000
vt 0.500000 0.750000
vt 0.531250 0.750000
vt 0.531250 0.750000
vt 0.500000 0.750000
vt 0.531250 0.750000
vt 0.593750 0.750000
vt 0.593750 0.750000
vt 0.593750 0.750000
vt 0.562500 0.750000
vt 0.468750 0.750000
vt 0.468750 0.750000
vt 0.125000 0.750000
vt 0.375000 0.750000
vt 0.375000 0.750000
vt 0.125000 0.750000
vt 0.125000 0.750000
vt 0.375000 0.750000
vt 0.125000 0.750000
vt 0.125000 0.750000
vt 0.125000 0.750000
vt 0.375000 0.000000
vt 0.375000 0.000000
vt 0.375000 0.000000
vt 0.375000 0.000000
vt 0.375000 0.000000
vt 0.375000 0.000000
vt 0.125000 0.750000
vt 0.375000 0.000000
vt 0.375000 0.000000
vt 0.593750 0.000000
vt 0.562500 0.000000
vt 0.562500 0.000000
vt 0.593750 0.000000
vt 0.531250 0.000000
vt 0.562500 0.000000
vt 0.125000 0.500000
vt 0.875000 0.500000
vt 0.875000 0.750000
vt 0.375000 0.000000
vt 0.406250 0.000000
vt 0.875000 0.750000
vt 0.625000 0.750000
vt 0.593750 0.750000
vt 0.375000 0.750000
vt 0.125000 0.750000
vt 0.500000 0.750000
vt 0.468750 0.750000
vt 0.500000 0.000000
vt 0.531250 0.000000
vt 0.437500 0.750000
vt 0.406250 0.750000
vt 0.437500 0.000000
vt 0.468750 0.000000
vt 0.562500 0.000000
vt 0.593750 0.000000
vt 0.562500 0.750000
vt 0.531250 0.750000
vt 0.625000 0.000000
vn 0.0000 0.0000 -1.0000
vn -0.8348 0.0112 -0.5504
vn -0.6602 -0.5751 0.4832
vn -0.5949 0.7487 0.2923
vn 0.7297 0.1050 0.6757
vn -0.1423 0.9896 -0.0221
vn -0.9882 0.0000 -0.1532
vn -0.2939 0.0000 0.9558
vn -0.1423 -0.9896 -0.0221
vn 0.0093 0.0000 -1.0000
vn -0.6249 -0.0528 0.7789
vn -0.4298 0.7826 0.4503
vn 0.3844 -0.8167 -0.4304
vn -0.5337 -0.2653 0.8030
vn 0.7431 0.0740 0.6651
vn -0.5152 0.7710 0.3745
vn -0.6902 -0.5707 0.4449
vn -0.8286 0.0020 -0.5599
vn -0.8163 -0.0155 -0.5774
vn 0.2781 -0.8177 -0.5040
vn -0.8502 -0.0244 -0.5259
vn 0.7647 0.0187 0.6441
vn 0.7692 0.0061 0.6390
vn 0.6493 0.5763 -0.4963
vn -0.8133 -0.0197 -0.5815
vn -0.8194 -0.0113 -0.5732
vn 0.7984 0.0983 0.5940
vn -0.3862 0.7846 0.4851
vn 0.7599 0.0317 0.6493
vn -0.8255 -0.0025 -0.5644
vn 0.4347 -0.8112 -0.3912
vn -0.6086 -0.6277 0.4854
vn 0.7491 0.0594 0.6598
vn 0.7366 0.0892 0.6704
vn 0.6351 0.6482 -0.4201
vn 0.5271 -0.7909 -0.3108
vn -0.8317 0.0065 -0.5552
vn -0.8485 0.0029 -0.5292
vn 0.7690 0.0939 0.6323
vn 0.7803 0.0624 0.6223
vn -0.8413 -0.0074 -0.5406
vn 0.7899 0.0332 0.6124
vn -0.8341 -0.0173 -0.5513
vn 0.5417 0.2092 -0.8141
vn 0.7979 0.0064 0.6027
vn 0.7941 0.0195 0.6075
vn -0.8306 -0.0221 -0.5564
vn -0.8449 -0.0023 -0.5350
vn 0.7749 0.0778 0.6273
vn -0.8377 -0.0124 -0.5460
vn 0.7853 0.0475 0.6173
vn 0.7626 0.1107 0.6373
vn -0.8521 0.0083 -0.5233
vn 0.2892 -0.9192 -0.2672
vn 0.8010 0.0486 0.5967
vn 0.7913 0.0798 0.6062
vn 0.3299 -0.8879 -0.3207
vn 0.8126 0.0065 0.5828
vn 0.8052 0.0340 0.5920
vn 0.2981 -0.9129 -0.2788
vn 0.7857 0.0964 0.6110
vn -0.8396 0.0049 -0.5432
vn 0.5380 0.2370 -0.8090
vn -0.8263 -0.0141 -0.5630
vn -0.8198 -0.0230 -0.5721
vn -0.8231 -0.0186 -0.5677
vn -0.8362 -0.0000 -0.5484
vn -0.8296 -0.0095 -0.5583
vn -0.8430 0.0099 -0.5379
vn -0.8625 0.0064 -0.5060
vn -0.8468 -0.0158 -0.5317
vn -0.8546 -0.0050 -0.5193
vn -0.8391 -0.0261 -0.5433
vn -0.8353 -0.0311 -0.5489
vn 0.4286 -0.5910 -0.6834
vn -0.8507 -0.0105 -0.5256
vn -0.8585 0.0007 -0.5128
vn 0.7526 0.0915 0.6520
vn -0.3066 0.9066 0.2900
vn 0.7747 0.0325 0.6315
vn 0.7834 0.0062 0.6215
vn 0.7792 0.0191 0.6264
vn 0.7588 0.0759 0.6468
vn 0.7698 0.0464 0.6365
vn 0.7460 0.1078 0.6572
vn 0.7542 0.1092 0.6474
vn 0.7775 0.0469 0.6271
vn 0.7668 0.0768 0.6372
vn 0.7866 0.0193 0.6171
vn 0.7906 0.0063 0.6122
vn 0.6249 0.0528 -0.7789
vn 0.7724 0.0616 0.6322
vn 0.6221 0.0836 -0.7785
vn -0.8572 0.0074 -0.5150
vn -0.8421 -0.0141 -0.5391
vn -0.8496 -0.0036 -0.5274
vn -0.8347 -0.0240 -0.5501
vn -0.8311 -0.0289 -0.5554
vn -0.8384 -0.0191 -0.5447
vn -0.4316 0.5828 0.6886
vn -0.4471 0.6055 0.6584
vn 0.5146 0.1815 -0.8380
vn -0.8559 -0.0122 -0.5171
vn -0.8478 -0.0231 -0.5298
vn -0.8398 -0.0335 -0.5418
vn -0.8438 -0.0284 -0.5359
vn -0.8600 -0.0065 -0.5103
vn -0.8518 -0.0177 -0.5236
vn -0.8682 0.0054 -0.4962
vn 0.7446 0.0903 0.6614
vn 0.7568 0.0601 0.6509
vn 0.7673 0.0321 0.6405
vn 0.7763 0.0062 0.6304
vn 0.7509 0.0749 0.6561
vn 0.7622 0.0458 0.6457
vn 0.6260 0.0386 -0.7789
vn -0.8474 0.0091 -0.5308
vn -0.8335 -0.0109 -0.5524
vn -0.8404 -0.0011 -0.5419
vn -0.8267 -0.0203 -0.5622
vn -0.8234 -0.0248 -0.5670
vn 0.5500 0.1291 -0.8251
vn -0.8370 -0.0061 -0.5472
vn -0.8439 0.0039 -0.5365
vn 0.7711 0.1122 0.6267
vn 0.6203 0.1003 -0.7780
vn 0.3147 -0.9003 -0.3006
vn 0.8015 0.0198 0.5976
vn 0.8052 0.0065 0.5929
vn 0.7975 0.0336 0.6024
vn 0.7883 0.0631 0.6120
vn 0.7773 0.0952 0.6218
vn 0.7942 0.0977 0.5998
vn 0.8044 0.0647 0.5905
vn 0.8129 0.0344 0.5813
vn 0.8200 0.0066 0.5724
vn 0.8166 0.0202 0.5768
vn 0.7995 0.0808 0.5951
vn 0.8089 0.0492 0.5859
vn 0.7883 0.1152 0.6044
vn -0.5519 -0.1036 0.8275
vn -0.8291 -0.0036 -0.5591
vn -0.8227 -0.0126 -0.5683
vn 0.4340 -0.6359 -0.6382
vn -0.8196 -0.0170 -0.5727
vn -0.8323 0.0010 -0.5543
vn -0.8259 -0.0082 -0.5638
vn -0.8388 0.0106 -0.5444
vn -0.5560 0.7612 0.3340
vn 0.6830 0.1894 0.7054
vn -0.6688 -0.6482 0.3639
vn -0.6856 -0.1928 -0.7020
vn -0.4729 0.7781 0.4133
vn 0.5624 0.6277 -0.5382
vn 0.7332 0.0874 0.6744
vn -0.7614 -0.1248 -0.6362
vn -0.3426 0.7841 0.5175
vn -0.4610 -0.6203 0.6346
vn 0.4047 0.6203 -0.6719
vn 0.7873 -0.0609 0.6135
vn -0.8224 -0.0070 -0.5689
vn -0.8271 -0.0268 -0.5614
vn -0.8329 -0.0048 -0.5534
vn -0.8534 0.0018 -0.5213
vn -0.8301 -0.0157 -0.5574
vn -0.8355 0.0057 -0.5494
vn -0.8165 -0.0213 -0.5770
vn -0.4442 0.6124 0.6539
vn 0.5450 0.1819 -0.8185
vn 0.4415 -0.6188 -0.6497
vn 0.4442 -0.6124 -0.6539
vn 0.4471 -0.6055 -0.6584
vn -0.4415 0.6188 0.6497
vn 0.4364 -0.6306 -0.6418
vn -0.5417 -0.2092 0.8141
vn -0.4389 0.6249 0.6457
vn 0.4389 -0.6249 -0.6457
vn 0.5288 0.2939 -0.7962
vn -0.5477 -0.1552 0.8221
vn -0.4501 0.5982 0.6630
vn -0.5450 -0.1819 0.8185
vn -0.4364 0.6306 0.6418
vn 0.7547 0.0453 0.6545
vn 0.7797 0.1137 0.6158
vn 0.8090 0.0200 0.5874
vn 0.7963 0.0639 0.6015
vn 0.7646 0.0608 0.6417
vn 0.7823 0.0328 0.6221
vn 0.7608 0.0927 0.6423
vn 0.7719 0.0189 0.6354
vn 0.7378 0.1064 0.6666
vn 0.7931 0.0481 0.6072
vn 0.7831 0.0788 0.6169
vn -0.2981 0.9129 0.2788
vn -0.6269 -0.0251 0.7787
vn 0.3147 -0.9003 -0.3007
vn -0.6221 -0.0836 0.7785
vn 0.6269 0.0251 -0.7787
vn 0.6277 0.0122 -0.7784
vn -0.3370 0.8817 0.3301
vn -0.6182 -0.1179 0.7771
vn -0.6236 -0.0678 0.7788
vn 0.3370 -0.8817 -0.3301
vn -0.3225 0.8941 0.3109
vn 0.6236 0.0678 -0.7788
vn -0.6260 -0.0386 0.7789
vn 0.3225 -0.8941 -0.3109
vn -0.3438 0.8757 0.3391
vn -0.6203 -0.1003 0.7780
vn -0.3299 0.8879 0.3207
vn 0.5685 -0.7769 -0.2705
vn 0.4824 -0.8025 -0.3512
vn 0.2234 -0.8131 -0.5375
vn 0.3319 -0.8189 -0.4682
vn -0.7082 -0.5672 0.4204
vn -0.6381 -0.5773 0.5095
vn 0.6806 0.5723 -0.4575
vn -0.7738 -0.0679 -0.6297
vn 0.6994 0.5690 -0.4326
vn 0.6263 0.5782 -0.5229
vn -0.8429 -0.0210 -0.5376
vn -0.8458 -0.0089 -0.5334
vn -0.8641 -0.0006 -0.5034
vn -0.4256 0.5987 0.6786
vn -0.5212 -0.1039 0.8471
vn -0.5116 -0.2086 0.8335
vn -0.5172 -0.1550 0.8417
vn 0.4229 -0.6058 -0.6739
vn 0.5194 0.1291 -0.8447
vn -0.4286 0.5910 0.6834
vn 0.5080 0.2362 -0.8283
vn 0.4256 -0.5987 -0.6786
vn -0.9710 -0.0944 -0.2199
vn 0.9532 0.0000 -0.3025
vn 0.3326 -0.5110 -0.7926
vn -0.2245 0.7379 0.6365
vn -0.4347 0.0244 -0.9003
vn -0.1040 0.9945 0.0137
vn 0.1950 0.0078 0.9808
vn 0.3142 -0.9491 -0.0205
vn -0.2994 0.7814 0.5474
vn 0.1872 0.0072 0.9823
vn -0.3729 0.0263 -0.9275
vn -0.9775 -0.1008 -0.1853
vn -0.9806 -0.1043 -0.1662
vn 0.1838 0.0070 0.9829
vn -0.4051 0.0254 -0.9139
vn -0.3377 0.0273 -0.9409
vn 0.1910 0.0075 0.9816
vn -0.9743 -0.0975 -0.2032
vn -0.9759 -0.0991 -0.1944
vn 0.1891 0.0074 0.9819
vn -0.3557 0.0268 -0.9342
vn -0.3189 0.0278 -0.9474
vn 0.1930 0.0077 0.9812
vn -0.9726 -0.0959 -0.2117
vn -0.3894 0.0258 -0.9207
vn -0.9791 -0.1025 -0.1759
vn 0.1855 0.0071 0.9826
vn 0.1821 0.0068 0.9832
vn -0.9820 -0.1061 -0.1560
vn -0.4202 0.0249 -0.9071
usemtl Material.003
s off
f 156/1/1 4/2/1 8/3/1 157/4/1
f 216/5/2 45/6/2 9/7/2 207/8/2
f 38/9/3 37/10/3 313/11/3 314/12/3
f 48/13/4 47/14/4 10/15/4 11/16/4
f 168/17/5 48/13/5 11/16/5 159/18/5
f 15/19/6 14/20/6 18/21/6 19/22/6
f 161/23/7 19/24/7 18/25/7 148/26/7
f 160/27/8 15/19/8 19/22/8 161/28/8
f 13/29/9 16/30/9 20/31/9 17/32/9
f 208/33/10 13/29/10 17/32/10 209/34/10
f 186/35/11 79/36/11 268/37/11 267/38/11
f 40/39/12 39/40/12 22/41/12 24/42/12
f 37/10/13 38/9/13 23/43/13 21/44/13
f 213/45/14 93/46/14 242/47/14 241/48/14
f 167/49/15 42/50/15 28/51/15 163/52/15
f 42/50/16 41/53/16 27/54/16 28/51/16
f 26/55/17 25/56/17 306/57/17 308/58/17
f 215/59/18 43/60/18 25/61/18 211/62/18
f 213/45/19 35/63/19 31/64/19 212/65/19
f 35/66/20 36/67/20 32/68/20 31/69/20
f 33/70/21 29/71/21 225/72/21 227/73/21
f 165/74/22 34/75/22 30/76/22 164/77/22
f 158/78/23 6/79/23 34/75/23 165/74/23
f 31/69/24 32/68/24 309/80/24 310/81/24
f 206/82/25 1/83/25 35/63/25 213/45/25
f 212/65/26 31/64/26 37/84/26 214/85/26
f 5/86/27 36/67/27 312/87/27 300/88/27
f 30/76/28 29/89/28 39/40/28 40/39/28
f 164/77/29 30/76/29 40/39/29 166/90/29
f 210/91/30 21/92/30 43/60/30 215/59/30
f 21/44/31 23/43/31 44/93/31 43/94/31
f 41/53/32 42/50/32 223/95/32 221/96/32
f 162/97/33 24/42/33 42/50/33 167/49/33
f 163/52/34 28/51/34 48/13/34 168/17/34
f 28/51/35 27/54/35 218/98/35 220/99/35
f 25/56/36 26/55/36 46/100/36 45/101/36
f 211/62/37 25/61/37 45/6/37 216/5/37
f 139/102/38 62/103/38 72/104/38 144/105/38
f 187/106/39 61/107/39 71/108/39 192/109/39
f 186/35/40 59/110/40 70/111/40 191/112/40
f 138/113/41 60/114/41 69/115/41 143/116/41
f 188/117/42 64/118/42 68/119/42 190/120/42
f 140/121/43 63/122/43 67/123/43 142/124/43
f 214/85/44 37/84/44 229/125/44 256/126/44
f 182/127/45 52/128/45 65/129/45 189/130/45
f 189/130/46 65/129/46 64/118/46 188/117/46
f 141/131/47 66/132/47 63/122/47 140/121/47
f 143/116/48 69/115/48 62/103/48 139/102/48
f 191/112/49 70/111/49 61/107/49 187/106/49
f 142/124/50 67/123/50 60/114/50 138/113/50
f 190/120/51 68/119/51 59/110/51 186/35/51
f 136/133/10 55/134/10 57/135/10 137/136/10
f 184/137/8 56/138/8 58/139/8 185/140/8
f 185/141/7 58/142/7 57/143/7 172/144/7
f 192/109/52 71/108/52 54/145/52 183/146/52
f 144/105/53 72/104/53 53/147/53 135/148/53
f 180/149/1 50/150/1 51/151/1 181/152/1
f 193/153/1 73/154/1 74/155/1 194/156/1
f 196/157/54 205/158/54 298/159/54 293/160/54
f 198/161/7 78/162/7 89/163/7 209/164/7
f 197/165/8 77/166/8 78/167/8 198/168/8
f 203/169/55 83/170/55 79/36/55 199/171/55
f 204/172/56 84/173/56 80/174/56 200/175/56
f 116/176/57 117/177/57 284/178/57 282/179/57
f 195/180/58 75/181/58 82/182/58 202/183/58
f 201/184/59 81/185/59 83/170/59 203/169/59
f 80/174/60 84/173/60 274/186/60 270/187/60
f 200/175/61 80/174/61 85/188/61 205/158/61
f 174/189/62 91/190/62 96/191/62 179/192/62
f 63/122/63 175/193/63 231/194/63 232/195/63
f 175/193/64 92/196/64 94/197/64 177/198/64
f 169/199/65 86/200/65 93/46/65 176/201/65
f 176/201/66 93/46/66 92/196/66 175/193/66
f 178/202/67 95/203/67 91/190/67 174/189/67
f 177/198/68 94/197/68 90/204/68 173/205/68
f 171/206/10 88/207/10 89/208/10 172/209/10
f 179/192/69 96/191/69 87/210/69 170/211/69
f 155/212/70 107/213/70 98/214/70 146/215/70
f 147/216/10 99/217/10 100/218/10 148/219/10
f 153/220/71 105/221/71 101/222/71 149/223/71
f 154/224/72 106/225/72 102/226/72 150/227/72
f 152/228/73 104/229/73 103/230/73 151/231/73
f 145/232/74 97/233/74 104/229/74 152/228/74
f 150/227/75 155/212/75 318/234/75 317/235/75
f 149/223/76 101/222/76 106/225/76 154/224/76
f 150/227/77 102/226/77 107/213/77 155/212/77
f 128/236/78 115/237/78 120/238/78 133/239/78
f 190/120/79 186/35/79 267/38/79 271/240/79
f 129/241/80 116/176/80 118/242/80 131/243/80
f 123/244/81 110/245/81 117/177/81 130/246/81
f 130/246/82 117/177/82 116/176/82 129/241/82
f 132/247/83 119/248/83 115/237/83 128/236/83
f 131/243/84 118/242/84 114/249/84 127/250/84
f 125/251/8 112/252/8 113/253/8 126/254/8
f 126/255/7 113/256/7 100/257/7 137/258/7
f 133/239/85 120/238/85 111/259/85 124/260/85
f 121/261/1 108/262/1 109/263/1 122/264/1
f 50/150/1 121/261/1 122/264/1 51/151/1
f 71/108/86 133/239/86 124/260/86 54/145/86
f 58/142/7 126/255/7 137/258/7 57/143/7
f 56/138/8 125/251/8 126/254/8 58/139/8
f 68/119/87 131/243/87 127/250/87 59/110/87
f 70/111/88 132/247/88 128/236/88 61/107/88
f 65/129/89 130/246/89 129/241/89 64/118/89
f 52/128/90 123/244/90 130/246/90 65/129/90
f 199/171/91 79/36/91 268/37/91 294/265/91
f 59/110/92 127/250/92 132/247/92 70/111/92
f 61/107/93 128/236/93 259/266/93 260/267/93
f 107/213/94 144/105/94 135/148/94 98/214/94
f 99/217/10 136/133/10 137/136/10 100/218/10
f 105/221/95 142/124/95 138/113/95 101/222/95
f 106/225/96 143/116/96 139/102/96 102/226/96
f 104/229/97 141/131/97 140/121/97 103/230/97
f 97/233/98 134/268/98 141/131/98 104/229/98
f 103/230/99 140/121/99 142/124/99 105/221/99
f 47/269/100 27/270/100 316/271/100 315/272/100
f 141/131/101 134/268/101 251/273/101 252/274/101
f 101/222/102 138/113/102 319/275/102 320/276/102
f 22/277/103 149/223/103 154/224/103 41/278/103
f 29/71/104 151/231/104 153/220/104 39/279/104
f 2/280/105 145/232/105 152/228/105 33/70/105
f 33/70/106 152/228/106 151/231/106 29/71/106
f 41/278/107 154/224/107 150/227/107 27/270/107
f 39/279/108 153/220/108 149/223/108 22/277/108
f 14/20/10 147/216/10 148/219/10 18/21/10
f 47/269/109 155/212/109 146/215/109 10/281/109
f 115/237/110 163/52/110 168/17/110 120/238/110
f 114/249/111 162/97/111 167/49/111 119/248/111
f 116/176/112 164/77/112 166/90/112 118/242/112
f 110/245/113 158/78/113 165/74/113 117/177/113
f 79/36/60 83/170/60 272/282/60 268/37/60
f 119/248/114 167/49/114 163/52/114 115/237/114
f 118/242/115 166/90/115 162/97/115 114/249/115
f 112/252/8 160/27/8 161/28/8 113/253/8
f 113/256/7 161/23/7 148/26/7 100/257/7
f 166/90/116 40/39/116 258/283/116 292/284/116
f 108/262/1 156/1/1 157/4/1 109/263/1
f 72/104/117 179/192/117 170/211/117 53/147/117
f 55/134/10 171/206/10 172/209/10 57/135/10
f 67/123/118 177/198/118 173/205/118 60/114/118
f 69/115/119 178/202/119 174/189/119 62/103/119
f 66/132/120 176/201/120 175/193/120 63/122/120
f 49/285/121 169/199/121 176/201/121 66/132/121
f 91/190/122 211/62/122 239/286/122 240/287/122
f 60/114/123 173/205/123 178/202/123 69/115/123
f 62/103/124 174/189/124 179/192/124 72/104/124
f 73/154/1 180/149/1 181/152/1 74/155/1
f 85/188/125 192/109/125 183/146/125 76/288/125
f 78/162/7 185/141/7 172/144/7 89/163/7
f 77/166/8 184/137/8 185/140/8 78/167/8
f 120/238/126 168/17/126 285/289/126 286/290/126
f 71/108/127 61/107/127 260/267/127 266/291/127
f 82/182/128 189/130/128 188/117/128 81/185/128
f 75/181/129 182/127/129 189/130/129 82/182/129
f 81/185/130 188/117/130 190/120/130 83/170/130
f 79/36/131 186/35/131 191/112/131 84/173/131
f 80/174/132 187/106/132 192/109/132 85/188/132
f 26/55/133 200/175/133 205/158/133 46/100/133
f 23/43/134 199/171/134 204/172/134 44/93/134
f 32/68/135 201/184/135 203/169/135 38/9/135
f 5/86/136 195/180/136 202/183/136 36/67/136
f 36/67/137 202/183/137 201/184/137 32/68/137
f 44/93/138 204/172/138 200/175/138 26/55/138
f 38/9/139 203/169/139 199/171/139 23/43/139
f 16/30/8 197/165/8 198/168/8 20/31/8
f 20/292/7 198/161/7 209/164/7 17/293/7
f 46/100/140 205/158/140 196/157/140 12/294/140
f 3/295/1 193/153/1 194/156/1 7/296/1
f 144/105/141 107/213/141 250/297/141 249/298/141
f 90/204/142 210/91/142 215/59/142 95/203/142
f 92/196/143 212/65/143 214/85/143 94/197/143
f 37/10/144 21/44/144 230/299/144 229/300/144
f 93/46/145 213/45/145 212/65/145 92/196/145
f 95/203/146 215/59/146 211/62/146 91/190/146
f 94/197/147 214/85/147 210/91/147 90/204/147
f 88/207/10 208/33/10 209/34/10 89/208/10
f 96/191/148 216/5/148 207/8/148 87/210/148
f 220/99/149 218/98/149 217/301/149 219/302/149
f 48/13/150 28/51/150 220/99/150 219/302/150
f 47/14/151 48/13/151 219/302/151 217/301/151
f 27/270/152 47/269/152 217/303/152 218/304/152
f 224/305/153 222/306/153 221/96/153 223/95/153
f 24/42/154 22/41/154 222/306/154 224/305/154
f 42/50/155 24/42/155 224/305/155 223/95/155
f 22/277/156 41/278/156 221/307/156 222/308/156
f 228/309/157 227/310/157 225/311/157 226/312/157
f 29/89/158 30/76/158 226/312/158 225/311/158
f 34/75/159 33/313/159 227/310/159 228/309/159
f 30/76/160 34/75/160 228/309/160 226/312/160
f 256/126/161 229/125/161 230/314/161 255/315/161
f 251/273/162 235/316/162 236/317/162 252/274/162
f 253/318/163 245/319/163 246/320/163 254/321/163
f 248/322/164 247/323/164 249/298/164 250/297/164
f 232/195/165 231/194/165 233/324/165 234/325/165
f 240/287/166 239/286/166 243/326/166 244/327/166
f 238/328/167 237/329/167 241/48/167 242/47/167
f 67/123/168 63/122/168 232/195/168 234/325/168
f 173/205/169 90/204/169 245/319/169 253/318/169
f 175/193/170 177/198/170 233/324/170 231/194/170
f 66/132/14 141/131/14 252/274/14 236/317/14
f 49/285/171 66/132/171 236/317/171 235/316/171
f 139/102/172 144/105/172 249/298/172 247/323/172
f 178/202/173 173/205/173 253/318/173 254/321/173
f 216/5/141 96/191/141 244/327/141 243/326/141
f 211/62/174 216/5/174 243/326/174 239/286/174
f 177/198/175 67/123/175 234/325/175 233/324/175
f 96/191/176 91/190/176 240/287/176 244/327/176
f 90/204/177 95/203/177 246/320/177 245/319/177
f 102/226/122 139/102/122 247/323/122 248/322/122
f 206/82/174 213/45/174 241/48/174 237/329/174
f 86/200/178 206/82/178 237/329/178 238/328/178
f 95/203/179 178/202/179 254/321/179 246/320/179
f 107/213/180 102/226/180 248/322/180 250/297/180
f 93/46/176 86/200/176 238/328/176 242/47/176
f 134/268/178 49/285/178 235/316/178 251/273/178
f 21/92/181 210/91/181 255/315/181 230/314/181
f 210/91/182 214/85/182 256/126/182 255/315/182
f 292/284/183 258/283/183 257/330/183 291/331/183
f 298/159/184 275/332/184 276/333/184 293/160/184
f 296/334/185 277/335/185 278/336/185 295/337/185
f 294/265/186 268/37/186 274/186/186 297/338/186
f 289/339/187 287/340/187 288/341/187 290/342/187
f 262/343/188 261/344/188 263/345/188 264/346/188
f 260/267/189 259/266/189 265/347/189 266/291/189
f 284/178/190 283/348/190 281/349/190 282/179/190
f 286/290/191 285/289/191 279/350/191 280/351/191
f 272/282/192 271/240/192 267/38/192 268/37/192
f 274/186/193 273/352/193 269/353/193 270/187/193
f 191/112/79 187/106/79 269/353/79 273/352/79
f 82/182/194 81/185/194 278/336/194 277/335/194
f 81/185/195 201/184/195 295/337/195 278/336/195
f 68/119/196 64/118/196 262/343/196 264/346/196
f 187/106/197 80/174/197 270/187/197 269/353/197
f 64/118/198 129/241/198 261/344/198 262/343/198
f 202/183/199 82/182/199 277/335/199 296/334/199
f 165/74/200 164/77/200 281/349/200 283/348/200
f 127/250/91 114/249/91 287/340/91 289/339/91
f 159/18/201 111/259/201 280/351/201 279/350/201
f 79/36/194 84/173/194 274/186/194 268/37/194
f 84/173/202 204/172/202 297/338/202 274/186/202
f 162/97/203 166/90/203 292/284/203 291/331/203
f 83/170/116 190/120/116 271/240/116 272/282/116
f 204/172/54 199/171/54 294/265/54 297/338/54
f 129/241/204 131/243/204 263/345/204 261/344/204
f 205/158/126 85/188/126 275/332/126 298/159/126
f 84/173/205 191/112/205 273/352/205 274/186/205
f 131/243/206 68/119/206 264/346/206 263/345/206
f 132/247/207 127/250/207 289/339/207 290/342/207
f 40/39/208 24/42/208 257/330/208 258/283/208
f 111/259/57 120/238/57 286/290/57 280/351/57
f 128/236/204 133/239/204 265/347/204 259/266/204
f 119/248/202 132/247/202 290/342/202 288/341/202
f 201/184/54 202/183/54 296/334/54 295/337/54
f 164/77/195 116/176/195 282/179/195 281/349/195
f 24/42/11 162/97/11 291/331/11 257/330/11
f 85/188/194 76/288/194 276/333/194 275/332/194
f 168/17/200 159/18/200 279/350/200 285/289/200
f 133/239/209 71/108/209 266/291/209 265/347/209
f 117/177/199 165/74/199 283/348/199 284/178/199
f 76/288/201 196/157/201 293/160/201 276/333/201
f 114/249/210 119/248/210 288/341/210 287/340/210
f 303/354/211 304/355/211 302/356/211 301/357/211
f 305/358/212 307/359/212 308/58/212 306/57/212
f 299/360/213 300/88/213 312/87/213 311/361/213
f 310/81/214 309/80/214 314/12/214 313/11/214
f 12/294/215 9/362/215 301/357/215 302/356/215
f 36/67/216 35/66/216 311/361/216 312/87/216
f 43/94/217 44/93/217 307/359/217 305/358/217
f 25/61/218 43/60/218 305/363/218 306/364/218
f 44/93/27 26/55/27 308/58/27 307/359/27
f 45/101/219 46/100/219 304/355/219 303/354/219
f 9/7/218 45/6/218 303/365/218 301/366/218
f 37/84/218 31/64/218 310/367/218 313/368/218
f 32/68/27 38/9/27 314/12/27 309/80/27
f 1/369/220 5/86/220 300/88/220 299/360/220
f 35/63/218 1/83/218 299/370/218 311/371/218
f 46/100/27 12/294/27 302/356/27 304/355/27
f 325/372/221 323/373/221 324/374/221 326/375/221
f 320/276/222 319/275/222 321/376/222 322/377/222
f 316/271/223 317/235/223 318/234/223 315/272/223
f 106/225/224 101/222/224 320/276/224 322/377/224
f 155/212/225 47/269/225 315/272/225 318/234/225
f 105/221/226 153/220/226 326/375/226 324/374/226
f 143/116/227 106/225/227 322/377/227 321/376/227
f 138/113/228 143/116/228 321/376/228 319/275/228
f 27/270/229 150/227/229 317/235/229 316/271/229
f 153/220/230 151/231/230 325/372/230 326/375/230
f 151/231/231 103/230/231 323/373/231 325/372/231
f 103/230/232 105/221/232 324/374/232 323/373/232
usemtl psata
f 145/232/233 2/280/233 4/2/233 156/1/233
f 157/4/234 8/3/234 6/79/234 158/78/234
f 3/378/235 7/296/235 5/86/235 1/369/235
f 8/3/236 4/379/236 2/380/236 6/79/236
f 207/8/237 9/7/237 13/381/237 208/382/237
f 11/16/238 10/15/238 14/383/238 15/384/238
f 159/18/239 11/16/239 15/384/239 160/385/239
f 9/362/240 12/294/240 16/386/240 13/387/240
f 6/79/241 2/380/241 33/313/241 34/75/241
f 183/146/242 54/145/242 56/388/242 184/389/242
f 135/148/243 53/147/243 55/390/243 136/391/243
f 181/152/234 51/151/234 52/128/234 182/127/234
f 169/199/244 49/285/244 50/150/244 180/149/244
f 206/82/245 86/200/245 73/154/245 193/153/245
f 194/156/234 74/155/234 75/181/234 195/180/234
f 196/157/246 76/288/246 77/392/246 197/393/246
f 170/211/247 87/210/247 88/394/247 171/395/247
f 146/215/248 98/214/248 99/396/248 147/397/248
f 124/260/249 111/259/249 112/398/249 125/399/249
f 122/264/234 109/263/234 110/245/234 123/244/234
f 134/268/250 97/233/250 108/262/250 121/261/250
f 49/285/251 134/268/251 121/261/251 50/150/251
f 51/151/234 122/264/234 123/244/234 52/128/234
f 54/145/252 124/260/252 125/399/252 56/388/252
f 98/214/253 135/148/253 136/391/253 99/396/253
f 10/281/254 146/215/254 147/397/254 14/400/254
f 111/259/255 159/18/255 160/385/255 112/398/255
f 109/263/234 157/4/234 158/78/234 110/245/234
f 97/233/256 145/232/256 156/1/256 108/262/256
f 53/147/257 170/211/257 171/395/257 55/390/257
f 86/200/258 169/199/258 180/149/258 73/154/258
f 74/155/234 181/152/234 182/127/234 75/181/234
f 76/288/259 183/146/259 184/389/259 77/392/259
f 12/294/260 196/157/260 197/393/260 16/386/260
f 7/296/234 194/156/234 195/180/234 5/86/234
f 1/83/261 206/82/261 193/153/261 3/295/261
f 87/210/262 207/8/262 208/382/262 88/394/262
