# Blender v2.83.5 OBJ File: 'assault_rifle.blend'
# www.blender.org
mtllib assault_rifle_clip.mtl
o clip_Cube.003
v -0.195106 -0.071825 0.038455
v -0.060325 0.163595 0.038455
v -0.195106 -0.071825 -0.038455
v -0.060325 0.163595 -0.038455
v -0.033615 -0.239901 0.038455
v 0.172715 0.158939 0.038455
v -0.033615 -0.239901 -0.038455
v 0.172715 0.158939 -0.038455
v -0.077414 0.045885 0.038455
v -0.077414 0.045885 -0.038455
v 0.119852 -0.040481 -0.038455
v 0.119852 -0.040481 0.038455
v -0.116804 -0.012970 -0.038455
v 0.062574 -0.140191 -0.038455
v 0.062574 -0.140191 0.038455
v -0.116804 -0.012970 0.038455
v -0.051125 0.104740 0.038455
v -0.051125 0.104740 -0.038455
v 0.164028 0.059229 -0.038455
v 0.164028 0.059229 0.038455
v -0.114361 -0.155863 -0.038455
v 0.056195 0.161267 -0.038455
v -0.114361 -0.155863 0.038455
v 0.056195 0.161267 0.038455
v 0.021219 0.002702 0.038455
v 0.021219 0.002702 -0.038455
v -0.027115 -0.076580 -0.038455
v -0.027115 -0.076580 0.038455
v 0.056451 0.081985 0.038455
v 0.056451 0.081985 -0.038455
v -0.154733 -0.113844 -0.038455
v -0.002065 0.162431 0.038455
v -0.028098 0.024294 0.038455
v -0.071959 -0.044775 0.038455
v 0.002663 0.093362 0.038455
v -0.002065 0.162431 -0.038455
v -0.154733 -0.113844 0.038455
v -0.028098 0.024294 -0.038455
v -0.071959 -0.044775 -0.038455
v 0.002663 0.093362 -0.038455
v 0.114455 0.160103 -0.038455
v -0.073988 -0.197882 0.038455
v 0.070535 -0.018890 -0.038455
v 0.017730 -0.108386 -0.038455
v 0.110239 0.070607 -0.038455
v -0.073988 -0.197882 -0.038455
v 0.114455 0.160103 0.038455
v 0.070535 -0.018890 0.038455
v 0.017730 -0.108386 0.038455
v 0.110239 0.070607 0.038455
v -0.174920 -0.092834 -0.038455
v -0.031195 0.163013 0.038455
v -0.031195 0.163013 -0.038455
v -0.174920 -0.092834 0.038455
v -0.052756 0.035090 -0.038455
v -0.094382 -0.028872 -0.038455
v -0.024231 0.099051 -0.038455
v 0.027065 0.161849 -0.038455
v -0.134547 -0.134853 0.038455
v -0.134547 -0.134853 -0.038455
v 0.027065 0.161849 0.038455
v -0.094174 -0.176873 -0.038455
v 0.085325 0.160685 0.038455
v 0.085325 0.160685 -0.038455
v -0.094174 -0.176873 0.038455
v 0.143585 0.159521 -0.038455
v -0.053801 -0.218892 0.038455
v -0.053801 -0.218892 -0.038455
v 0.143585 0.159521 0.038455
v -0.177832 -0.058841 -0.038455
v -0.012395 -0.217904 -0.038455
v -0.012395 -0.217904 0.038455
v -0.177832 -0.058841 0.038455
v -0.095113 -0.138372 0.038455
v -0.095113 -0.138372 -0.038455
v -0.136473 -0.098606 -0.038455
v -0.136473 -0.098606 0.038455
v -0.053754 -0.178138 0.038455
v -0.053754 -0.178138 -0.038455
v -0.157152 -0.078724 -0.038455
v -0.157152 -0.078724 0.038455
v -0.115793 -0.118489 0.038455
v -0.115793 -0.118489 -0.038455
v -0.074434 -0.158255 -0.038455
v -0.074434 -0.158255 0.038455
v -0.033074 -0.198021 0.038455
v -0.033074 -0.198021 -0.038455
v -0.057740 0.147058 0.038455
v -0.057740 0.147058 -0.038455
v 0.170274 0.130921 -0.038455
v 0.170274 0.130921 0.038455
v 0.056267 0.138990 0.038455
v 0.056267 0.138990 -0.038455
v -0.000737 0.143024 -0.038455
v -0.000737 0.143024 0.038455
v 0.113270 0.134955 0.038455
v 0.113270 0.134955 -0.038455
v -0.029238 0.145041 -0.038455
v -0.029238 0.145041 0.038455
v 0.027765 0.141007 0.038455
v 0.027765 0.141007 -0.038455
v 0.084769 0.136972 -0.038455
v 0.084769 0.136972 0.038455
v 0.141772 0.132938 0.038455
v 0.141772 0.132938 -0.038455
v -0.185013 -0.082329 -0.038455
v -0.045760 0.163304 0.038455
v -0.065085 0.040487 0.038455
v -0.105593 -0.020921 0.038455
v -0.037678 0.101896 0.038455
v -0.045760 0.163304 -0.038455
v -0.185013 -0.082329 0.038455
v -0.065085 0.040487 -0.038455
v -0.105593 -0.020921 -0.038455
v -0.037678 0.101896 -0.038455
v -0.167492 -0.068782 -0.038455
v -0.167492 -0.068782 0.038455
v -0.043489 0.146049 -0.038455
v -0.043489 0.146049 0.038455
v -0.016630 0.162722 -0.038455
v -0.164827 -0.103339 0.038455
v -0.164827 -0.103339 -0.038455
v -0.016630 0.162722 0.038455
v -0.040427 0.029692 0.038455
v -0.083171 -0.036824 0.038455
v -0.010784 0.096207 0.038455
v -0.146812 -0.088665 0.038455
v -0.146812 -0.088665 -0.038455
v -0.014987 0.144032 0.038455
v -0.014987 0.144032 -0.038455
v -0.144640 -0.124349 -0.038455
v 0.012500 0.162140 0.038455
v -0.015768 0.018896 0.038455
v -0.060748 -0.052726 0.038455
v 0.016110 0.090518 0.038455
v 0.012500 0.162140 -0.038455
v -0.144640 -0.124349 0.038455
v -0.015768 0.018896 -0.038455
v -0.060748 -0.052726 -0.038455
v 0.016110 0.090518 -0.038455
v -0.126133 -0.108548 -0.038455
v -0.126133 -0.108548 0.038455
v 0.013514 0.142015 -0.038455
v 0.013514 0.142015 0.038455
v 0.041630 0.161558 -0.038455
v -0.124454 -0.145358 0.038455
v 0.008890 0.008100 -0.038455
v -0.038326 -0.068629 -0.038455
v 0.043004 0.084829 -0.038455
v -0.124454 -0.145358 -0.038455
v 0.041630 0.161558 0.038455
v 0.008890 0.008100 0.038455
v -0.038326 -0.068629 0.038455
v 0.043004 0.084829 0.038455
v -0.105453 -0.128431 0.038455
v -0.105453 -0.128431 -0.038455
v 0.042016 0.139998 0.038455
v 0.042016 0.139998 -0.038455
v -0.104267 -0.166368 -0.038455
v 0.070760 0.160976 0.038455
v 0.033548 -0.002696 0.038455
v -0.015904 -0.084532 0.038455
v 0.069898 0.079140 0.038455
v 0.070760 0.160976 -0.038455
v -0.104267 -0.166368 0.038455
v 0.033548 -0.002696 -0.038455
v -0.015904 -0.084532 -0.038455
v 0.069898 0.079140 -0.038455
v -0.084773 -0.148314 -0.038455
v -0.084773 -0.148314 0.038455
v 0.070518 0.137981 -0.038455
v 0.070518 0.137981 0.038455
v 0.099890 0.160394 -0.038455
v -0.084081 -0.187377 0.038455
v 0.058206 -0.013492 -0.038455
v 0.006519 -0.100435 -0.038455
v 0.096792 0.073451 -0.038455
v -0.084081 -0.187377 -0.038455
v 0.099890 0.160394 0.038455
v 0.058206 -0.013492 0.038455
v 0.006519 -0.100435 0.038455
v 0.096792 0.073451 0.038455
v -0.064094 -0.168197 0.038455
v -0.064094 -0.168197 -0.038455
v 0.099020 0.135964 0.038455
v 0.099020 0.135964 -0.038455
v -0.063895 -0.208387 -0.038455
v 0.129020 0.159812 0.038455
v 0.082864 -0.024288 0.038455
v 0.028941 -0.116337 0.038455
v 0.123686 0.067762 0.038455
v 0.129020 0.159812 -0.038455
v -0.063895 -0.208387 0.038455
v 0.082864 -0.024288 -0.038455
v 0.028941 -0.116337 -0.038455
v 0.123686 0.067762 -0.038455
v -0.043414 -0.188080 -0.038455
v -0.043414 -0.188080 0.038455
v 0.127521 0.133947 -0.038455
v 0.127521 0.133947 0.038455
v 0.158150 0.159230 -0.038455
v -0.043708 -0.229397 0.038455
v 0.107523 -0.035083 -0.038455
v 0.051363 -0.132240 -0.038455
v 0.150581 0.062073 -0.038455
v -0.043708 -0.229397 -0.038455
v 0.158150 0.159230 0.038455
v 0.107523 -0.035083 0.038455
v 0.051363 -0.132240 0.038455
v 0.150581 0.062073 0.038455
v -0.022734 -0.207963 0.038455
v -0.022734 -0.207963 -0.038455
v 0.156023 0.131930 0.038455
v 0.156023 0.131930 -0.038455
v -0.040427 0.029692 -0.030221
v -0.028098 0.024294 -0.030221
v -0.083171 -0.036824 -0.030221
v -0.071959 -0.044775 -0.030221
v -0.010784 0.096207 -0.030221
v 0.002663 0.093362 -0.030221
v -0.000737 0.143024 -0.030221
v -0.040427 0.029692 0.028473
v -0.052756 0.035090 0.028473
v -0.083171 -0.036824 0.028473
v -0.094382 -0.028872 0.028473
v -0.010784 0.096207 0.028473
v -0.024231 0.099051 0.028473
v -0.024231 0.099051 -0.030221
v -0.052756 0.035090 -0.030221
v -0.094382 -0.028872 -0.030221
v -0.029238 0.145041 -0.030221
v -0.029238 0.145041 0.028473
v -0.015768 0.018896 -0.030221
v -0.003439 0.013498 -0.030221
v -0.060748 -0.052726 -0.030221
v -0.049537 -0.060678 -0.030221
v 0.016110 0.090518 -0.030221
v 0.029557 0.087673 -0.030221
v 0.008890 0.008100 0.028473
v -0.003439 0.013498 0.028473
v -0.038326 -0.068629 0.028473
v -0.049537 -0.060678 0.028473
v 0.043004 0.084829 0.028473
v 0.029557 0.087673 0.028473
v 0.027765 0.141007 0.028473
v 0.027765 0.141007 -0.030221
v 0.058206 -0.013492 0.028473
v 0.045877 -0.008094 0.028473
v 0.006519 -0.100435 0.028473
v -0.004693 -0.092483 0.028473
v 0.096792 0.073451 0.028473
v 0.083345 0.076296 0.028473
v 0.033548 -0.002696 -0.030221
v 0.045877 -0.008094 -0.030221
v -0.015904 -0.084532 -0.030221
v -0.004693 -0.092483 -0.030221
v 0.069898 0.079140 -0.030221
v 0.083345 0.076296 -0.030221
v 0.084769 0.136972 -0.030221
v 0.084769 0.136972 0.028473
v 0.082864 -0.024288 -0.030221
v 0.095193 -0.029685 -0.030221
v 0.028941 -0.116337 -0.030221
v 0.040152 -0.124289 -0.030221
v 0.123686 0.067762 -0.030221
v 0.137134 0.064918 -0.030221
v 0.107523 -0.035083 0.028473
v 0.095193 -0.029685 0.028473
v 0.051363 -0.132240 0.028473
v 0.040152 -0.124289 0.028473
v 0.150581 0.062073 0.028473
v 0.137134 0.064918 0.028473
v 0.141772 0.132938 0.028473
v 0.141772 0.132938 -0.030221
v -0.136473 -0.098606 -0.030221
v -0.157152 -0.078724 -0.030221
v -0.157152 -0.078724 0.028473
v -0.115793 -0.118489 0.028473
v -0.115793 -0.118489 -0.030221
v -0.074434 -0.158255 -0.030221
v -0.074434 -0.158255 0.028473
v -0.033074 -0.198021 0.028473
v -0.033074 -0.198021 -0.030221
v -0.043414 -0.188080 -0.030221
v -0.022734 -0.207963 0.028473
v -0.064094 -0.168197 0.028473
v -0.084773 -0.148314 -0.030221
v -0.126133 -0.108548 -0.030221
v -0.105453 -0.128431 0.028473
v -0.146812 -0.088665 0.028473
v -0.146812 -0.088665 -0.030221
v 0.127521 0.133947 -0.030221
v 0.156023 0.131930 0.028473
v 0.099020 0.135964 0.028473
v 0.070518 0.137981 -0.030221
v 0.013514 0.142015 -0.030221
v 0.042016 0.139998 0.028473
v -0.014987 0.144032 0.028473
v -0.014987 0.144032 -0.030221
v -0.065085 0.040487 0.028473
v -0.105593 -0.020921 0.028473
v -0.037678 0.101896 0.028473
v -0.167492 -0.068782 0.028473
v -0.043489 0.146049 0.028473
v -0.015768 0.018896 0.028473
v -0.060748 -0.052726 0.028473
v 0.016110 0.090518 0.028473
v -0.126133 -0.108548 0.028473
v 0.013514 0.142015 0.028473
v 0.008890 0.008100 -0.030221
v -0.038326 -0.068629 -0.030221
v 0.043004 0.084829 -0.030221
v -0.105453 -0.128431 -0.030221
v 0.042016 0.139998 -0.030221
v 0.033548 -0.002696 0.028473
v -0.015904 -0.084532 0.028473
v 0.069898 0.079140 0.028473
v -0.084773 -0.148314 0.028473
v 0.070518 0.137981 0.028473
v 0.058206 -0.013492 -0.030221
v 0.006519 -0.100435 -0.030221
v 0.096792 0.073451 -0.030221
v -0.064094 -0.168197 -0.030221
v 0.099020 0.135964 -0.030221
v 0.082864 -0.024288 0.028473
v 0.028941 -0.116337 0.028473
v 0.123686 0.067762 0.028473
v -0.043414 -0.188080 0.028473
v 0.127521 0.133947 0.028473
v 0.107523 -0.035083 -0.030221
v 0.051363 -0.132240 -0.030221
v 0.150581 0.062073 -0.030221
v -0.022734 -0.207963 -0.030221
v 0.156023 0.131930 -0.030221
v -0.195106 -0.071825 0.000000
v -0.060325 0.163595 0.000000
v -0.033615 -0.239901 0.000000
v 0.172715 0.158939 0.000000
v 0.119852 -0.040481 0.000000
v -0.077414 0.045885 0.000000
v -0.116804 -0.012970 0.000000
v 0.062574 -0.140191 0.000000
v 0.164028 0.059229 0.000000
v -0.051125 0.104740 0.000000
v -0.114361 -0.155863 0.000000
v -0.154733 -0.113844 0.000000
v -0.073988 -0.197882 0.000000
v -0.174920 -0.092834 0.000000
v -0.134547 -0.134853 0.000000
v -0.094174 -0.176873 0.000000
v -0.053801 -0.218892 0.000000
v -0.012395 -0.217904 0.000000
v -0.177832 -0.058841 0.000000
v 0.170274 0.130921 0.000000
v -0.057740 0.147058 0.000000
v -0.185013 -0.082329 0.000000
v -0.045760 0.163304 0.000000
v -0.164827 -0.103339 0.000000
v -0.144640 -0.124349 0.000000
v -0.124454 -0.145358 0.000000
v -0.104267 -0.166368 0.000000
v -0.084081 -0.187377 0.000000
v -0.063895 -0.208387 0.000000
v 0.158150 0.159230 0.000000
v -0.043708 -0.229397 0.000000
v -0.195106 -0.071825 0.019228
v 0.172715 0.158939 0.019228
v 0.119852 -0.040481 0.019228
v 0.062574 -0.140191 0.019228
v 0.164028 0.059229 0.019228
v -0.114361 -0.155863 0.019228
v -0.154733 -0.113844 0.019228
v -0.073988 -0.197882 0.019228
v -0.174920 -0.092834 0.019228
v -0.134547 -0.134853 0.019228
v -0.094174 -0.176873 0.019228
v -0.053801 -0.218892 0.019228
v -0.012395 -0.217904 0.019228
v 0.170274 0.130921 0.019228
v -0.185013 -0.082329 0.019228
v -0.045760 0.163304 0.019228
v -0.164827 -0.103339 0.019228
v -0.144640 -0.124349 0.019228
v -0.124454 -0.145358 0.019228
v -0.104267 -0.166368 0.019228
v -0.084081 -0.187377 0.019228
v -0.063895 -0.208387 0.019228
v 0.158150 0.159230 0.019228
v -0.043708 -0.229397 0.019228
v -0.060325 0.163595 0.019228
v -0.033615 -0.239901 0.019228
v -0.077414 0.045885 0.019228
v -0.116804 -0.012970 0.019228
v -0.051125 0.104740 0.019228
v -0.177832 -0.058841 0.019228
v -0.057740 0.147058 0.019228
v -0.060325 0.163595 -0.019228
v -0.033615 -0.239901 -0.019228
v -0.077414 0.045885 -0.019228
v -0.116804 -0.012970 -0.019228
v -0.051125 0.104740 -0.019228
v -0.177832 -0.058841 -0.019228
v -0.057740 0.147058 -0.019228
v -0.195106 -0.071825 -0.019228
v 0.172715 0.158939 -0.019228
v 0.119852 -0.040481 -0.019228
v 0.062574 -0.140191 -0.019228
v 0.164028 0.059229 -0.019228
v -0.114361 -0.155863 -0.019228
v -0.154733 -0.113844 -0.019228
v -0.073988 -0.197882 -0.019228
v -0.174920 -0.092834 -0.019228
v -0.134547 -0.134853 -0.019228
v -0.094174 -0.176873 -0.019228
v -0.053801 -0.218892 -0.019228
v -0.012395 -0.217904 -0.019228
v 0.170274 0.130921 -0.019228
v -0.185013 -0.082329 -0.019228
v -0.045760 0.163304 -0.019228
v -0.164827 -0.103339 -0.019228
v -0.144640 -0.124349 -0.019228
v -0.124454 -0.145358 -0.019228
v -0.104267 -0.166368 -0.019228
v -0.084081 -0.187377 -0.019228
v -0.063895 -0.208387 -0.019228
v 0.158150 0.159230 -0.019228
v -0.043708 -0.229397 -0.019228
v -0.060325 0.163595 -0.028841
v -0.033615 -0.239901 -0.028841
v -0.077414 0.045885 -0.028841
v -0.116804 -0.012970 -0.028841
v -0.051125 0.104740 -0.028841
v -0.177832 -0.058841 -0.028841
v -0.057740 0.147058 -0.028841
v -0.195106 -0.071825 -0.028841
v 0.172715 0.158939 -0.028841
v 0.119852 -0.040481 -0.028841
v 0.062574 -0.140191 -0.028841
v 0.164028 0.059229 -0.028841
v 0.056195 0.161267 -0.028841
v -0.114361 -0.155863 -0.028841
v -0.154733 -0.113844 -0.028841
v -0.002065 0.162431 -0.028841
v 0.114455 0.160103 -0.028841
v -0.073988 -0.197882 -0.028841
v -0.174920 -0.092834 -0.028841
v -0.031195 0.163013 -0.028841
v 0.027065 0.161849 -0.028841
v -0.134547 -0.134853 -0.028841
v -0.094174 -0.176873 -0.028841
v 0.085325 0.160685 -0.028841
v 0.143585 0.159521 -0.028841
v -0.053801 -0.218892 -0.028841
v -0.012395 -0.217904 -0.028841
v 0.170274 0.130921 -0.028841
v -0.185013 -0.082329 -0.028841
v -0.045760 0.163304 -0.028841
v -0.016630 0.162722 -0.028841
v -0.164827 -0.103339 -0.028841
v -0.144640 -0.124349 -0.028841
v 0.012500 0.162140 -0.028841
v 0.041630 0.161558 -0.028841
v -0.124454 -0.145358 -0.028841
v -0.104267 -0.166368 -0.028841
v 0.070760 0.160976 -0.028841
v 0.099890 0.160394 -0.028841
v -0.084081 -0.187377 -0.028841
v -0.063895 -0.208387 -0.028841
v 0.129020 0.159812 -0.028841
v 0.158150 0.159230 -0.028841
v -0.043708 -0.229397 -0.028841
v -0.195106 -0.071825 0.028841
v 0.172715 0.158939 0.028841
v 0.119852 -0.040481 0.028841
v 0.062574 -0.140191 0.028841
v 0.164028 0.059229 0.028841
v 0.056195 0.161267 0.028841
v -0.114361 -0.155863 0.028841
v -0.154733 -0.113844 0.028841
v -0.002065 0.162431 0.028841
v 0.114455 0.160103 0.028841
v -0.073988 -0.197882 0.028841
v -0.174920 -0.092834 0.028841
v -0.031195 0.163013 0.028841
v 0.027065 0.161849 0.028841
v -0.134547 -0.134853 0.028841
v -0.094174 -0.176873 0.028841
v 0.085325 0.160685 0.028841
v 0.143585 0.159521 0.028841
v -0.053801 -0.218892 0.028841
v -0.012395 -0.217904 0.028841
v 0.170274 0.130921 0.028841
v -0.185013 -0.082329 0.028841
v -0.045760 0.163304 0.028841
v -0.016630 0.162722 0.028841
v -0.164827 -0.103339 0.028841
v -0.144640 -0.124349 0.028841
v 0.012500 0.162140 0.028841
v 0.041630 0.161558 0.028841
v -0.124454 -0.145358 0.028841
v -0.104267 -0.166368 0.028841
v 0.070760 0.160976 0.028841
v 0.099890 0.160394 0.028841
v -0.084081 -0.187377 0.028841
v -0.063895 -0.208387 0.028841
v 0.129020 0.159812 0.028841
v 0.158150 0.159230 0.028841
v -0.043708 -0.229397 0.028841
v -0.060325 0.163595 0.028841
v -0.033615 -0.239901 0.028841
v -0.077414 0.045885 0.028841
v -0.116804 -0.012970 0.028841
v -0.051125 0.104740 0.028841
v -0.177832 -0.058841 0.028841
v -0.057740 0.147058 0.028841
v 0.055827 0.142110 -0.019224
v 0.055498 0.142319 0.000000
v -0.002116 0.148204 -0.020280
v -0.002444 0.148413 -0.001057
v 0.113769 0.136017 -0.018167
v 0.113441 0.136225 0.001057
v -0.031087 0.151251 -0.020809
v -0.031416 0.151460 -0.001585
v 0.026856 0.145157 -0.019752
v 0.026527 0.145366 -0.000528
v 0.084798 0.139063 -0.018695
v 0.084469 0.139272 0.000528
v 0.142741 0.132970 -0.017638
v 0.142412 0.133178 0.001585
v -0.045572 0.152774 -0.021073
v -0.045901 0.152983 -0.001850
v -0.016601 0.149728 -0.020545
v -0.016930 0.149936 -0.001321
v 0.012370 0.146681 -0.020016
v 0.012041 0.146889 -0.000793
v 0.041341 0.143634 -0.019488
v 0.041013 0.143842 -0.000264
v 0.070312 0.140587 -0.018959
v 0.069984 0.140796 0.000264
v 0.099284 0.137540 -0.018431
v 0.098955 0.137749 0.000793
v 0.128255 0.134493 -0.017902
v 0.127926 0.134702 0.001321
v 0.157226 0.131446 -0.017374
v 0.156897 0.131655 0.001850
v 0.055169 0.142528 0.019224
v -0.002773 0.148621 0.018167
v 0.113112 0.136434 0.020280
v -0.031744 0.151668 0.017638
v 0.026198 0.145575 0.018695
v 0.084141 0.139481 0.019752
v 0.142083 0.133387 0.020809
v -0.046230 0.153192 0.017374
v -0.017259 0.150145 0.017902
v 0.011713 0.147098 0.018431
v 0.040684 0.144051 0.018959
v 0.069655 0.141004 0.019488
v 0.098626 0.137957 0.020016
v 0.127598 0.134911 0.020545
v 0.156569 0.131864 0.021073
v 0.055991 0.142006 -0.028835
v -0.001951 0.148100 -0.029892
v 0.113934 0.135912 -0.027778
v -0.030922 0.151147 -0.030421
v 0.027020 0.145053 -0.029364
v 0.084962 0.138959 -0.028307
v 0.142905 0.132865 -0.027250
v -0.045408 0.152670 -0.030685
v -0.016437 0.149623 -0.030156
v 0.012534 0.146576 -0.029628
v 0.041506 0.143529 -0.029100
v 0.070477 0.140483 -0.028571
v 0.099448 0.137436 -0.028043
v 0.128419 0.134389 -0.027514
v 0.157391 0.131342 -0.026986
v 0.055005 0.142632 0.028835
v -0.002937 0.148726 0.027778
v 0.112948 0.136538 0.029892
v -0.031909 0.151773 0.027250
v 0.026034 0.145679 0.028307
v 0.083976 0.139585 0.029364
v 0.141919 0.133491 0.030421
v -0.046394 0.153296 0.026986
v -0.017423 0.150249 0.027514
v 0.011548 0.147202 0.028043
v 0.040519 0.144155 0.028571
v 0.069491 0.141109 0.029100
v 0.098462 0.138062 0.029628
v 0.127433 0.135015 0.030156
v 0.156404 0.131968 0.030685
vt 0.607438 0.218750
vt 0.625000 0.218750
vt 0.625000 0.250000
vt 0.607438 0.250000
vt 0.607438 0.484375
vt 0.625000 0.484375
vt 0.625000 0.500000
vt 0.607438 0.500000
vt 0.607438 0.718750
vt 0.625000 0.718750
vt 0.625000 0.750000
vt 0.607438 0.750000
vt 0.607438 0.984375
vt 0.625000 0.984375
vt 0.625000 1.000000
vt 0.607438 1.000000
vt 0.359375 0.718750
vt 0.375000 0.718750
vt 0.375000 0.750000
vt 0.359375 0.750000
vt 0.859375 0.718750
vt 0.875000 0.718750
vt 0.875000 0.750000
vt 0.859375 0.750000
vt 0.437500 0.984375
vt 0.500000 0.984375
vt 0.500000 1.000000
vt 0.437500 1.000000
vt 0.437500 0.718750
vt 0.500000 0.718750
vt 0.500000 0.750000
vt 0.437500 0.750000
vt 0.437500 0.484375
vt 0.500000 0.484375
vt 0.500000 0.500000
vt 0.437500 0.500000
vt 0.437500 0.218750
vt 0.500000 0.218750
vt 0.500000 0.250000
vt 0.437500 0.250000
vt 0.388788 0.218750
vt 0.388788 0.250000
vt 0.388788 0.484375
vt 0.388788 0.500000
vt 0.388788 0.718750
vt 0.388788 0.750000
vt 0.388788 0.984375
vt 0.388788 1.000000
vt 0.562500 0.984375
vt 0.562500 1.000000
vt 0.562500 0.718750
vt 0.562500 0.750000
vt 0.562500 0.484375
vt 0.562500 0.500000
vt 0.562500 0.218750
vt 0.562500 0.250000
vt 0.500000 0.359375
vt 0.562500 0.359375
vt 0.562500 0.375000
vt 0.500000 0.375000
vt 0.500000 0.859375
vt 0.562500 0.859375
vt 0.562500 0.875000
vt 0.500000 0.875000
vt 0.388788 0.859375
vt 0.437500 0.859375
vt 0.437500 0.875000
vt 0.388788 0.875000
vt 0.388788 0.359375
vt 0.437500 0.359375
vt 0.437500 0.375000
vt 0.388788 0.375000
vt 0.734375 0.718750
vt 0.750000 0.718750
vt 0.750000 0.750000
vt 0.734375 0.750000
vt 0.234375 0.718750
vt 0.250000 0.718750
vt 0.250000 0.750000
vt 0.234375 0.750000
vt 0.607438 0.859375
vt 0.625000 0.859375
vt 0.625000 0.875000
vt 0.607438 0.875000
vt 0.607438 0.359375
vt 0.625000 0.359375
vt 0.625000 0.375000
vt 0.607438 0.375000
vt 0.607438 0.296875
vt 0.625000 0.296875
vt 0.625000 0.312500
vt 0.607438 0.312500
vt 0.171875 0.718750
vt 0.187500 0.718750
vt 0.187500 0.750000
vt 0.171875 0.750000
vt 0.388788 0.296875
vt 0.388788 0.281250
vt 0.388788 0.281250
vt 0.388788 0.296875
vt 0.437500 0.312500
vt 0.388788 0.312500
vt 0.388788 0.312500
vt 0.437500 0.312500
vt 0.607438 0.328125
vt 0.607438 0.343750
vt 0.607438 0.343750
vt 0.607438 0.328125
vt 0.500000 0.921875
vt 0.562500 0.921875
vt 0.562500 0.937500
vt 0.500000 0.937500
vt 0.388788 0.921875
vt 0.437500 0.921875
vt 0.437500 0.937500
vt 0.388788 0.937500
vt 0.796875 0.718750
vt 0.812500 0.718750
vt 0.812500 0.750000
vt 0.796875 0.750000
vt 0.607438 0.921875
vt 0.625000 0.921875
vt 0.625000 0.937500
vt 0.607438 0.937500
vt 0.607438 0.796875
vt 0.625000 0.796875
vt 0.625000 0.812500
vt 0.607438 0.812500
vt 0.671875 0.718750
vt 0.687500 0.718750
vt 0.687500 0.750000
vt 0.671875 0.750000
vt 0.437500 0.796875
vt 0.500000 0.796875
vt 0.500000 0.812500
vt 0.437500 0.812500
vt 0.388788 0.796875
vt 0.388788 0.812500
vt 0.562500 0.796875
vt 0.562500 0.812500
vt 0.500000 0.421875
vt 0.562500 0.421875
vt 0.562500 0.437500
vt 0.500000 0.437500
vt 0.388788 0.421875
vt 0.437500 0.421875
vt 0.437500 0.437500
vt 0.388788 0.437500
vt 0.296875 0.718750
vt 0.312500 0.718750
vt 0.312500 0.750000
vt 0.296875 0.750000
vt 0.607438 0.421875
vt 0.625000 0.421875
vt 0.625000 0.437500
vt 0.607438 0.437500
vt 0.500000 0.265625
vt 0.562500 0.265625
vt 0.562500 0.281250
vt 0.500000 0.281250
vt 0.388788 0.265625
vt 0.437500 0.265625
vt 0.437500 0.281250
vt 0.140625 0.718750
vt 0.156250 0.718750
vt 0.156250 0.750000
vt 0.140625 0.750000
vt 0.607438 0.265625
vt 0.625000 0.265625
vt 0.625000 0.281250
vt 0.607438 0.281250
vt 0.437500 0.484375
vt 0.500000 0.484375
vt 0.607438 0.390625
vt 0.607438 0.406250
vt 0.607438 0.406250
vt 0.607438 0.390625
vt 0.388788 0.968750
vt 0.388788 0.968750
vt 0.388788 0.984375
vt 0.828125 0.718750
vt 0.843750 0.718750
vt 0.843750 0.750000
vt 0.828125 0.750000
vt 0.607438 0.953125
vt 0.625000 0.953125
vt 0.625000 0.968750
vt 0.607438 0.968750
vt 0.607438 0.890625
vt 0.625000 0.890625
vt 0.625000 0.906250
vt 0.607438 0.906250
vt 0.765625 0.718750
vt 0.781250 0.718750
vt 0.781250 0.750000
vt 0.765625 0.750000
vt 0.388788 0.484375
vt 0.607438 0.828125
vt 0.607438 0.843750
vt 0.607438 0.843750
vt 0.607438 0.828125
vt 0.500000 0.421875
vt 0.562500 0.421875
vt 0.625000 0.328125
vt 0.625000 0.343750
vt 0.203125 0.718750
vt 0.218750 0.718750
vt 0.218750 0.750000
vt 0.203125 0.750000
vt 0.437500 0.796875
vt 0.500000 0.796875
vt 0.562500 0.484375
vt 0.625000 0.390625
vt 0.625000 0.406250
vt 0.265625 0.718750
vt 0.281250 0.718750
vt 0.281250 0.750000
vt 0.265625 0.750000
vt 0.607438 0.765625
vt 0.607438 0.781250
vt 0.607438 0.781250
vt 0.607438 0.765625
vt 0.388788 0.421875
vt 0.437500 0.421875
vt 0.388788 0.796875
vt 0.625000 0.828125
vt 0.625000 0.843750
vt 0.703125 0.718750
vt 0.718750 0.718750
vt 0.718750 0.750000
vt 0.703125 0.750000
vt 0.500000 0.765625
vt 0.562500 0.765625
vt 0.562500 0.765625
vt 0.500000 0.765625
vt 0.607438 0.453125
vt 0.607438 0.468750
vt 0.607438 0.468750
vt 0.607438 0.453125
vt 0.500000 0.859375
vt 0.562500 0.859375
vt 0.562500 0.796875
vt 0.388788 0.765625
vt 0.437500 0.765625
vt 0.437500 0.765625
vt 0.388788 0.765625
vt 0.640625 0.718750
vt 0.656250 0.718750
vt 0.656250 0.750000
vt 0.640625 0.750000
vt 0.625000 0.765625
vt 0.625000 0.781250
vt 0.388788 0.859375
vt 0.437500 0.859375
vt 0.500000 0.453125
vt 0.562500 0.453125
vt 0.562500 0.453125
vt 0.500000 0.453125
vt 0.328125 0.718750
vt 0.343750 0.718750
vt 0.343750 0.750000
vt 0.328125 0.750000
vt 0.625000 0.453125
vt 0.625000 0.468750
vt 0.375000 0.453125
vt 0.388788 0.453125
vt 0.388788 0.468750
vt 0.375000 0.468750
vt 0.375000 0.765625
vt 0.388788 0.781250
vt 0.375000 0.781250
vt 0.375000 0.828125
vt 0.388788 0.828125
vt 0.388788 0.843750
vt 0.375000 0.843750
vt 0.375000 0.390625
vt 0.388788 0.390625
vt 0.388788 0.406250
vt 0.375000 0.406250
vt 0.375000 0.328125
vt 0.388788 0.328125
vt 0.388788 0.343750
vt 0.375000 0.343750
vt 0.375000 0.890625
vt 0.388788 0.890625
vt 0.388788 0.906250
vt 0.375000 0.906250
vt 0.375000 0.953125
vt 0.388788 0.953125
vt 0.375000 0.968750
vt 0.375000 0.265625
vt 0.375000 0.281250
vt 0.375000 0.421875
vt 0.375000 0.437500
vt 0.375000 0.796875
vt 0.375000 0.812500
vt 0.375000 0.921875
vt 0.375000 0.937500
vt 0.375000 0.296875
vt 0.375000 0.312500
vt 0.375000 0.359375
vt 0.375000 0.375000
vt 0.375000 0.859375
vt 0.375000 0.875000
vt 0.375000 0.984375
vt 0.375000 1.000000
vt 0.375000 0.484375
vt 0.375000 0.500000
vt 0.375000 0.218750
vt 0.375000 0.250000
vt 0.500000 0.359375
vt 0.562500 0.359375
vt 0.437500 0.453125
vt 0.437500 0.453125
vt 0.388788 0.453125
vt 0.562500 0.312500
vt 0.500000 0.312500
vt 0.500000 0.312500
vt 0.562500 0.312500
vt 0.388788 0.359375
vt 0.437500 0.359375
vt 0.500000 0.921875
vt 0.562500 0.921875
vt 0.388788 0.953125
vt 0.125000 0.718750
vt 0.125000 0.750000
vt 0.388788 0.921875
vt 0.437500 0.921875
vt 0.388788 0.890625
vt 0.388788 0.906250
vt 0.437500 0.828125
vt 0.500000 0.828125
vt 0.500000 0.828125
vt 0.437500 0.828125
vt 0.562500 0.953125
vt 0.500000 0.953125
vt 0.437500 0.953125
vt 0.388788 0.328125
vt 0.388788 0.343750
vt 0.388788 0.828125
vt 0.388788 0.390625
vt 0.388788 0.406250
vt 0.562500 0.328125
vt 0.500000 0.328125
vt 0.437500 0.328125
vt 0.607438 0.312500
vt 0.437500 0.390625
vt 0.500000 0.390625
vt 0.500000 0.390625
vt 0.437500 0.390625
vt 0.562500 0.828125
vt 0.562500 0.828125
vt 0.562500 0.890625
vt 0.500000 0.890625
vt 0.437500 0.890625
vt 0.388788 0.843750
vt 0.607438 0.484375
vt 0.562500 0.390625
vt 0.388788 0.781250
vt 0.500000 0.890625
vt 0.437500 0.890625
vt 0.562500 0.390625
vt 0.437500 0.984375
vt 0.500000 0.984375
vt 0.607438 0.796875
vt 0.388788 0.468750
vt 0.562500 0.953125
vt 0.500000 0.953125
vt 0.500000 0.328125
vt 0.437500 0.328125
vt 0.562500 0.890625
vt 0.437500 0.296875
vt 0.500000 0.296875
vt 0.562500 0.296875
vt 0.562500 0.968750
vt 0.500000 0.968750
vt 0.437500 0.953125
vt 0.437500 0.968750
vt 0.500000 0.906250
vt 0.437500 0.906250
vt 0.562500 0.906250
vt 0.500000 0.343750
vt 0.437500 0.343750
vt 0.562500 0.328125
vt 0.562500 0.343750
vt 0.500000 0.406250
vt 0.437500 0.406250
vt 0.562500 0.406250
vt 0.500000 0.843750
vt 0.437500 0.843750
vt 0.562500 0.843750
vt 0.562500 0.781250
vt 0.500000 0.781250
vt 0.437500 0.781250
vt 0.562500 0.468750
vt 0.500000 0.468750
vt 0.437500 0.468750
vt 0.607438 0.890625
vt 0.607438 0.906250
vt 0.607438 0.953125
vt 0.607438 0.968750
vt 0.607438 0.296875
vt 0.607438 0.984375
vt 0.562500 0.984375
vt 0.562500 0.281250
vt 0.607438 0.281250
vt 0.500000 0.281250
vt 0.437500 0.281250
vt 0.607438 0.921875
vt 0.607438 0.359375
vt 0.607438 0.859375
vt 0.607438 0.421875
vt 0.343750 0.562500
vt 0.359375 0.562500
vt 0.359375 0.625000
vt 0.343750 0.625000
vt 0.625000 0.562500
vt 0.640625 0.562500
vt 0.640625 0.625000
vt 0.625000 0.625000
vt 0.312500 0.562500
vt 0.328125 0.562500
vt 0.328125 0.625000
vt 0.312500 0.625000
vt 0.281250 0.562500
vt 0.296875 0.562500
vt 0.296875 0.625000
vt 0.281250 0.625000
vt 0.250000 0.562500
vt 0.265625 0.562500
vt 0.265625 0.625000
vt 0.250000 0.625000
vt 0.218750 0.562500
vt 0.234375 0.562500
vt 0.234375 0.625000
vt 0.218750 0.625000
vt 0.187500 0.562500
vt 0.203125 0.562500
vt 0.203125 0.625000
vt 0.187500 0.625000
vt 0.156250 0.562500
vt 0.171875 0.562500
vt 0.171875 0.625000
vt 0.156250 0.625000
vt 0.125000 0.562500
vt 0.140625 0.562500
vt 0.140625 0.625000
vt 0.125000 0.625000
vt 0.562500 0.062500
vt 0.607438 0.062500
vt 0.607438 0.125000
vt 0.562500 0.125000
vt 0.562500 0.562500
vt 0.607438 0.562500
vt 0.607438 0.625000
vt 0.562500 0.625000
vt 0.375000 0.062500
vt 0.388788 0.062500
vt 0.388788 0.125000
vt 0.375000 0.125000
vt 0.375000 0.562500
vt 0.388788 0.562500
vt 0.388788 0.625000
vt 0.375000 0.625000
vt 0.500000 0.062500
vt 0.500000 0.125000
vt 0.500000 0.562500
vt 0.500000 0.625000
vt 0.437500 0.562500
vt 0.437500 0.625000
vt 0.437500 0.062500
vt 0.437500 0.125000
vt 0.859375 0.562500
vt 0.875000 0.562500
vt 0.875000 0.625000
vt 0.859375 0.625000
vt 0.625000 0.062500
vt 0.625000 0.125000
vt 0.607438 0.031250
vt 0.625000 0.031250
vt 0.437500 0.031250
vt 0.500000 0.031250
vt 0.388788 0.031250
vt 0.562500 0.031250
vt 0.375000 0.031250
vt 0.359375 0.687500
vt 0.343750 0.687500
vt 0.640625 0.687500
vt 0.625000 0.687500
vt 0.328125 0.687500
vt 0.312500 0.687500
vt 0.296875 0.687500
vt 0.281250 0.687500
vt 0.265625 0.687500
vt 0.250000 0.687500
vt 0.234375 0.687500
vt 0.218750 0.687500
vt 0.203125 0.687500
vt 0.187500 0.687500
vt 0.171875 0.687500
vt 0.156250 0.687500
vt 0.828125 0.718750
vt 0.843750 0.718750
vt 0.140625 0.687500
vt 0.125000 0.687500
vt 0.607438 0.687500
vt 0.562500 0.687500
vt 0.388788 0.687500
vt 0.375000 0.687500
vt 0.828125 0.531250
vt 0.843750 0.531250
vt 0.843750 0.531250
vt 0.828125 0.531250
vt 0.781250 0.718750
vt 0.796875 0.718750
vt 0.781250 0.531250
vt 0.796875 0.531250
vt 0.796875 0.531250
vt 0.781250 0.531250
vt 0.765625 0.718750
vt 0.765625 0.531250
vt 0.765625 0.531250
vt 0.750000 0.718750
vt 0.750000 0.531250
vt 0.750000 0.531250
vt 0.500000 0.687500
vt 0.437500 0.687500
vt 0.875000 0.687500
vt 0.859375 0.687500
vt 0.607438 0.531250
vt 0.625000 0.531250
vt 0.359375 0.531250
vt 0.375000 0.531250
vt 0.859375 0.531250
vt 0.875000 0.531250
vt 0.437500 0.531250
vt 0.500000 0.531250
vt 0.388788 0.531250
vt 0.562500 0.531250
vt 0.703125 0.718750
vt 0.718750 0.718750
vt 0.234375 0.531250
vt 0.250000 0.531250
vt 0.171875 0.531250
vt 0.187500 0.531250
vt 0.703125 0.531250
vt 0.718750 0.531250
vt 0.718750 0.531250
vt 0.703125 0.531250
vt 0.734375 0.718750
vt 0.296875 0.531250
vt 0.312500 0.531250
vt 0.140625 0.531250
vt 0.156250 0.531250
vt 0.734375 0.531250
vt 0.734375 0.531250
vt 0.640625 0.718750
vt 0.656250 0.718750
vt 0.203125 0.531250
vt 0.218750 0.531250
vt 0.265625 0.531250
vt 0.281250 0.531250
vt 0.640625 0.531250
vt 0.656250 0.531250
vt 0.656250 0.531250
vt 0.640625 0.531250
vt 0.687500 0.718750
vt 0.328125 0.531250
vt 0.343750 0.531250
vt 0.125000 0.531250
vt 0.687500 0.531250
vt 0.687500 0.531250
vt 0.859375 0.562500
vt 0.859375 0.531250
vt 0.640625 0.562500
vt 0.859375 0.687500
vt 0.859375 0.625000
vt 0.640625 0.625000
vt 0.640625 0.687500
vt 0.607438 0.187500
vt 0.562500 0.187500
vt 0.388788 0.187500
vt 0.375000 0.187500
vt 0.500000 0.187500
vt 0.437500 0.187500
vt 0.625000 0.187500
vt 0.343750 0.500000
vt 0.359375 0.500000
vt 0.640625 0.500000
vt 0.656250 0.500000
vt 0.671875 0.500000
vt 0.671875 0.531250
vt 0.312500 0.500000
vt 0.328125 0.500000
vt 0.281250 0.500000
vt 0.296875 0.500000
vt 0.687500 0.500000
vt 0.703125 0.500000
vt 0.718750 0.500000
vt 0.734375 0.500000
vt 0.250000 0.500000
vt 0.265625 0.500000
vt 0.218750 0.500000
vt 0.234375 0.500000
vt 0.750000 0.500000
vt 0.765625 0.500000
vt 0.781250 0.500000
vt 0.796875 0.500000
vt 0.187500 0.500000
vt 0.203125 0.500000
vt 0.156250 0.500000
vt 0.171875 0.500000
vt 0.812500 0.500000
vt 0.828125 0.500000
vt 0.812500 0.531250
vt 0.843750 0.500000
vt 0.859375 0.500000
vt 0.125000 0.500000
vt 0.140625 0.500000
vt 0.875000 0.500000
vt 0.562500 0.000000
vt 0.607438 0.000000
vt 0.375000 0.000000
vt 0.388788 0.000000
vt 0.500000 0.000000
vt 0.437500 0.000000
vt 0.625000 0.000000
vt 0.671875 0.718750
vt 0.671875 0.531250
vt 0.812500 0.718750
vt 0.812500 0.531250
vt 0.859375 0.718750
vt 0.656250 0.562500
vt 0.671875 0.562500
vt 0.671875 0.625000
vt 0.656250 0.625000
vt 0.687500 0.562500
vt 0.703125 0.562500
vt 0.703125 0.625000
vt 0.687500 0.625000
vt 0.718750 0.562500
vt 0.734375 0.562500
vt 0.734375 0.625000
vt 0.718750 0.625000
vt 0.750000 0.562500
vt 0.765625 0.562500
vt 0.765625 0.625000
vt 0.750000 0.625000
vt 0.781250 0.562500
vt 0.796875 0.562500
vt 0.796875 0.625000
vt 0.781250 0.625000
vt 0.812500 0.562500
vt 0.828125 0.562500
vt 0.828125 0.625000
vt 0.812500 0.625000
vt 0.843750 0.562500
vt 0.843750 0.625000
vt 0.671875 0.687500
vt 0.656250 0.687500
vt 0.703125 0.687500
vt 0.687500 0.687500
vt 0.734375 0.687500
vt 0.718750 0.687500
vt 0.765625 0.687500
vt 0.750000 0.687500
vt 0.796875 0.687500
vt 0.781250 0.687500
vt 0.828125 0.687500
vt 0.812500 0.687500
vt 0.843750 0.687500
vn -0.9880 -0.1544 0.0000
vn 0.0000 0.0000 -1.0000
vn 0.9962 -0.0868 0.0000
vn -0.0000 0.0000 1.0000
vn -0.7211 -0.6928 0.0000
vn 0.0200 0.9998 0.0000
vn 0.8671 -0.4981 0.0000
vn -0.8310 0.5562 0.0000
vn -0.6008 0.7994 0.0000
vn 0.7197 -0.6943 0.0000
vn 0.9143 -0.4051 0.0000
vn -0.9131 0.4078 0.0000
vn 0.6931 0.7209 0.0000
vn -0.6407 0.7678 0.0000
vn -0.0706 -0.9975 0.0000
vn -0.8658 0.5004 0.0000
vn -0.7147 0.6994 0.0000
vn -0.9140 0.4057 0.0000
vn 0.8628 -0.5055 0.0000
vn -0.9142 0.4052 0.0000
vn -0.6924 0.7215 0.0000
vn 0.7041 -0.7101 0.0000
vn 0.9139 -0.4059 0.0000
vn -0.8596 0.5110 0.0000
vn 0.9141 -0.4054 0.0000
vn 0.6795 -0.7337 0.0000
vn -0.9138 0.4063 0.0000
vn 0.8559 -0.5172 0.0000
vn -0.9135 0.4068 0.0000
vn -0.6652 0.7467 0.0000
vn 0.9136 -0.4066 0.0000
vn -0.8517 0.5241 0.0000
vn 0.6493 -0.7605 0.0000
vn -0.8442 0.5361 0.0000
vn 0.8468 -0.5318 0.0000
vn -0.9977 -0.0683 0.0000
vn -0.9970 0.0777 0.0000
vn 0.9983 -0.0578 0.0000
vn 0.8347 -0.5506 0.0000
vn 0.6117 -0.7911 0.0000
vn -0.9994 0.0356 0.0000
vn -0.9134 0.4071 0.0000
vn 0.9915 0.1305 0.0000
vn 0.9133 -0.4073 0.0000
vn 0.6219 -0.7831 0.0000
vn -0.9962 -0.0876 0.0000
vn 0.8381 -0.5455 0.0000
vn 0.9987 0.0503 0.0000
vn 0.9941 0.1082 0.0000
vn -0.9998 -0.0179 0.0000
vn 0.9999 -0.0105 0.0000
vn -0.8413 0.5406 0.0000
vn -0.6316 0.7753 0.0000
vn 0.9132 -0.4076 0.0000
vn 0.0166 0.1211 -0.9925
vn -0.0162 -0.1155 0.9932
vn 0.0117 0.0421 -0.9990
vn -0.0116 -0.0404 0.9991
vn 0.0105 0.0233 -0.9997
vn -0.0105 -0.0224 0.9997
vn 0.0095 0.0071 -0.9999
vn -0.0095 -0.0067 0.9999
vn 0.0072 -0.0306 -0.9995
vn -0.0072 0.0299 0.9995
vn 0.0079 -0.0196 -0.9998
vn -0.0079 0.0192 0.9998
vn 0.0051 -0.0644 -0.9979
vn -0.0051 0.0632 0.9980
vn 0.0066 -0.0404 -0.9992
vn -0.0066 0.0396 0.9992
vn 0.0087 -0.0071 -0.9999
vn 0.9997 0.0240 0.0084
vn -0.0087 0.0070 0.9999
vn -0.9995 0.0296 -0.0087
vn 0.9995 -0.0315 0.0087
vn -0.9987 0.0509 -0.0088
vn 1.0000 0.0007 0.0085
vn 0.0055 -0.0572 -0.9983
vn -0.9992 0.0387 -0.0088
vn -0.0056 0.0561 0.9984
vn 0.0131 0.0640 -0.9979
vn -0.0129 -0.0614 0.9980
vn 0.0189 0.1589 -0.9871
vn -0.0184 -0.1509 0.9884
vn 0.0060 -0.0493 -0.9988
vn -0.0061 0.0482 0.9988
vn 0.0147 0.0900 -0.9958
vn -0.0144 -0.0861 0.9962
vn 0.9984 -0.0564 0.0088
vn -0.9981 0.0602 -0.0089
vn 0.1048 0.9945 -0.0090
usemtl metal_clip
s off
f 434/1/1 428/2/1 4/3/1 89/4/1
f 214/5/2 201/6/2 8/7/2 90/8/2
f 492/9/3 473/10/3 6/11/3 91/12/3
f 119/13/4 107/14/4 2/15/4 88/16/4
f 508/17/5 510/18/5 5/19/5 202/20/5
f 494/21/6 509/22/6 2/23/6 107/24/6
f 109/25/4 108/26/4 9/27/4 16/28/4
f 475/29/7 474/30/7 12/31/7 15/32/7
f 204/33/2 203/34/2 11/35/2 14/36/2
f 431/37/8 430/38/8 10/39/8 13/40/8
f 433/41/9 431/37/9 13/40/9 70/42/9
f 212/43/2 204/33/2 14/36/2 71/44/2
f 491/45/10 475/29/10 15/32/10 72/46/10
f 117/47/4 109/25/4 16/28/4 73/48/4
f 108/26/4 110/49/4 17/50/4 9/27/4
f 474/30/11 476/51/11 20/52/11 12/31/11
f 203/34/2 205/53/2 19/54/2 11/35/2
f 430/38/12 432/55/12 18/56/12 10/39/12
f 147/57/2 149/58/2 30/59/2 26/60/2
f 161/61/4 163/62/4 29/63/4 25/64/4
f 170/65/4 162/66/4 28/67/4 74/68/4
f 156/69/2 148/70/2 27/71/2 75/72/2
f 148/70/2 147/57/2 26/60/2 27/71/2
f 162/66/4 161/61/4 25/64/4 28/67/4
f 502/73/6 477/74/6 24/75/6 160/76/6
f 500/77/5 478/78/5 23/79/5 146/80/5
f 172/81/4 160/82/4 24/83/4 92/84/4
f 158/85/2 145/86/2 22/87/2 93/88/2
f 130/89/2 120/90/2 36/91/2 94/92/2
f 496/93/5 479/94/5 37/95/5 121/96/5
f 128/97/13 80/98/13 276/99/13 291/100/13
f 39/101/14 76/102/14 275/103/14 218/104/14
f 143/105/15 101/106/15 246/107/15 296/108/15
f 133/109/4 135/110/4 35/111/4 33/112/4
f 142/113/4 134/114/4 34/115/4 77/116/4
f 134/114/4 133/109/4 33/112/4 34/115/4
f 498/117/6 480/118/6 32/119/6 132/120/6
f 144/121/4 132/122/4 32/123/4 95/124/4
f 200/125/4 188/126/4 47/127/4 96/128/4
f 506/129/6 481/130/6 47/131/6 188/132/6
f 190/133/4 189/134/4 48/135/4 49/136/4
f 198/137/4 190/133/4 49/136/4 78/138/4
f 189/134/4 191/139/4 50/140/4 48/135/4
f 175/141/2 177/142/2 45/143/2 43/144/2
f 184/145/2 176/146/2 44/147/2 79/148/2
f 176/146/2 175/141/2 43/144/2 44/147/2
f 504/149/5 482/150/5 42/151/5 174/152/5
f 186/153/2 173/154/2 41/155/2 97/156/2
f 113/157/2 115/158/2 57/159/2 55/160/2
f 116/161/2 114/162/2 56/163/2 80/98/2
f 114/162/2 113/157/2 55/160/2 56/163/2
f 493/164/5 483/165/5 54/166/5 112/167/5
f 118/168/2 111/169/2 53/170/2 98/171/2
f 203/34/16 204/33/16 331/172/16 330/173/16
f 171/174/15 102/175/15 259/176/15 295/177/15
f 117/47/13 81/178/13 277/179/13 303/180/13
f 495/181/6 484/182/6 52/183/6 123/184/6
f 129/185/4 123/186/4 52/187/4 99/188/4
f 157/189/4 151/190/4 61/191/4 100/192/4
f 499/193/6 485/194/6 61/195/6 151/196/6
f 204/33/17 212/43/17 333/197/17 331/172/17
f 185/198/15 103/199/15 260/200/15 294/201/15
f 177/142/18 175/141/18 320/202/18 322/203/18
f 143/105/2 136/204/2 58/205/2 101/106/2
f 497/206/5 486/207/5 59/208/5 137/209/5
f 189/134/19 190/133/19 326/210/19 325/211/19
f 76/102/13 128/97/13 291/100/13 275/103/13
f 205/53/20 203/34/20 330/173/20 332/212/20
f 171/174/2 164/213/2 64/214/2 102/175/2
f 501/215/5 487/216/5 65/217/5 165/218/5
f 213/219/15 104/220/15 273/221/15 293/222/15
f 176/146/21 184/145/21 323/223/21 321/224/21
f 190/133/22 198/137/22 328/225/22 326/210/22
f 185/198/4 179/226/4 63/227/4 103/199/4
f 503/228/6 488/229/6 63/230/6 179/231/6
f 208/232/20 210/233/20 271/234/20 267/235/20
f 199/236/15 105/237/15 274/238/15 292/239/15
f 163/62/23 161/61/23 315/240/23 317/241/23
f 175/141/24 176/146/24 321/224/24 320/202/24
f 191/139/25 189/134/25 325/211/25 327/242/25
f 211/243/17 209/244/17 269/245/17 285/246/17
f 507/247/6 489/248/6 69/249/6 207/250/6
f 213/219/4 207/251/4 69/252/4 104/220/4
f 162/66/26 170/65/26 318/253/26 316/254/26
f 194/255/25 196/256/25 265/257/25 261/258/25
f 209/244/16 208/232/16 267/235/16 269/245/16
f 505/259/5 490/260/5 67/261/5 193/262/5
f 199/236/2 192/263/2 66/264/2 105/237/2
f 187/265/2 197/266/2 87/267/2 68/268/2
f 202/269/4 211/243/4 86/270/4 67/271/4
f 174/272/4 183/273/4 85/274/4 65/275/4
f 159/276/2 169/277/2 84/278/2 62/279/2
f 131/280/2 141/281/2 83/282/2 60/283/2
f 146/284/4 155/285/4 82/286/4 59/287/4
f 121/288/4 127/289/4 81/178/4 54/290/4
f 106/291/2 116/161/2 80/98/2 51/292/2
f 178/293/2 184/145/2 79/148/2 46/294/2
f 193/295/4 198/137/4 78/138/4 42/296/4
f 137/297/4 142/113/4 77/116/4 37/298/4
f 122/299/2 128/97/2 76/102/2 31/300/2
f 150/301/2 156/69/2 75/72/2 21/302/2
f 165/303/4 170/65/4 74/68/4 23/304/4
f 112/305/4 117/47/4 73/48/4 1/306/4
f 510/18/10 491/45/10 72/46/10 5/19/10
f 206/307/2 212/43/2 71/44/2 7/308/2
f 435/309/9 433/41/9 70/42/9 3/310/9
f 149/58/27 147/57/27 310/311/27 312/312/27
f 161/61/28 162/66/28 316/254/28 315/240/28
f 197/266/22 195/313/22 263/314/22 284/315/22
f 40/316/29 38/317/29 216/318/29 220/319/29
f 148/70/30 156/69/30 313/320/30 311/321/30
f 195/313/19 194/255/19 261/258/19 263/314/19
f 135/110/31 133/109/31 305/322/31 307/323/31
f 115/158/2 118/168/2 98/171/2 57/159/2
f 177/142/2 186/153/2 97/156/2 45/143/2
f 191/139/4 200/125/4 96/128/4 50/140/4
f 135/110/4 144/121/4 95/124/4 35/111/4
f 81/178/13 127/289/13 290/324/13 277/179/13
f 149/58/2 158/85/2 93/88/2 30/59/2
f 163/62/4 172/81/4 92/84/4 29/63/4
f 110/49/4 119/13/4 88/16/4 17/50/4
f 476/51/3 492/9/3 91/12/3 20/52/3
f 205/53/2 214/5/2 90/8/2 19/54/2
f 432/55/1 434/1/1 89/4/1 18/56/1
f 147/57/32 148/70/32 311/321/32 310/311/32
f 18/56/2 89/4/2 118/168/2 115/158/2
f 54/290/4 81/178/4 117/47/4 112/305/4
f 3/310/2 70/42/2 116/161/2 106/291/2
f 89/4/2 4/3/2 111/169/2 118/168/2
f 472/325/5 493/164/5 112/167/5 1/326/5
f 13/40/2 10/39/2 113/157/2 114/162/2
f 70/42/2 13/40/2 114/162/2 116/161/2
f 10/39/2 18/56/2 115/158/2 113/157/2
f 134/114/33 142/113/33 308/327/33 306/328/33
f 82/286/13 155/285/13 289/329/13 278/330/13
f 38/317/34 39/101/34 218/104/34 216/318/34
f 484/182/6 494/21/6 107/24/6 52/183/6
f 99/188/4 52/187/4 107/14/4 119/13/4
f 181/331/24 180/332/24 247/333/24 249/334/24
f 35/111/4 95/124/4 129/185/4 126/335/4
f 51/292/2 80/98/2 128/97/2 122/299/2
f 37/298/4 77/116/4 127/289/4 121/288/4
f 95/124/4 32/123/4 123/186/4 129/185/4
f 480/118/6 495/181/6 123/184/6 32/119/6
f 34/115/4 33/112/4 124/336/4 125/337/4
f 77/116/4 34/115/4 125/337/4 127/289/4
f 33/112/4 35/111/4 126/335/4 124/336/4
f 133/109/35 134/114/35 306/328/35 305/322/35
f 83/282/13 141/281/13 288/338/13 279/339/13
f 183/273/21 181/331/21 249/334/21 286/340/21
f 483/165/5 496/93/5 121/96/5 54/166/5
f 98/171/2 53/170/2 120/90/2 130/89/2
f 84/278/13 169/277/13 287/341/13 280/342/13
f 40/316/2 94/92/2 143/105/2 140/343/2
f 59/287/4 82/286/4 142/113/4 137/297/4
f 31/300/2 76/102/2 141/281/2 131/280/2
f 38/317/2 40/316/2 140/343/2 138/344/2
f 76/102/2 39/101/2 139/345/2 141/281/2
f 39/101/2 38/317/2 138/344/2 139/345/2
f 479/94/5 497/206/5 137/209/5 37/95/5
f 94/92/2 36/91/2 136/204/2 143/105/2
f 100/192/4 61/191/4 132/122/4 144/121/4
f 485/194/6 498/117/6 132/120/6 61/195/6
f 94/92/36 40/316/36 220/319/36 221/346/36
f 210/233/37 213/219/37 293/222/37 271/234/37
f 167/347/28 166/348/28 253/349/28 255/350/28
f 180/332/18 182/351/18 251/352/18 247/333/18
f 29/63/4 92/84/4 157/189/4 154/353/4
f 60/283/2 83/282/2 156/69/2 150/301/2
f 23/304/4 74/68/4 155/285/4 146/284/4
f 25/64/4 29/63/4 154/353/4 152/354/4
f 74/68/4 28/67/4 153/355/4 155/285/4
f 28/67/4 25/64/4 152/354/4 153/355/4
f 477/74/6 499/193/6 151/196/6 24/75/6
f 92/84/4 24/83/4 151/190/4 157/189/4
f 101/106/2 58/205/2 145/86/2 158/85/2
f 486/207/5 500/77/5 146/80/5 59/208/5
f 85/274/13 183/273/13 286/340/13 281/356/13
f 214/5/37 205/53/37 332/212/37 334/357/37
f 169/277/26 167/347/26 255/350/26 287/341/26
f 196/256/38 199/236/38 292/239/38 265/257/38
f 30/59/2 93/88/2 171/174/2 168/358/2
f 65/275/4 85/274/4 170/65/4 165/303/4
f 21/302/2 75/72/2 169/277/2 159/276/2
f 26/60/2 30/59/2 168/358/2 166/348/2
f 75/72/2 27/71/2 167/347/2 169/277/2
f 27/71/2 26/60/2 166/348/2 167/347/2
f 478/78/5 501/215/5 165/218/5 23/79/5
f 93/88/2 22/87/2 164/213/2 171/174/2
f 103/199/4 63/227/4 160/82/4 172/81/4
f 488/229/6 502/73/6 160/76/6 63/230/6
f 86/270/13 211/243/13 285/246/13 282/359/13
f 105/237/15 214/5/15 334/357/15 274/238/15
f 153/355/32 152/354/32 239/360/32 241/361/32
f 166/348/23 168/358/23 257/362/23 253/349/23
f 50/140/4 96/128/4 185/198/4 182/351/4
f 62/279/2 84/278/2 184/145/2 178/293/2
f 42/296/4 78/138/4 183/273/4 174/272/4
f 48/135/4 50/140/4 182/351/4 180/332/4
f 78/138/4 49/136/4 181/331/4 183/273/4
f 49/136/4 48/135/4 180/332/4 181/331/4
f 481/130/6 503/228/6 179/231/6 47/131/6
f 96/128/4 47/127/4 179/226/4 185/198/4
f 102/175/2 64/214/2 173/154/2 186/153/2
f 487/216/5 504/149/5 174/152/5 65/217/5
f 108/26/39 109/25/39 301/363/39 300/364/39
f 200/125/38 191/139/38 327/242/38 329/365/38
f 87/267/13 197/266/13 284/315/13 283/366/13
f 155/285/30 153/355/30 241/361/30 289/329/30
f 45/143/2 97/156/2 199/236/2 196/256/2
f 67/271/4 86/270/4 198/137/4 193/295/4
f 46/294/2 79/148/2 197/266/2 187/265/2
f 97/156/2 41/155/2 192/263/2 199/236/2
f 482/150/5 505/259/5 193/262/5 42/151/5
f 44/147/2 43/144/2 194/255/2 195/313/2
f 79/148/2 44/147/2 195/313/2 197/266/2
f 43/144/2 45/143/2 196/256/2 194/255/2
f 109/25/40 117/47/40 303/180/40 301/363/40
f 182/351/41 185/198/41 294/201/41 251/352/41
f 124/336/42 126/335/42 226/367/42 222/368/42
f 489/248/6 506/129/6 188/132/6 69/249/6
f 104/220/4 69/252/4 188/126/4 200/125/4
f 104/220/15 200/125/15 329/365/15 273/221/15
f 20/52/4 91/12/4 213/219/4 210/233/4
f 68/268/2 87/267/2 212/43/2 206/307/2
f 5/19/4 72/46/4 211/243/4 202/269/4
f 91/12/4 6/11/4 207/251/4 213/219/4
f 473/10/6 507/247/6 207/250/6 6/11/6
f 15/32/4 12/31/4 208/232/4 209/244/4
f 72/46/4 15/32/4 209/244/4 211/243/4
f 12/31/4 20/52/4 210/233/4 208/232/4
f 139/345/35 138/344/35 233/369/35 235/370/35
f 212/43/13 87/267/13 283/366/13 333/197/13
f 152/354/27 154/353/27 243/371/27 239/360/27
f 490/260/5 508/17/5 202/20/5 67/261/5
f 105/237/2 66/264/2 201/6/2 214/5/2
f 217/372/2 215/373/2 216/318/2 218/104/2
f 291/100/2 217/372/2 218/104/2 275/103/2
f 215/373/2 219/374/2 220/319/2 216/318/2
f 222/368/4 226/367/4 227/375/4 223/376/4
f 290/324/4 224/377/4 225/378/4 277/179/4
f 224/377/4 222/368/4 223/376/4 225/378/4
f 241/361/4 239/360/4 240/379/4 242/380/4
f 289/329/4 241/361/4 242/380/4 278/330/4
f 239/360/4 243/371/4 244/381/4 240/379/4
f 235/370/2 233/369/2 234/382/2 236/383/2
f 288/338/2 235/370/2 236/383/2 279/339/2
f 233/369/2 237/384/2 238/385/2 234/382/2
f 255/350/2 253/349/2 254/386/2 256/387/2
f 287/341/2 255/350/2 256/387/2 280/342/2
f 253/349/2 257/362/2 258/388/2 254/386/2
f 249/334/4 247/333/4 248/389/4 250/390/4
f 286/340/4 249/334/4 250/390/4 281/356/4
f 247/333/4 251/352/4 252/391/4 248/389/4
f 267/235/4 271/234/4 272/392/4 268/393/4
f 285/246/4 269/245/4 270/394/4 282/359/4
f 269/245/4 267/235/4 268/393/4 270/394/4
f 261/258/2 265/257/2 266/395/2 262/396/2
f 284/315/2 263/314/2 264/397/2 283/366/2
f 263/314/2 261/258/2 262/396/2 264/397/2
f 265/257/2 292/239/2 274/238/2 266/395/2
f 271/234/4 293/222/4 273/221/4 272/392/4
f 251/352/4 294/201/4 260/200/4 252/391/4
f 257/362/2 295/177/2 259/176/2 258/388/2
f 237/384/2 296/108/2 246/107/2 238/385/2
f 243/371/4 297/398/4 245/399/4 244/381/4
f 226/367/4 298/400/4 232/401/4 227/375/4
f 219/374/2 299/402/2 221/346/2 220/319/2
f 227/375/4 232/401/4 304/403/4 302/404/4
f 223/376/4 227/375/4 302/404/4 300/364/4
f 277/179/4 225/378/4 301/363/4 303/180/4
f 225/378/4 223/376/4 300/364/4 301/363/4
f 228/405/2 231/406/2 299/402/2 219/374/2
f 229/407/2 228/405/2 219/374/2 215/373/2
f 276/99/2 230/408/2 217/372/2 291/100/2
f 230/408/2 229/407/2 215/373/2 217/372/2
f 244/381/4 245/399/4 309/409/4 307/323/4
f 242/380/4 240/379/4 305/322/4 306/328/4
f 278/330/4 242/380/4 306/328/4 308/327/4
f 240/379/4 244/381/4 307/323/4 305/322/4
f 238/385/2 246/107/2 314/410/2 312/312/2
f 236/383/2 234/382/2 310/311/2 311/321/2
f 279/339/2 236/383/2 311/321/2 313/320/2
f 234/382/2 238/385/2 312/312/2 310/311/2
f 252/391/4 260/200/4 319/411/4 317/241/4
f 250/390/4 248/389/4 315/240/4 316/254/4
f 281/356/4 250/390/4 316/254/4 318/253/4
f 248/389/4 252/391/4 317/241/4 315/240/4
f 258/388/2 259/176/2 324/412/2 322/203/2
f 256/387/2 254/386/2 320/202/2 321/224/2
f 280/342/2 256/387/2 321/224/2 323/223/2
f 254/386/2 258/388/2 322/203/2 320/202/2
f 272/392/4 273/221/4 329/365/4 327/242/4
f 268/393/4 272/392/4 327/242/4 325/211/4
f 282/359/4 270/394/4 326/210/4 328/225/4
f 270/394/4 268/393/4 325/211/4 326/210/4
f 266/395/2 274/238/2 334/357/2 332/212/2
f 262/396/2 266/395/2 332/212/2 330/173/2
f 283/366/2 264/397/2 331/172/2 333/197/2
f 264/397/2 262/396/2 330/173/2 331/172/2
f 99/188/15 119/13/15 304/403/15 232/401/15
f 157/189/15 100/192/15 245/399/15 297/398/15
f 119/13/43 110/49/43 302/404/43 304/403/43
f 129/185/15 99/188/15 232/401/15 298/400/15
f 142/113/13 82/286/13 278/330/13 308/327/13
f 98/171/15 130/89/15 299/402/15 231/406/15
f 55/160/44 57/159/44 228/405/44 229/407/44
f 156/69/13 83/282/13 279/339/13 313/320/13
f 80/98/45 56/163/45 230/408/45 276/99/45
f 100/192/15 144/121/15 309/409/15 245/399/15
f 126/335/46 129/185/46 298/400/46 226/367/46
f 56/163/47 55/160/47 229/407/47 230/408/47
f 144/121/48 135/110/48 307/323/48 309/409/48
f 170/65/13 85/274/13 281/356/13 318/253/13
f 101/106/15 158/85/15 314/410/15 246/107/15
f 140/343/48 143/105/48 296/108/48 237/384/48
f 57/159/49 98/171/49 231/406/49 228/405/49
f 130/89/15 94/92/15 221/346/15 299/402/15
f 158/85/50 149/58/50 312/312/50 314/410/50
f 184/145/13 84/278/13 280/342/13 323/223/13
f 103/199/15 172/81/15 319/411/15 260/200/15
f 154/353/50 157/189/50 297/398/50 243/371/50
f 172/81/51 163/62/51 317/241/51 319/411/51
f 138/344/31 140/343/31 237/384/31 233/369/31
f 198/137/13 86/270/13 282/359/13 328/225/13
f 125/337/52 124/336/52 222/368/52 224/377/52
f 102/175/15 186/153/15 324/412/15 259/176/15
f 168/358/51 171/174/51 295/177/51 257/362/51
f 141/281/33 139/345/33 235/370/33 288/338/33
f 127/289/53 125/337/53 224/377/53 290/324/53
f 186/153/41 177/142/41 322/203/41 324/412/41
f 110/49/54 108/26/54 300/364/54 302/404/54
f 415/413/5 427/414/5 365/415/5 351/416/5
f 405/417/6 426/418/6 364/419/6 338/420/6
f 411/421/5 425/422/5 363/423/5 347/424/5
f 414/425/5 424/426/5 362/427/5 350/428/5
f 409/429/5 423/430/5 361/431/5 345/432/5
f 413/433/5 422/434/5 360/435/5 349/436/5
f 410/437/5 421/438/5 359/439/5 346/440/5
f 412/441/5 420/442/5 358/443/5 348/444/5
f 404/445/5 418/446/5 356/447/5 335/448/5
f 394/449/1 396/450/1 355/451/1 344/452/1
f 408/453/3 417/454/3 354/455/3 343/456/3
f 366/457/9 395/458/9 353/459/9 335/460/9
f 398/461/10 416/462/10 352/463/10 337/464/10
f 425/422/5 415/413/5 351/416/5 363/423/5
f 423/430/5 414/425/5 350/428/5 361/431/5
f 421/438/5 413/433/5 349/436/5 359/439/5
f 418/446/5 412/441/5 348/444/5 356/447/5
f 424/426/5 411/421/5 347/424/5 362/427/5
f 420/442/5 410/437/5 346/440/5 358/443/5
f 422/434/5 409/429/5 345/432/5 360/435/5
f 392/465/12 394/449/12 344/452/12 340/466/12
f 406/467/11 408/453/11 343/456/11 339/468/11
f 416/462/10 407/469/10 342/470/10 352/463/10
f 395/458/9 393/471/9 341/472/9 353/459/9
f 393/471/8 392/465/8 340/466/8 341/472/8
f 407/469/7 406/467/7 339/468/7 342/470/7
f 419/473/6 397/474/6 336/475/6 357/476/6
f 427/414/5 398/461/5 337/464/5 365/415/5
f 417/454/3 405/417/3 338/420/3 354/455/3
f 396/450/1 390/477/1 336/478/1 355/451/1
f 515/479/1 509/480/1 390/477/1 396/450/1
f 512/481/8 511/482/8 392/465/8 393/471/8
f 514/483/9 512/481/9 393/471/9 395/458/9
f 511/482/12 513/484/12 394/449/12 392/465/12
f 472/485/9 514/483/9 395/458/9 366/457/9
f 513/484/1 515/479/1 396/450/1 394/449/1
f 351/416/5 365/415/5 389/486/5 377/487/5
f 338/420/6 364/419/6 388/488/6 367/489/6
f 347/424/5 363/423/5 387/490/5 373/491/5
f 350/428/5 362/427/5 386/492/5 376/493/5
f 345/432/5 361/431/5 385/494/5 371/495/5
f 349/436/5 360/435/5 384/496/5 375/497/5
f 346/440/5 359/439/5 383/498/5 372/499/5
f 348/444/5 358/443/5 382/500/5 374/501/5
f 484/182/55 495/181/55 584/502/55 579/503/55
f 335/448/5 356/447/5 380/504/5 366/505/5
f 343/456/3 354/455/3 379/506/3 370/507/3
f 337/464/10 352/463/10 378/508/10 391/509/10
f 363/423/5 351/416/5 377/487/5 387/490/5
f 458/510/56 447/511/56 564/512/56 569/513/56
f 498/117/57 485/194/57 580/514/57 585/515/57
f 361/431/5 350/428/5 376/493/5 385/494/5
f 359/439/5 349/436/5 375/497/5 383/498/5
f 448/516/58 461/517/58 570/518/58 565/519/58
f 485/194/59 499/193/59 586/520/59 580/514/59
f 356/447/5 348/444/5 374/501/5 380/504/5
f 362/427/5 347/424/5 373/491/5 386/492/5
f 462/521/60 448/516/60 565/519/60 571/522/60
f 499/193/61 477/74/61 576/523/61 586/520/61
f 358/443/5 346/440/5 372/499/5 382/500/5
f 360/435/5 345/432/5 371/495/5 384/496/5
f 440/524/62 462/521/62 571/522/62 561/525/62
f 339/468/11 343/456/11 370/507/11 368/526/11
f 352/463/10 342/470/10 369/527/10 378/508/10
f 342/470/7 339/468/7 368/526/7 369/527/7
f 357/476/6 336/475/6 390/528/6 381/529/6
f 365/415/5 337/464/5 391/509/5 389/486/5
f 354/455/3 338/420/3 367/489/3 379/506/3
f 455/530/3 436/531/3 405/417/3 417/454/3
f 471/532/5 429/533/5 398/461/5 427/414/5
f 457/534/6 428/535/6 397/474/6 419/473/6
f 438/536/7 437/537/7 406/467/7 407/469/7
f 454/538/10 438/536/10 407/469/10 416/462/10
f 437/537/11 439/539/11 408/453/11 406/467/11
f 488/229/63 503/228/63 588/540/63 581/541/63
f 463/542/5 441/543/5 409/429/5 422/434/5
f 459/544/5 442/545/5 410/437/5 420/442/5
f 466/546/64 451/547/64 566/548/64 573/549/64
f 502/73/65 488/229/65 581/541/65 587/550/65
f 467/551/5 445/552/5 411/421/5 424/426/5
f 456/553/5 446/554/5 412/441/5 418/446/5
f 451/547/66 465/555/66 572/556/66 566/548/66
f 489/248/67 507/247/67 590/557/67 582/558/67
f 460/559/5 449/560/5 413/433/5 421/438/5
f 464/561/5 450/562/5 414/425/5 423/430/5
f 470/563/68 452/564/68 567/565/68 575/566/68
f 503/228/69 481/130/69 578/567/69 588/540/69
f 468/568/5 453/569/5 415/413/5 425/422/5
f 429/533/10 454/538/10 416/462/10 398/461/10
f 439/539/3 455/530/3 417/454/3 408/453/3
f 435/570/5 456/553/5 418/446/5 404/445/5
f 444/571/70 466/546/70 573/549/70 563/572/70
f 477/74/71 502/73/71 587/550/71 576/523/71
f 446/554/5 459/544/5 420/442/5 412/441/5
f 442/545/5 460/559/5 421/438/5 410/437/5
f 457/534/72 419/473/72 530/573/72 568/574/72
f 465/555/73 440/524/73 561/525/73 572/556/73
f 449/560/5 463/542/5 422/434/5 413/433/5
f 441/543/5 464/561/5 423/430/5 409/429/5
f 426/418/74 470/563/74 575/566/74 544/575/74
f 357/476/75 381/529/75 553/576/75 531/577/75
f 450/562/5 467/551/5 424/426/5 414/425/5
f 445/552/5 468/568/5 425/422/5 411/421/5
f 388/488/76 364/419/76 545/578/76 560/579/76
f 436/531/6 470/563/6 426/418/6 405/417/6
f 453/569/5 471/532/5 427/414/5 415/413/5
f 344/452/1 355/451/1 403/580/1 401/581/1
f 335/460/9 353/459/9 402/582/9 404/583/9
f 340/466/12 344/452/12 401/581/12 399/584/12
f 353/459/9 341/472/9 400/585/9 402/582/9
f 341/472/8 340/466/8 399/584/8 400/585/8
f 355/451/1 336/478/1 397/586/1 403/580/1
f 68/587/5 206/588/5 471/532/5 453/569/5
f 8/7/6 201/589/6 470/563/6 436/531/6
f 66/590/6 192/591/6 469/592/6 452/564/6
f 46/593/5 187/594/5 468/568/5 445/552/5
f 62/595/5 178/596/5 467/551/5 450/562/5
f 41/597/6 173/598/6 466/546/6 444/571/6
f 64/599/6 164/600/6 465/555/6 451/547/6
f 21/601/5 159/602/5 464/561/5 441/543/5
f 60/603/5 150/604/5 463/542/5 449/560/5
f 22/605/6 145/606/6 462/521/6 440/524/6
f 58/607/6 136/608/6 461/517/6 448/516/6
f 31/609/5 131/610/5 460/559/5 442/545/5
f 51/611/5 122/612/5 459/544/5 446/554/5
f 36/613/6 120/614/6 458/510/6 443/615/6
f 53/616/6 111/617/6 457/534/6 447/511/6
f 3/618/5 106/619/5 456/553/5 435/570/5
f 19/54/3 90/8/3 455/530/3 439/539/3
f 7/308/10 71/44/10 454/538/10 429/533/10
f 187/594/5 68/587/5 453/569/5 468/568/5
f 201/589/6 66/590/6 452/564/6 470/563/6
f 173/598/6 64/599/6 451/547/6 466/546/6
f 159/602/5 62/595/5 450/562/5 464/561/5
f 131/610/5 60/603/5 449/560/5 460/559/5
f 145/606/6 58/607/6 448/516/6 462/521/6
f 120/614/6 53/616/6 447/511/6 458/510/6
f 106/619/5 51/611/5 446/554/5 456/553/5
f 178/596/5 46/593/5 445/552/5 467/551/5
f 192/591/6 41/597/6 444/571/6 469/592/6
f 136/608/6 36/613/6 443/615/6 461/517/6
f 122/612/5 31/609/5 442/545/5 459/544/5
f 150/604/5 21/601/5 441/543/5 463/542/5
f 164/600/6 22/605/6 440/524/6 465/555/6
f 11/35/11 19/54/11 439/539/11 437/537/11
f 71/44/10 14/36/10 438/536/10 454/538/10
f 14/36/7 11/35/7 437/537/7 438/536/7
f 111/617/6 4/620/6 428/535/6 457/534/6
f 206/588/5 7/308/5 429/533/5 471/532/5
f 90/8/3 8/7/3 436/531/3 455/530/3
f 401/581/1 403/580/1 434/1/1 432/55/1
f 404/583/9 402/582/9 433/41/9 435/309/9
f 399/584/12 401/581/12 432/55/12 430/38/12
f 402/582/9 400/585/9 431/37/9 433/41/9
f 400/585/8 399/584/8 430/38/8 431/37/8
f 403/580/1 397/586/1 428/2/1 434/1/1
f 17/621/1 88/622/1 515/479/1 513/484/1
f 1/623/9 73/624/9 514/483/9 472/485/9
f 9/625/12 17/621/12 513/484/12 511/482/12
f 73/624/9 16/626/9 512/481/9 514/483/9
f 16/626/8 9/625/8 511/482/8 512/481/8
f 88/622/1 2/627/1 509/480/1 515/479/1
f 377/487/5 389/486/5 508/17/5 490/260/5
f 367/489/6 388/488/6 507/247/6 473/10/6
f 419/473/77 357/476/77 531/577/77 530/573/77
f 373/491/5 387/490/5 505/259/5 482/150/5
f 376/493/5 386/492/5 504/149/5 487/216/5
f 506/129/78 489/248/78 582/558/78 589/628/78
f 364/419/79 426/418/79 544/575/79 545/578/79
f 371/495/5 385/494/5 501/215/5 478/78/5
f 375/497/5 384/496/5 500/77/5 486/207/5
f 452/564/80 469/592/80 574/629/80 567/565/80
f 480/118/81 498/117/81 585/515/81 577/630/81
f 372/499/5 383/498/5 497/206/5 479/94/5
f 374/501/5 382/500/5 496/93/5 483/165/5
f 461/517/82 443/615/82 562/631/82 570/518/82
f 494/21/83 484/182/83 579/503/83 583/632/83
f 366/505/5 380/504/5 493/164/5 472/325/5
f 370/507/3 379/506/3 492/9/3 476/51/3
f 391/509/10 378/508/10 491/45/10 510/18/10
f 387/490/5 377/487/5 490/260/5 505/259/5
f 447/511/84 457/534/84 568/574/84 564/512/84
f 481/130/85 506/129/85 589/628/85 578/567/85
f 385/494/5 376/493/5 487/216/5 501/215/5
f 383/498/5 375/497/5 486/207/5 497/206/5
f 469/592/86 444/571/86 563/572/86 574/629/86
f 495/181/87 480/118/87 577/630/87 584/502/87
f 380/504/5 374/501/5 483/165/5 493/164/5
f 386/492/5 373/491/5 482/150/5 504/149/5
f 443/615/88 458/510/88 569/513/88 562/631/88
f 381/529/89 494/21/89 583/632/89 553/576/89
f 382/500/5 372/499/5 479/94/5 496/93/5
f 384/496/5 371/495/5 478/78/5 500/77/5
f 507/247/90 388/488/90 560/579/90 590/557/90
f 368/526/11 370/507/11 476/51/11 474/30/11
f 378/508/10 369/527/10 475/29/10 491/45/10
f 369/527/7 368/526/7 474/30/7 475/29/7
f 381/529/6 390/528/6 509/22/6 494/21/6
f 389/486/5 391/509/5 510/18/5 508/17/5
f 379/506/3 367/489/3 473/10/3 492/9/3
f 528/633/91 542/634/91 543/635/91 529/636/91
f 520/637/91 540/638/91 541/639/91 521/640/91
f 526/641/91 538/642/91 539/643/91 527/644/91
f 516/645/91 536/646/91 537/647/91 517/648/91
f 524/649/91 534/650/91 535/651/91 525/652/91
f 518/653/91 532/654/91 533/655/91 519/656/91
f 522/657/91 530/573/91 531/577/91 523/658/91
f 544/575/91 528/633/91 529/636/91 545/578/91
f 540/638/91 526/641/91 527/644/91 541/639/91
f 536/646/91 524/649/91 525/652/91 537/647/91
f 532/654/91 522/657/91 523/658/91 533/655/91
f 542/634/91 520/637/91 521/640/91 543/635/91
f 534/650/91 518/653/91 519/656/91 535/651/91
f 538/642/91 516/645/91 517/648/91 539/643/91
f 529/636/91 543/635/91 559/659/91 552/660/91
f 521/640/91 541/639/91 558/661/91 548/662/91
f 527/644/91 539/643/91 557/663/91 551/664/91
f 517/648/91 537/647/91 556/665/91 546/666/91
f 525/652/91 535/651/91 555/667/91 550/668/91
f 519/656/91 533/655/91 554/669/91 547/670/91
f 523/658/91 531/577/91 553/576/91 549/671/91
f 545/578/91 529/636/91 552/660/91 560/579/91
f 541/639/91 527/644/91 551/664/91 558/661/91
f 537/647/91 525/652/91 550/668/91 556/665/91
f 533/655/91 523/658/91 549/671/91 554/669/91
f 543/635/91 521/640/91 548/662/91 559/659/91
f 535/651/91 519/656/91 547/670/91 555/667/91
f 539/643/91 517/648/91 546/666/91 557/663/91
f 572/556/91 561/525/91 516/645/91 538/642/91
f 570/518/91 562/631/91 518/653/91 534/650/91
f 574/629/91 563/572/91 520/637/91 542/634/91
f 569/513/91 564/512/91 522/657/91 532/654/91
f 571/522/91 565/519/91 524/649/91 536/646/91
f 573/549/91 566/548/91 526/641/91 540/638/91
f 575/566/91 567/565/91 528/633/91 544/575/91
f 564/512/91 568/574/91 530/573/91 522/657/91
f 562/631/91 569/513/91 532/654/91 518/653/91
f 565/519/91 570/518/91 534/650/91 524/649/91
f 561/525/91 571/522/91 536/646/91 516/645/91
f 566/548/91 572/556/91 538/642/91 526/641/91
f 563/572/91 573/549/91 540/638/91 520/637/91
f 567/565/91 574/629/91 542/634/91 528/633/91
f 552/660/91 559/659/91 589/628/91 582/558/91
f 548/662/91 558/661/91 588/540/91 578/567/91
f 551/664/91 557/663/91 587/550/91 581/541/91
f 546/666/91 556/665/91 586/520/91 576/523/91
f 550/668/91 555/667/91 585/515/91 580/514/91
f 547/670/91 554/669/91 584/502/91 577/630/91
f 549/671/91 553/576/91 583/632/91 579/503/91
f 560/579/91 552/660/91 582/558/91 590/557/91
f 558/661/91 551/664/91 581/541/91 588/540/91
f 556/665/91 550/668/91 580/514/91 586/520/91
f 554/669/91 549/671/91 579/503/91 584/502/91
f 559/659/91 548/662/91 578/567/91 589/628/91
f 555/667/91 547/670/91 577/630/91 585/515/91
f 557/663/91 546/666/91 576/523/91 587/550/91
