# Blender v2.92.0 OBJ File: 'electric_pole.blend'
# www.blender.org
mtllib electric_pole.mtl
o Cube_Cube.001
v -0.339821 -0.339821 0.339821
v -0.339821 11.845147 0.339821
v -0.339821 -0.339821 -0.339821
v -0.339821 11.845147 -0.339821
v 0.339821 -0.339821 0.339821
v 0.339821 11.845147 0.339821
v 0.339821 -0.339821 -0.339821
v 0.339821 11.845147 -0.339821
v -0.339821 12.452100 0.339821
v -0.339821 12.452100 -0.339821
v 0.339821 12.452100 -0.339821
v 0.339821 12.452100 0.339821
v -0.339821 13.963192 0.339821
v -0.339821 13.963192 -0.339821
v 0.339821 13.963192 -0.339821
v 0.339821 13.963192 0.339821
v 3.643296 13.960278 -0.339821
v 3.643296 13.960278 0.339821
v 3.036343 13.960278 -0.339821
v 3.036343 13.960278 0.339821
v -3.643296 13.952682 0.339821
v -3.643296 13.952682 -0.339821
v -3.036343 13.952682 0.339821
v -3.036343 13.952682 -0.339821
vt 0.712881 0.556991
vt 0.065087 0.077939
vt 0.712881 0.163024
vt 0.304203 0.999916
vt 0.647878 0.922061
vt 0.000085 0.443009
vt 0.000084 0.836976
vt 0.408763 0.000084
vt 0.125000 0.500000
vt 0.375000 0.500000
vt 0.375000 0.750000
vt 0.125000 0.750000
vt 0.140830 0.999925
vt 0.000075 0.999925
vt 0.000075 0.000075
vt 0.140830 0.000075
vt 0.212274 0.709592
vt 0.318369 0.709592
vt 0.318369 0.999916
vt 0.212274 0.999916
vt 0.067807 0.453133
vt 0.000135 0.453038
vt 0.235534 0.000049
vt 0.235457 0.083337
vt 0.648287 0.400814
vt 0.491657 0.400814
vt 0.491657 0.228655
vt 0.648287 0.228655
vt 0.351713 0.421432
vt 0.351713 0.228655
vt 0.491591 0.228656
vt 0.491591 0.421432
vt 0.625000 0.500000
vt 0.875000 0.500000
vt 0.875000 0.750000
vt 0.625000 0.750000
vt 0.000084 0.709592
vt 0.106179 0.709592
vt 0.106179 0.999916
vt 0.000084 0.999916
vt 0.625000 0.750000
vt 0.625000 0.500000
vt 0.424632 0.710303
vt 0.318537 0.710303
vt 0.318537 0.593690
vt 0.424632 0.593690
vt 0.067721 0.453603
vt 0.000049 0.453697
vt 0.235457 0.000049
vt 0.235534 0.083338
vt 0.000049 0.546302
vt 0.067721 0.546397
vt 0.235534 0.916662
vt 0.235457 0.999951
vt 0.318537 0.000084
vt 0.424632 0.000084
vt 0.106179 0.000084
vt 0.212274 0.000084
vt 0.212274 0.116696
vt 0.106179 0.116696
vt 0.140981 0.173313
vt 0.140980 0.000075
vt 0.952513 0.000076
vt 0.952513 0.173313
vt 0.000135 0.546961
vt 0.067807 0.546867
vt 0.235457 0.916663
vt 0.235534 0.999951
vn -1.0000 0.0000 0.0000
vn 0.0000 0.0000 -1.0000
vn 1.0000 0.0000 0.0000
vn 0.0000 0.0000 1.0000
vn 0.0000 -1.0000 0.0000
vn 0.5392 -0.8422 0.0000
vn 0.0000 1.0000 0.0000
vn -0.4881 0.8728 0.0000
vn -0.5378 -0.8430 0.0000
vn 0.4863 0.8738 0.0000
usemtl wood
s off
f 1/1/1 2/2/1 4/3/1 3/4/1
f 3/4/2 4/3/2 8/5/2 7/6/2
f 7/6/3 8/5/3 6/7/3 5/8/3
f 5/8/4 6/7/4 2/2/4 1/1/4
f 3/9/5 7/10/5 5/11/5 1/12/5
f 6/13/6 8/14/6 17/15/6 18/16/6
f 9/17/4 12/18/4 16/19/4 13/20/4
f 10/21/2 4/22/2 22/23/2 24/24/2
f 2/25/4 6/26/4 12/27/4 9/28/4
f 8/29/2 4/30/2 10/31/2 11/32/2
f 15/33/7 14/34/7 13/35/7 16/36/7
f 11/37/2 10/38/2 14/39/2 15/40/2
f 12/41/3 11/42/3 15/33/3 16/36/3
f 10/38/1 9/17/1 13/20/1 14/39/1
f 18/43/7 17/44/7 19/45/7 20/46/7
f 12/47/4 6/48/4 18/49/4 20/50/4
f 8/51/2 11/52/2 19/53/2 17/54/2
f 11/55/8 12/56/8 20/46/8 19/45/8
f 22/57/7 21/58/7 23/59/7 24/60/7
f 4/61/9 2/62/9 21/63/9 22/64/9
f 2/65/4 9/66/4 23/67/4 21/68/4
f 9/17/10 10/38/10 24/60/10 23/59/10
