# Blender v2.92.0 OBJ File: 'zombie_sphaggeti.blend'
# www.blender.org
mtllib complete.mtl
o leg_r_Cube.002
v 0.000000 -0.031147 -0.071609
v 0.000000 0.031147 -0.071609
v -0.229992 -0.031147 -0.301601
v -0.302806 -0.011023 -0.301601
v 0.229992 -0.031147 -0.301601
v 0.229992 0.031147 -0.301601
v 0.000000 -0.031147 -0.531593
v 0.000000 0.031147 -0.531593
v -0.114996 -0.031147 -0.416597
v -0.187810 -0.011023 -0.416597
v 0.114996 -0.031147 -0.186605
v 0.114996 0.031147 -0.186605
v -0.114996 -0.031147 -0.186605
v -0.187810 -0.011023 -0.186605
v 0.114996 -0.031147 -0.416597
v 0.114996 0.031147 -0.416597
v -0.072814 -0.011023 -0.301601
v 0.000000 -0.031147 -0.301601
v 0.339333 0.538245 -0.361814
v 0.399546 0.538245 -0.301601
v 0.339333 0.538245 -0.241388
v 0.240994 0.516164 -0.301601
v 0.003534 1.179669 -0.161814
v 0.063746 1.179669 -0.101601
v 0.003534 1.179669 -0.041388
v -0.094805 1.157588 -0.101601
v 0.227164 0.284696 -0.213997
v 0.084090 0.252570 -0.301601
v 0.227164 0.284696 -0.389206
v 0.314769 0.284696 -0.301601
v 0.283249 0.411470 -0.227692
v 0.162542 0.484512 -0.301601
v 0.283249 0.411470 -0.375510
v 0.357157 0.411470 -0.301601
v -0.162886 0.522698 -0.413156
v 0.255207 0.348083 -0.382358
v 0.335963 0.348083 -0.301601
v 0.255207 0.348083 -0.220844
vt 0.375000 0.125000
vt 0.625000 0.125000
vt 0.625000 0.250000
vt 0.375000 0.250000
vt 0.375000 0.375000
vt 0.625000 0.375000
vt 0.625000 0.500000
vt 0.375000 0.500000
vt -0.025691 0.999977
vt -0.027558 0.948509
vt 0.025728 0.947690
vt 0.027294 0.999524
vt 0.375000 0.875000
vt 0.625000 0.875000
vt 0.625000 1.000000
vt 0.375000 1.000000
vt 0.250000 0.625000
vt 0.375000 0.625000
vt 0.375000 0.750000
vt 0.250000 0.750000
vt 0.750000 0.625000
vt 1.000737 0.625000
vt 1.000737 0.875737
vt 0.750000 0.875737
vt 0.887481 0.095156
vt 0.999956 0.189693
vt 0.769178 0.123847
vt 0.820606 0.095281
vt 0.125000 0.625000
vt 0.125000 0.750000
vt 0.079137 0.948012
vt 0.079697 0.999281
vt 0.125000 0.500000
vt 0.250000 0.500000
vt 0.499263 0.374263
vt 0.750000 0.374263
vt 0.499263 0.625000
vt 1.000737 0.374263
vt 0.625000 0.625000
vt 0.375000 0.000000
vt 0.625000 0.000000
vt 0.768793 0.066749
vt 0.024385 0.105685
vt 0.000967 0.076864
vt 0.999956 0.000044
vt 0.019447 0.632114
vt -0.014286 0.633011
vt -0.010034 0.528722
vt 0.017409 0.528739
vt 0.053208 0.632692
vt 0.044778 0.528469
vt 0.625000 0.625000
vt 0.750000 0.625000
vt 0.750000 0.750000
vt 0.625000 0.750000
vt 0.052295 0.001097
vt 0.079697 0.000023
vt 0.000044 0.133812
vt 0.024854 0.000289
vt 0.021534 0.736237
vt 0.061558 0.736920
vt -0.018456 0.737299
vt 0.153115 0.253059
vt 0.000050 0.126555
vt 0.883345 0.126555
vt 0.999950 0.222926
vt 0.153115 0.000050
vt 0.999950 0.030184
vt 0.057381 0.684807
vt 0.020490 0.684171
vt -0.016369 0.685156
vt 0.642291 0.072216
vt 0.184462 0.194442
vt 0.006164 0.061309
vt 0.358924 0.000098
vt 0.121317 0.720851
vt 0.000098 0.438030
vt 0.999902 0.859400
vt 0.618638 0.964921
vt 0.999902 0.474849
vn -0.2574 -0.9314 0.2574
vn -0.5021 -0.4436 -0.7424
vn 0.7071 0.0000 -0.7071
vn 0.7071 0.0000 0.7071
vn 0.0000 -1.0000 0.0000
vn -0.1366 0.9812 -0.1366
vn -0.4036 0.4133 0.8162
vn -0.2574 -0.9314 -0.2574
vn -0.1366 0.9812 0.1366
vn 0.0000 1.0000 0.0000
vn -0.5021 -0.4436 0.7424
vn -0.5211 -0.0067 -0.8535
vn -0.4036 0.4133 -0.8162
vn 0.6881 -0.2301 -0.6881
vn 0.6881 -0.2301 0.6881
vn -0.1379 0.9904 -0.0000
vn 0.6993 0.1481 0.6993
vn -0.3891 -0.4537 0.8018
vn 0.6088 0.5086 -0.6088
vn -0.5458 0.3249 -0.7723
vn -0.5458 0.3249 0.7723
vn 0.2149 0.6014 -0.7695
vn -0.2895 0.3343 0.8969
vn -0.4401 0.0297 0.8974
vn -0.1938 -0.4074 -0.8925
usemtl metal
s off
f 13/1/1 14/2/1 4/3/1 3/4/1
f 9/5/2 10/6/2 8/7/2 7/8/2
f 15/9/3 16/10/3 6/11/3 5/12/3
f 11/13/4 12/14/4 2/15/4 1/16/4
f 18/17/5 15/18/5 5/19/5 11/20/5
f 17/21/6 14/22/6 2/23/6 12/24/6
f 32/25/7 31/26/7 21/27/7 22/28/7
f 13/29/5 18/17/5 11/20/5 1/30/5
f 5/12/4 6/11/4 12/31/4 11/32/4
f 3/4/8 4/3/8 10/6/8 9/5/8
f 3/33/5 9/34/5 18/17/5 13/29/5
f 8/35/9 10/36/9 17/21/9 16/37/9
f 10/36/10 4/38/10 14/22/10 17/21/10
f 9/34/5 7/8/5 15/18/5 18/17/5
f 7/8/3 8/7/3 16/39/3 15/18/3
f 1/40/11 2/41/11 14/2/11 13/1/11
f 19/42/12 22/28/12 26/43/12 23/44/12
f 33/45/13 32/25/13 22/28/13 19/42/13
f 34/46/14 33/47/14 19/48/14 20/49/14
f 31/50/15 34/46/15 20/49/15 21/51/15
f 23/52/16 26/53/16 25/54/16 24/55/16
f 21/51/17 20/49/17 24/56/17 25/57/17
f 22/28/18 21/27/18 25/58/18 26/43/18
f 20/49/19 19/48/19 23/59/19 24/56/19
f 12/31/15 6/11/15 30/60/15 27/61/15
f 6/11/14 16/10/14 29/62/14 30/60/14
f 16/63/20 17/64/20 28/65/20 29/66/20
f 17/64/21 12/67/21 27/68/21 28/65/21
f 38/69/15 37/70/15 34/46/15 31/50/15
f 37/70/14 36/71/14 33/47/14 34/46/14
f 36/72/22 35/73/22 32/74/22 33/75/22
f 35/73/23 38/76/23 31/77/23 32/74/23
f 28/78/24 27/79/24 38/76/24 35/73/24
f 29/80/25 28/78/25 35/73/25 36/72/25
f 30/60/14 29/62/14 36/71/14 37/70/14
f 27/61/15 30/60/15 37/70/15 38/69/15
o leg_l_Cube.003
v 0.000000 -0.031147 0.535075
v 0.000000 0.031147 0.535075
v -0.229992 -0.031147 0.305083
v -0.302806 -0.011023 0.305083
v 0.229992 -0.031147 0.305083
v 0.229992 0.031147 0.305083
v 0.000000 -0.031147 0.075091
v 0.000000 0.031147 0.075091
v -0.114996 -0.031147 0.190087
v -0.187810 -0.011023 0.190087
v 0.114996 -0.031147 0.420079
v 0.114996 0.031147 0.420079
v -0.114996 -0.031147 0.420079
v -0.187810 -0.011023 0.420079
v 0.114996 -0.031147 0.190087
v 0.114996 0.031147 0.190087
v -0.072814 -0.011023 0.305083
v 0.000000 -0.031147 0.305083
v 0.339333 0.538245 0.244870
v 0.399546 0.538245 0.305083
v 0.339333 0.538245 0.365296
v 0.240994 0.516164 0.305083
v 0.003534 1.179669 0.044870
v 0.063746 1.179669 0.105083
v 0.003534 1.179669 0.165296
v -0.094805 1.157588 0.105083
v 0.317404 0.545981 0.436146
v 0.210319 0.464632 0.305083
v 0.317404 0.488676 0.239515
v 0.382972 0.488676 0.305083
v 0.184630 0.421474 0.305083
v 0.299039 0.447163 0.235030
v 0.369092 0.447163 0.305083
v 0.299039 0.447163 0.375136
vt 0.375000 0.125000
vt 0.625000 0.125000
vt 0.625000 0.250000
vt 0.375000 0.250000
vt 0.375000 0.375000
vt 0.625000 0.375000
vt 0.625000 0.500000
vt 0.375000 0.500000
vt 0.058085 0.000760
vt 0.056613 0.052093
vt 0.030946 0.051357
vt 0.032419 0.000024
vt 0.375000 0.875000
vt 0.625000 0.875000
vt 0.625000 1.000000
vt 0.375000 1.000000
vt 0.250000 0.625000
vt 0.375000 0.625000
vt 0.375000 0.750000
vt 0.250000 0.750000
vt 0.346229 0.346229
vt 0.346229 0.000100
vt 0.999900 0.109682
vt 0.999899 0.455810
vt 0.450992 0.577474
vt 0.339191 0.134499
vt 0.363563 0.089755
vt 0.476561 0.200177
vt 0.125000 0.625000
vt 0.125000 0.750000
vt 0.069917 0.002576
vt 0.064818 0.132159
vt 0.000026 0.129610
vt 0.005125 0.000026
vt 0.125000 0.500000
vt 0.250000 0.500000
vt 0.109682 0.999900
vt 0.000100 0.346229
vt 0.455811 0.999900
vt 0.000100 0.000100
vt 0.071877 0.093490
vt 0.071877 0.000033
vt 0.118605 0.000033
vt 0.118605 0.093490
vt 0.375000 0.000000
vt 0.625000 0.000000
vt 0.071810 0.968851
vt 0.036782 0.999967
vt 0.036784 0.031148
vt 0.071810 0.000033
vt 0.632050 0.392271
vt 0.626653 0.026089
vt 0.003047 0.428274
vt 0.017681 0.428694
vt 0.013463 0.469494
vt 0.000024 0.469109
vt 0.087970 0.254255
vt 0.305926 0.000079
vt 0.625000 0.625000
vt 0.750000 0.625000
vt 0.750000 0.750000
vt 0.625000 0.750000
vt 0.000016 0.000735
vt 0.025242 0.000016
vt 0.025242 0.999266
vt 0.000016 0.999984
vt 0.000034 0.970903
vt 0.000033 0.002083
vt 0.058085 0.999976
vt 0.044647 0.999590
vt 0.165462 0.668792
vt 0.000079 0.621180
vt 0.005578 0.394076
vt 0.021213 0.394524
vt 0.632050 0.747754
vt 0.351343 0.999921
vt 0.000040 0.082044
vt 0.099262 0.000040
vt 0.999959 0.032092
vt 0.939514 0.082048
vt 0.099262 0.164049
vt 0.999959 0.132005
vt 0.069917 0.999974
vt 0.030448 0.998420
vn -0.2574 -0.9314 0.2574
vn -0.5021 -0.4436 -0.7424
vn 0.7071 0.0000 -0.7071
vn 0.7071 0.0000 0.7071
vn 0.0000 -1.0000 0.0000
vn -0.1366 0.9812 -0.1366
vn -0.5339 0.8368 0.1209
vn -0.2574 -0.9314 -0.2574
vn -0.1366 0.9812 0.1366
vn 0.0000 1.0000 0.0000
vn -0.5021 -0.4436 0.7424
vn -0.3891 -0.4537 -0.8018
vn -0.5458 0.3249 -0.7723
vn 0.6881 -0.2301 -0.6881
vn 0.8452 0.1084 0.5233
vn -0.1379 0.9904 0.0000
vn 0.6088 0.5086 0.6088
vn -0.5211 -0.0067 0.8535
vn 0.6993 0.1481 -0.6993
vn 0.6952 -0.4149 0.5870
vn -0.6302 -0.1332 0.7649
vn -0.5458 0.3249 0.7723
vn 0.6881 -0.2301 0.6881
usemtl metal.001
s off
f 51/81/26 52/82/26 42/83/26 41/84/26
f 47/85/27 48/86/27 46/87/27 45/88/27
f 53/89/28 54/90/28 44/91/28 43/92/28
f 49/93/29 50/94/29 40/95/29 39/96/29
f 56/97/30 53/98/30 43/99/30 49/100/30
f 55/101/31 52/102/31 40/103/31 50/104/31
f 66/105/32 65/106/32 59/107/32 60/108/32
f 51/109/30 56/97/30 49/100/30 39/110/30
f 43/111/29 44/112/29 50/113/29 49/114/29
f 41/84/33 42/83/33 48/86/33 47/85/33
f 41/115/30 47/116/30 56/97/30 51/109/30
f 46/117/34 48/118/34 55/101/34 54/119/34
f 48/118/35 42/120/35 52/102/35 55/101/35
f 47/116/30 45/88/30 53/98/30 56/97/30
f 45/121/28 46/122/28 54/123/28 53/124/28
f 39/125/36 40/126/36 52/82/36 51/81/36
f 57/127/37 60/128/37 64/129/37 61/130/37
f 67/131/38 66/105/38 60/108/38 57/132/38
f 68/133/39 67/134/39 57/135/39 58/136/39
f 65/106/40 68/137/40 58/138/40 59/107/40
f 61/139/41 64/140/41 63/141/41 62/142/41
f 59/143/42 58/144/42 62/145/42 63/146/42
f 60/128/43 59/147/43 63/148/43 64/129/43
f 58/136/44 57/135/44 61/149/44 62/150/44
f 72/151/45 71/152/45 68/137/45 65/106/45
f 71/153/39 70/154/39 67/134/39 68/133/39
f 70/155/38 69/156/38 66/105/38 67/131/38
f 69/156/46 72/151/46 65/106/46 66/105/46
f 55/157/47 50/158/47 72/159/47 69/160/47
f 54/161/38 55/157/38 69/160/38 70/162/38
f 44/91/39 54/90/39 70/154/39 71/153/39
f 50/113/48 44/112/48 71/163/48 72/164/48
o body_Cylinder
v 0.143530 1.073370 0.260504
v 0.224375 2.158557 0.237260
v 0.266397 0.998069 0.173596
v 0.302788 2.159351 0.158434
v 0.302937 0.970237 0.044953
v 0.338274 2.171588 0.052694
v 0.283649 0.970989 -0.091527
v 0.322586 2.192422 -0.055392
v 0.212934 1.000151 -0.204698
v 0.223771 2.201845 -0.144980
v 0.070911 1.076198 -0.253337
v 0.082243 2.193968 -0.193360
v -0.067726 1.145510 -0.238313
v -0.054027 2.167872 -0.183663
v -0.168948 1.194763 -0.155101
v -0.173179 2.139866 -0.118869
v -0.223996 1.221140 -0.016066
v -0.206431 2.128400 -0.019783
v -0.205357 1.220414 0.115825
v -0.151667 2.134203 0.107289
v 0.006265 1.142628 0.285235
v -0.050237 2.148286 0.201405
v -0.113977 1.192622 0.233868
v 0.091276 2.156157 0.249833
v 0.032232 2.628653 0.275562
v 0.024228 2.600674 0.304994
v -0.105148 2.516478 0.220163
v -0.119997 2.475855 0.246870
v -0.186714 2.408000 0.113619
v -0.215838 2.375634 0.124420
v -0.216521 2.326295 -0.034552
v -0.237614 2.267073 -0.029545
v -0.167763 2.326295 -0.155536
v -0.179489 2.267073 -0.173770
v -0.043544 2.408000 -0.241634
v -0.057040 2.375634 -0.269611
v 0.089106 2.516478 -0.261847
v 0.096925 2.475855 -0.291387
v 0.226510 2.628653 -0.206506
v 0.241150 2.600674 -0.233263
v 0.320065 2.710014 -0.096303
v 0.336991 2.700068 -0.110813
v 0.327514 2.733925 0.039342
v 0.358767 2.700323 0.043152
v 0.275482 2.733925 0.168452
v 0.300643 2.700323 0.187377
v 0.176058 2.710014 0.261026
v 0.178193 2.700068 0.283218
v 0.021747 0.997637 0.279306
v 0.024228 1.056292 0.304994
v -0.119997 1.056211 0.246870
v -0.100350 1.042914 0.227939
v -0.215838 1.123541 0.124420
v -0.192742 1.067129 0.109895
v -0.237614 1.123541 -0.029545
v -0.211395 1.067129 -0.021995
v -0.179489 1.056211 -0.173770
v -0.155363 1.042914 -0.161031
v -0.057040 1.056292 -0.269611
v -0.052300 0.997637 -0.244243
v 0.096925 0.975952 -0.291387
v 0.088929 0.933773 -0.259266
v 0.241150 0.871859 -0.233263
v 0.233804 0.863310 -0.210627
v 0.336991 0.871712 -0.110813
v 0.305600 0.836922 -0.097456
v 0.358767 0.871712 0.043152
v 0.324903 0.836922 0.039024
v 0.300643 0.871859 0.187377
v 0.287307 0.863310 0.167667
v 0.178193 0.975952 0.283218
v 0.161603 0.933773 0.254575
vt 1.000000 0.510832
vt 1.000000 0.989365
vt 0.916667 0.988383
vt 0.916667 0.511711
vt 0.750000 0.514359
vt 0.750000 0.985783
vt 0.666667 0.986531
vt 0.666667 0.513622
vt 0.583333 0.987535
vt 0.583333 0.512585
vt 0.500000 0.988978
vt 0.500000 0.511174
vt 0.416667 0.990456
vt 0.416667 0.509715
vt 0.333333 0.991076
vt 0.333333 0.509170
vt 0.250000 0.991143
vt 0.250000 0.509170
vt 0.166667 0.991143
vt 0.166667 0.509209
vt 0.083333 0.990559
vt 0.083333 0.509781
vt 0.749982 0.468670
vt 0.863103 0.442770
vt 0.938742 0.355661
vt 0.966286 0.252866
vt 0.944335 0.139608
vt 0.859320 0.060617
vt 0.750786 0.035590
vt 0.637535 0.061859
vt 0.562658 0.142797
vt 0.534156 0.249169
vt 0.558532 0.356702
vt 0.643475 0.436077
vt 0.833333 0.986900
vt 0.833333 0.513178
vt 0.359335 0.435624
vt 0.246816 0.465800
vt 0.137653 0.439431
vt 0.058222 0.358955
vt 0.029438 0.251531
vt 0.057989 0.142121
vt 0.139343 0.064704
vt 0.251875 0.034577
vt 0.362175 0.061541
vt 0.444800 0.143859
vt 0.471772 0.244521
vt 0.441376 0.357123
vt 0.000000 0.989365
vt 0.000000 0.510832
vt 0.997173 1.000000
vt 0.919479 1.000000
vt 0.913638 1.000000
vt 0.836359 1.000000
vt 0.830383 1.000000
vt 0.755503 1.000000
vt 0.743286 1.000000
vt 0.673381 1.000000
vt 0.661164 1.000000
vt 0.586283 1.000000
vt 0.580308 1.000000
vt 0.503029 1.000000
vt 0.497188 1.000000
vt 0.419494 1.000000
vt 0.413611 1.000000
vt 0.338758 1.000000
vt 0.326904 1.000000
vt 0.254367 1.000000
vt 0.245633 1.000000
vt 0.171034 1.000000
vt 0.162300 1.000000
vt 0.089763 1.000000
vt 0.077909 1.000000
vt 0.003056 1.000000
vt 0.743286 1.000000
vt 0.673381 1.000000
vt 0.830383 1.000000
vt 0.755503 1.000000
vt 0.162300 1.000000
vt 0.089763 1.000000
vt 0.913638 1.000000
vt 0.836359 1.000000
vt 0.245633 1.000000
vt 0.171034 1.000000
vt 0.997173 1.000000
vt 0.919479 1.000000
vt 0.326904 1.000000
vt 0.254367 1.000000
vt 0.413611 1.000000
vt 0.338758 1.000000
vt 0.497188 1.000000
vt 0.419494 1.000000
vt 0.077909 1.000000
vt 0.003056 1.000000
vt 0.580308 1.000000
vt 0.503029 1.000000
vt 0.661164 1.000000
vt 0.586283 1.000000
vt 0.922641 0.500000
vt 0.993621 0.500000
vt 0.838815 0.500000
vt 0.911185 0.500000
vt 0.755974 0.500000
vt 0.827359 0.500000
vt 0.672148 0.500000
vt 0.744519 0.500000
vt 0.589713 0.500000
vt 0.660693 0.500000
vt 0.503695 0.500000
vt 0.577668 0.500000
vt 0.422591 0.500000
vt 0.496542 0.500000
vt 0.338065 0.500000
vt 0.409541 0.500000
vt 0.254732 0.500000
vt 0.328602 0.500000
vt 0.173793 0.500000
vt 0.245268 0.500000
vt 0.086792 0.500000
vt 0.160743 0.500000
vt 0.005666 0.500000
vt 0.079638 0.500000
vt 0.589713 0.500000
vt 0.660693 0.500000
vt 0.672148 0.500000
vt 0.744519 0.500000
vt 0.755974 0.500000
vt 0.827359 0.500000
vt 0.086792 0.500000
vt 0.160743 0.500000
vt 0.838815 0.500000
vt 0.911185 0.500000
vt 0.173793 0.500000
vt 0.245268 0.500000
vt 0.922641 0.500000
vt 0.993621 0.500000
vt 0.254732 0.500000
vt 0.328602 0.500000
vt 0.338065 0.500000
vt 0.409541 0.500000
vt 0.422591 0.500000
vt 0.496542 0.500000
vt 0.005666 0.500000
vt 0.079638 0.500000
vt 0.503695 0.500000
vt 0.577668 0.500000
vn -0.3738 0.0000 0.9275
vn -0.9275 0.0000 -0.3738
vn -0.6164 0.0000 -0.7875
vn -0.1400 0.0000 -0.9901
vn 0.3738 0.0000 -0.9275
vn 0.7875 0.0000 -0.6164
vn 0.9901 0.0000 -0.1400
vn 0.9275 0.0000 0.3738
vn 0.6164 0.0000 0.7875
vn -0.4389 -0.8967 0.0571
vn -0.7875 0.0000 0.6164
vn -0.0905 0.9923 0.0845
vn -0.9901 0.0000 0.1400
vn 0.1400 0.0000 0.9901
vn -0.6749 0.5888 0.4448
vn -0.8198 0.5586 0.1260
vn -0.8783 0.4577 -0.1383
vn -0.8887 0.2862 -0.3582
vn -0.7287 0.4577 -0.5094
vn -0.5033 0.5586 -0.6592
vn -0.1778 0.5888 -0.7885
vn 0.0684 0.7601 -0.6462
vn 0.6492 0.7497 -0.1281
vn 0.6877 0.6710 0.2771
vn 0.3790 0.7497 0.5425
vn -0.3988 0.7601 0.5131
vn 0.9345 0.0584 0.3513
vn 0.9446 0.0847 -0.3172
vn -0.6920 -0.0248 -0.7215
vn 0.6939 0.1249 -0.7091
vn -0.9360 -0.0324 -0.3505
vn 0.3122 0.0924 -0.9455
vn -0.9955 -0.0075 0.0946
vn -0.7315 0.0737 0.6778
vn -0.4042 0.1614 0.9003
vn -0.1083 0.0367 -0.9934
vn -0.0012 0.2193 0.9757
vn 0.4602 0.1759 0.8702
vn -0.3957 -0.5503 0.7352
vn -0.7227 -0.6042 0.3356
vn -0.9058 -0.4038 0.1281
vn -0.7874 -0.6042 -0.1221
vn -0.5840 -0.5503 -0.5967
vn -0.3276 -0.4600 -0.8253
vn -0.1659 -0.6998 -0.6948
vn 0.4722 -0.7734 -0.4230
vn 0.7189 -0.6877 -0.1017
vn 0.5710 -0.7734 0.2755
vn 0.0333 -0.6998 0.7136
vn -0.0859 -0.4600 0.8838
vn 0.6400 0.0316 0.7677
vn 0.9307 0.0657 0.3598
vn 0.9865 0.0863 -0.1392
vn -0.5916 -0.0493 -0.8047
vn 0.7955 0.0923 -0.5989
vn -0.9587 -0.1424 -0.2462
vn 0.4148 0.0775 -0.9066
vn -0.9764 -0.1665 0.1376
vn -0.8527 -0.1566 0.4984
vn -0.3606 -0.0896 0.9284
vn -0.1656 0.0216 -0.9860
vn 0.0926 -0.0300 0.9953
usemtl pasta
s off
f 122/165/49 98/166/49 100/167/49 123/168/49
f 127/169/50 104/170/50 106/171/50 129/172/50
f 129/172/51 106/171/51 108/173/51 131/174/51
f 131/174/52 108/173/52 110/175/52 133/176/52
f 133/176/53 110/175/53 112/177/53 135/178/53
f 135/178/54 112/177/54 114/179/54 137/180/54
f 137/180/55 114/179/55 116/181/55 139/182/55
f 139/182/56 116/181/56 118/183/56 141/184/56
f 141/184/57 118/183/57 120/185/57 143/186/57
f 93/187/58 95/188/58 91/189/58 89/190/58 87/191/58 85/192/58 83/193/58 81/194/58 79/195/58 77/196/58 75/197/58 73/198/58
f 123/168/59 100/167/59 102/199/59 125/200/59
f 94/201/60 96/202/60 74/203/60 76/204/60 78/205/60 80/206/60 82/207/60 84/208/60 86/209/60 88/210/60 90/211/60 92/212/60
f 125/200/61 102/199/61 104/170/61 127/169/61
f 143/186/62 120/185/62 98/213/62 122/214/62
f 100/167/63 98/166/63 97/215/63 99/216/63
f 102/199/64 100/167/64 99/217/64 101/218/64
f 104/170/65 102/199/65 101/219/65 103/220/65
f 106/171/66 104/170/66 103/221/66 105/222/66
f 108/173/67 106/171/67 105/223/67 107/224/67
f 110/175/68 108/173/68 107/225/68 109/226/68
f 112/177/69 110/175/69 109/227/69 111/228/69
f 114/179/70 112/177/70 111/229/70 113/230/70
f 116/181/71 114/179/71 113/231/71 115/232/71
f 118/183/72 116/181/72 115/233/72 117/234/72
f 120/185/73 118/183/73 117/235/73 119/236/73
f 98/213/74 120/185/74 119/237/74 97/238/74
f 105/222/75 103/221/75 90/239/75 88/240/75
f 103/220/76 101/219/76 92/241/76 90/242/76
f 119/236/77 117/235/77 76/243/77 74/244/77
f 101/218/78 99/217/78 94/245/78 92/246/78
f 117/234/79 115/233/79 78/247/79 76/248/79
f 99/216/80 97/215/80 96/249/80 94/250/80
f 115/232/81 113/231/81 80/251/81 78/252/81
f 113/230/82 111/229/82 82/253/82 80/254/82
f 111/228/83 109/227/83 84/255/83 82/256/83
f 97/238/84 119/237/84 74/257/84 96/258/84
f 109/226/85 107/225/85 86/259/85 84/260/85
f 107/224/86 105/223/86 88/261/86 86/262/86
f 122/165/87 123/168/87 124/263/87 121/264/87
f 123/168/88 125/200/88 126/265/88 124/266/88
f 125/200/89 127/169/89 128/267/89 126/268/89
f 127/169/90 129/172/90 130/269/90 128/270/90
f 129/172/91 131/174/91 132/271/91 130/272/91
f 131/174/92 133/176/92 134/273/92 132/274/92
f 133/176/93 135/178/93 136/275/93 134/276/93
f 135/178/94 137/180/94 138/277/94 136/278/94
f 137/180/95 139/182/95 140/279/95 138/280/95
f 139/182/96 141/184/96 142/281/96 140/282/96
f 141/184/97 143/186/97 144/283/97 142/284/97
f 143/186/98 122/214/98 121/285/98 144/286/98
f 130/272/99 132/271/99 85/287/99 87/288/99
f 128/270/100 130/269/100 87/289/100 89/290/100
f 126/268/101 128/267/101 89/291/101 91/292/101
f 142/284/102 144/283/102 73/293/102 75/294/102
f 124/266/103 126/265/103 91/295/103 95/296/103
f 140/282/104 142/281/104 75/297/104 77/298/104
f 121/264/105 124/263/105 95/299/105 93/300/105
f 138/280/106 140/279/106 77/301/106 79/302/106
f 136/278/107 138/277/107 79/303/107 81/304/107
f 134/276/108 136/275/108 81/305/108 83/306/108
f 144/286/109 121/285/109 93/307/109 73/308/109
f 132/274/110 134/273/110 83/309/110 85/310/110
o eye_r_Sphere
v -0.153597 2.118523 -0.237876
v -0.153597 2.043667 -0.268882
v -0.153597 1.968811 -0.237876
v -0.095072 2.118523 -0.209692
v -0.070830 2.043667 -0.229024
v -0.095072 1.968811 -0.209692
v -0.080618 2.118523 -0.146363
v -0.050389 2.043667 -0.139463
v -0.080618 1.968811 -0.146363
v -0.121118 2.118523 -0.095577
v -0.107665 2.043667 -0.067641
v -0.121118 1.968811 -0.095577
v -0.186076 2.118523 -0.095577
v -0.199529 2.043667 -0.067641
v -0.186076 1.968811 -0.095577
v -0.153597 2.149530 -0.163020
v -0.226576 2.118523 -0.146363
v -0.256805 2.043667 -0.139463
v -0.226576 1.968811 -0.146363
v -0.212122 2.118523 -0.209692
v -0.236364 2.043667 -0.229024
v -0.212122 1.968811 -0.209692
v -0.153597 1.937805 -0.163020
vt 0.714286 0.500000
vt 0.714286 0.750000
vt 0.571429 0.750000
vt 0.571429 0.500000
vt 0.714286 0.250000
vt 0.571429 0.250000
vt 0.642857 1.000000
vt 0.475436 0.059371
vt 0.546865 0.309371
vt 0.404007 0.309371
vt 0.428571 0.500000
vt 0.428571 0.250000
vt 0.500000 1.000000
vt 0.428571 0.750000
vt 0.500000 0.000000
vt 0.285714 0.500000
vt 0.285714 0.250000
vt 0.357143 1.000000
vt 0.285714 0.750000
vt 0.357143 0.000000
vt 0.142857 0.750000
vt 0.142857 0.500000
vt 0.142857 0.250000
vt 0.214286 1.000000
vt 0.214286 0.000000
vt 0.294657 0.096869
vt 0.366085 0.346869
vt 0.223228 0.346869
vt 0.744333 0.500000
vt 0.744333 0.750000
vt 0.601476 0.750000
vt 0.601476 0.500000
vt 0.744333 0.250000
vt 0.601476 0.250000
vt 0.691627 0.668755
vt 0.620198 0.918755
vt 0.548769 0.668755
vt 0.761150 0.059371
vt 0.832579 0.309371
vt 0.689722 0.309371
vt 0.572146 0.493750
vt 0.572146 0.743750
vt 0.429289 0.743750
vt 0.429289 0.493750
vt 0.572146 0.243751
vt 0.429289 0.243751
vt 0.528740 0.665630
vt 0.457312 0.915630
vt 0.385883 0.665630
vt 0.618293 0.059371
vt 0.286432 0.743750
vt 0.286432 0.493750
vt 0.286432 0.243750
vt 0.314455 0.915630
vt 0.243026 0.665630
vn 0.4065 0.3496 -0.8441
vn 0.4065 -0.3496 -0.8441
vn 0.1812 0.9086 -0.3763
vn 0.1812 -0.9086 -0.3763
vn 0.9134 -0.3496 -0.2085
vn 0.4072 0.9086 -0.0930
vn 0.4072 -0.9086 -0.0929
vn 0.9134 0.3496 -0.2085
vn 0.7325 -0.3496 0.5841
vn 0.3266 0.9086 0.2604
vn 0.3266 -0.9086 0.2604
vn 0.7325 0.3496 0.5841
vn 0.0000 0.3496 0.9369
vn 0.0000 -0.3496 0.9369
vn 0.0000 0.9086 0.4177
vn 0.0000 -0.9086 0.4177
vn -0.3266 -0.9086 0.2604
vn -0.7325 0.3496 0.5841
vn -0.7325 -0.3496 0.5841
vn -0.3266 0.9086 0.2604
vn -0.4072 -0.9086 -0.0929
vn -0.9134 0.3496 -0.2085
vn -0.9134 -0.3496 -0.2085
vn -0.4072 0.9086 -0.0930
vn -0.1812 -0.9086 -0.3763
vn -0.4065 0.3496 -0.8441
vn -0.4065 -0.3496 -0.8441
vn -0.1812 0.9086 -0.3763
usemtl eye_texture
s off
f 146/311/111 145/312/111 148/313/111 149/314/111
f 147/315/112 146/311/112 149/314/112 150/316/112
f 145/312/113 160/317/113 148/313/113
f 167/318/114 147/319/114 150/320/114
f 150/316/115 149/314/115 152/321/115 153/322/115
f 148/313/116 160/323/116 151/324/116
f 167/325/117 150/316/117 153/322/117
f 149/314/118 148/313/118 151/324/118 152/321/118
f 153/322/119 152/321/119 155/326/119 156/327/119
f 151/324/120 160/328/120 154/329/120
f 167/330/121 153/322/121 156/327/121
f 152/321/122 151/324/122 154/329/122 155/326/122
f 155/326/123 154/329/123 157/331/123 158/332/123
f 156/327/124 155/326/124 158/332/124 159/333/124
f 154/329/125 160/334/125 157/331/125
f 167/335/126 156/327/126 159/333/126
f 167/336/127 159/337/127 163/338/127
f 158/339/128 157/340/128 161/341/128 162/342/128
f 159/343/129 158/339/129 162/342/129 163/344/129
f 157/345/130 160/346/130 161/347/130
f 167/348/131 163/349/131 166/350/131
f 162/351/132 161/352/132 164/353/132 165/354/132
f 163/355/133 162/351/133 165/354/133 166/356/133
f 161/357/134 160/358/134 164/359/134
f 167/360/135 166/350/135 147/319/135
f 165/354/136 164/353/136 145/361/136 146/362/136
f 166/356/137 165/354/137 146/362/137 147/363/137
f 164/359/138 160/364/138 145/365/138
o eye_l_Sphere.001
v -0.209932 2.204908 0.063583
v -0.231678 2.126880 0.061670
v -0.209932 2.060328 0.102447
v -0.148447 2.199468 0.043348
v -0.144724 2.119188 0.033053
v -0.148447 2.054889 0.082212
v -0.093729 2.208556 0.077155
v -0.067342 2.132040 0.080864
v -0.093729 2.063977 0.116020
v -0.086983 2.225328 0.139546
v -0.057802 2.155758 0.169099
v -0.086983 2.080748 0.178411
v -0.133289 2.237154 0.183540
v -0.123287 2.172483 0.231315
v -0.133289 2.092574 0.222405
v -0.157435 2.248703 0.107065
v -0.197776 2.235129 0.176008
v -0.214487 2.169620 0.220664
v -0.197776 2.090549 0.214873
v -0.231886 2.220778 0.122622
v -0.262725 2.149324 0.145164
v -0.231886 2.076199 0.161487
v -0.157435 2.044237 0.162028
vt 0.714286 0.500000
vt 0.714286 0.750000
vt 0.571429 0.750000
vt 0.571429 0.500000
vt 0.714286 0.250000
vt 0.571429 0.250000
vt 0.642857 1.000000
vt 0.642857 0.000000
vt 0.428571 0.500000
vt 0.428571 0.250000
vt 0.500000 1.000000
vt 0.428571 0.750000
vt 0.500000 0.000000
vt 0.285714 0.500000
vt 0.285714 0.250000
vt 0.357143 1.000000
vt 0.285714 0.750000
vt 0.357143 0.000000
vt 0.142857 0.750000
vt 0.142857 0.500000
vt 0.142857 0.250000
vt 0.214286 1.000000
vt 0.214286 0.000000
vt 0.071429 0.000000
vt 0.000000 0.250000
vt 0.319579 0.403131
vt 0.319580 0.653131
vt 0.176722 0.653131
vt 0.176722 0.403131
vt 0.319580 0.153131
vt 0.176722 0.153131
vt 0.248151 0.903131
vt 0.782853 0.084370
vt 0.854282 0.334370
vt 0.711424 0.334370
vt 0.773087 0.496875
vt 0.773087 0.746875
vt 0.519200 0.746875
vt 0.519200 0.496875
vt 0.773087 0.246875
vt 0.519200 0.246875
vt 0.953494 0.606259
vt 0.928571 0.753140
vt 0.810637 0.606259
vt 0.639996 0.084370
vt 0.568567 0.334370
vt 0.265313 0.746875
vt 0.265313 0.496875
vt 0.265313 0.246875
vt 0.736108 0.903131
vn -0.3022 0.1074 -0.9472
vn -0.3022 -0.5679 -0.7656
vn -0.1347 0.7748 -0.6177
vn -0.1347 -0.9801 -0.1460
vn 0.5049 -0.5425 -0.6714
vn 0.2251 0.7861 -0.5757
vn 0.2251 -0.9688 -0.1039
vn 0.5049 0.1328 -0.8529
vn 0.9318 -0.3629 -0.0032
vn 0.4155 0.8662 -0.2778
vn 0.4155 -0.8887 0.1940
vn 0.9318 0.3124 -0.1847
vn 0.6571 0.5110 0.5542
vn 0.6570 -0.1643 0.7357
vn 0.2929 0.9547 0.0517
vn 0.2929 -0.8001 0.5234
vn -0.0502 -0.7698 0.6363
vn -0.1125 0.5791 0.8075
vn -0.1125 -0.0962 0.9890
vn -0.0502 0.9851 0.1646
vn -0.3555 -0.8205 0.4477
vn -0.7973 0.4654 0.3843
vn -0.7973 -0.2099 0.5659
vn -0.3555 0.9344 -0.0240
vn -0.3931 -0.9141 0.0995
vn -0.8818 0.2555 -0.3965
vn -0.8818 -0.4199 -0.2150
vn -0.3931 0.8408 -0.3722
usemtl Material.001
s off
f 169/366/139 168/367/139 171/368/139 172/369/139
f 170/370/140 169/366/140 172/369/140 173/371/140
f 168/367/141 183/372/141 171/368/141
f 190/373/142 170/370/142 173/371/142
f 173/371/143 172/369/143 175/374/143 176/375/143
f 171/368/144 183/376/144 174/377/144
f 190/378/145 173/371/145 176/375/145
f 172/369/146 171/368/146 174/377/146 175/374/146
f 176/375/147 175/374/147 178/379/147 179/380/147
f 174/377/148 183/381/148 177/382/148
f 190/383/149 176/375/149 179/380/149
f 175/374/150 174/377/150 177/382/150 178/379/150
f 178/379/151 177/382/151 180/384/151 181/385/151
f 179/380/152 178/379/152 181/385/152 182/386/152
f 177/382/153 183/387/153 180/384/153
f 190/388/154 179/380/154 182/386/154
f 190/389/155 182/386/155 186/390/155
f 181/391/156 180/392/156 184/393/156 185/394/156
f 182/395/157 181/391/157 185/394/157 186/396/157
f 180/392/158 183/397/158 184/393/158
f 190/398/159 186/399/159 189/400/159
f 185/401/160 184/402/160 187/403/160 188/404/160
f 186/405/161 185/401/161 188/404/161 189/406/161
f 184/407/162 183/408/162 187/409/162
f 190/410/163 189/400/163 170/411/163
f 188/404/164 187/403/164 168/412/164 169/413/164
f 189/406/165 188/404/165 169/413/165 170/414/165
f 187/409/166 183/415/166 168/367/166
o hand_r_Cube
v -0.037814 1.973384 -0.107077
v 0.043016 2.131180 -0.107077
v -0.037814 2.020590 -0.352658
v 0.043016 2.285242 -0.410252
v 0.119982 1.892555 -0.107077
v 0.200811 2.050350 -0.107077
v 0.119982 1.939760 -0.352658
v 0.200811 2.097555 -0.352658
v -0.041784 1.690237 -0.748888
v -0.052656 1.532442 -0.668792
v -0.031432 1.451612 -0.825154
v -0.020561 1.609408 -0.905249
v -0.228519 1.690237 -0.769450
v -0.426075 1.532442 -0.743334
v -0.081565 1.325764 -0.899695
v -0.136176 1.609408 -0.914475
v 0.002601 2.052282 -0.107077
v -0.014082 2.102754 -0.340610
v 0.183620 1.994587 -0.333466
v 0.160397 1.971452 -0.107077
v -0.047220 1.611339 -0.708840
v -0.025997 1.530510 -0.865202
v -0.596389 1.611339 -0.783381
v -0.575166 1.530510 -0.939743
v 0.041084 1.887920 -0.352658
v 0.121914 2.173267 -0.352658
v 0.041084 1.932969 -0.107077
v 0.121914 2.090765 -0.107077
v -0.042044 1.492027 -0.746973
v -0.031173 1.649822 -0.827068
v -0.591213 1.492027 -0.821514
v -0.580342 1.649822 -0.901610
v -0.618938 1.570925 -0.861562
v 0.081499 2.011867 -0.107077
v 0.006013 1.950083 -0.330242
v 0.082465 2.110972 -0.107077
v -0.047350 1.512234 -0.707883
v -0.596519 1.512234 -0.782424
v 0.042050 2.032075 -0.107077
v 0.082465 2.193474 -0.352658
v 0.001635 1.953177 -0.107077
v -0.036478 1.670030 -0.787978
v -0.585648 1.670030 -0.862519
v -0.591083 1.591132 -0.822472
v -0.034289 2.063306 -0.340610
v 0.153510 1.967818 -0.342145
v 0.140189 1.932003 -0.107077
v -0.049938 1.571890 -0.688816
v -0.028714 1.491061 -0.845178
v -0.690244 1.571890 -0.763357
v -0.577883 1.491061 -0.919719
v -0.017606 2.012833 -0.107077
v 0.061291 1.972418 -0.107077
v -0.588495 1.531476 -0.841538
v -0.593801 1.551683 -0.802448
v 0.021843 1.992626 -0.107077
v 0.161362 2.153059 -0.352658
v 0.080533 1.912762 -0.107077
v -0.025867 1.629615 -0.866159
v -0.618464 1.629615 -0.940700
v -0.580472 1.550717 -0.900652
v 0.090335 1.929786 -0.328671
v 0.161362 2.070558 -0.107077
v -0.036738 1.471820 -0.786064
v -0.585907 1.471819 -0.860605
v 0.120948 1.991660 -0.107077
v 0.100740 1.952211 -0.107077
v -0.634564 1.511268 -0.880629
v 0.022808 2.091731 -0.107077
v 0.006126 2.142203 -0.340610
v 0.193925 2.046716 -0.342145
v 0.180604 2.010901 -0.107077
v -0.044502 1.650788 -0.728864
v -0.023279 1.569959 -0.885225
v -0.593671 1.650788 -0.803405
v -0.572448 1.569959 -0.959767
v -0.583059 1.610373 -0.881586
v 0.101706 2.051316 -0.107077
v -0.588365 1.630581 -0.842495
v 0.062257 2.071523 -0.107077
v 0.141155 2.031109 -0.107077
v -0.577754 1.590166 -0.920676
v -1.127164 1.646035 -0.847174
v -1.127332 1.643588 -0.845932
v -1.091482 1.636622 -1.011925
v -1.091651 1.634175 -1.010683
v -1.091980 1.635428 -1.008259
v -0.889358 1.793849 -0.911088
v -0.889029 1.792596 -0.913513
v -1.116139 1.538426 -0.858293
v -1.116307 1.535980 -0.857051
v -1.116636 1.537233 -0.854627
v -1.127003 1.642335 -0.848357
v -1.116468 1.539680 -0.855869
v -1.091811 1.637875 -1.009501
v -0.889197 1.790149 -0.912271
v -0.037814 2.009213 -0.293473
v 0.043016 2.167009 -0.293473
v 0.119982 1.928383 -0.293473
v 0.200811 2.086179 -0.293473
v 0.178023 1.989011 -0.278906
v -0.010061 2.090590 -0.284329
v 0.121914 2.153384 -0.293473
v 0.041084 1.898777 -0.293473
v 0.004958 1.950829 -0.276459
v 0.082465 2.173591 -0.293473
v -0.030268 2.051142 -0.284329
v 0.150300 1.959187 -0.285494
v 0.161362 2.133176 -0.293473
v 0.087973 1.925683 -0.275267
v 0.190715 2.038084 -0.285494
v 0.010146 2.130039 -0.284329
v 0.103885 1.887865 -0.402889
v 0.177277 2.045660 -0.411404
v -0.039392 1.968694 -0.386266
v 0.034001 2.126490 -0.394781
v -0.017605 2.050512 -0.379757
v 0.161336 1.945250 -0.389995
v 0.105639 2.117619 -0.403093
v 0.032247 1.845832 -0.394578
v 0.069820 2.137826 -0.398937
v 0.000340 1.903535 -0.370389
v -0.035953 2.011063 -0.377628
v 0.134138 1.917133 -0.395623
v 0.076826 1.881099 -0.377297
v 0.141458 2.097411 -0.407248
v 0.170834 1.996031 -0.399880
v 0.000744 2.089961 -0.381886
vt 0.562500 0.189750
vt 0.625000 0.189750
vt 0.625000 0.250000
vt 0.562500 0.250000
vt 0.562500 0.560250
vt 0.625000 0.560250
vt 0.625000 0.750000
vt 0.562500 0.750000
vt 0.562500 0.937500
vt 0.625000 0.937500
vt 0.625000 1.000000
vt 0.562500 1.000000
vt 0.312500 0.560250
vt 0.375000 0.560250
vt 0.375000 0.750000
vt 0.312500 0.750000
vt 0.812500 0.560250
vt 0.875000 0.560250
vt 0.875000 0.750000
vt 0.812500 0.750000
vt 0.437500 0.500000
vt 0.375000 0.500000
vt 0.375000 0.500000
vt 0.437500 0.500000
vt 0.562500 0.437500
vt 0.625000 0.437500
vt 0.625000 0.500000
vt 0.562500 0.500000
vt 0.437500 0.250000
vt 0.500000 0.250000
vt 0.500000 0.250000
vt 0.437500 0.250000
vt 0.437500 0.437500
vt 0.500000 0.437500
vt 0.500000 0.500000
vt 0.562500 0.500000
vt 0.500000 0.500000
vt 0.437500 0.937500
vt 0.500000 0.937500
vt 0.500000 1.000000
vt 0.437500 1.000000
vt 0.437500 0.560250
vt 0.500000 0.560250
vt 0.500000 0.750000
vt 0.437500 0.750000
vt 0.437500 0.189750
vt 0.500000 0.189750
vt 0.500000 0.250000
vt 0.437500 0.250000
vt 0.437500 0.812500
vt 0.500000 0.812500
vt 0.500000 0.875000
vt 0.437500 0.875000
vt 0.437500 0.312500
vt 0.500000 0.312500
vt 0.500000 0.375000
vt 0.437500 0.375000
vt 0.812500 0.500000
vt 0.750000 0.500000
vt 0.750000 0.500000
vt 0.812500 0.500000
vt 0.312500 0.500000
vt 0.250000 0.500000
vt 0.250000 0.500000
vt 0.312500 0.500000
vt 0.687500 0.560250
vt 0.750000 0.560250
vt 0.750000 0.750000
vt 0.687500 0.750000
vt 0.187500 0.560250
vt 0.250000 0.560250
vt 0.250000 0.750000
vt 0.187500 0.750000
vt 0.562500 0.812500
vt 0.625000 0.812500
vt 0.625000 0.875000
vt 0.562500 0.875000
vt 0.125000 0.560250
vt 0.125000 0.750000
vt 0.562500 0.250000
vt 0.625000 0.250000
vt 0.625000 0.312500
vt 0.562500 0.312500
vt 0.187500 0.500000
vt 0.187500 0.500000
vt 0.375000 0.875000
vt 0.375000 0.937500
vt 0.375000 0.250000
vt 0.375000 0.312500
vt 0.437500 0.375000
vt 0.437500 0.312500
vt 0.375000 0.812500
vt 0.375000 0.189750
vt 0.375000 0.250000
vt 0.375000 1.000000
vt 0.375000 0.437500
vt 0.375000 0.375000
vt 0.687500 0.500000
vt 0.687500 0.500000
vt 0.562500 0.375000
vt 0.625000 0.375000
vt 0.000000 0.000000
vt 0.000000 0.000000
vt 0.562500 0.250000
vt 0.625000 0.375000
vt 0.000000 0.000000
vt 0.562500 0.375000
vt 0.375000 0.312500
vt 0.375000 0.375000
vt 0.500000 0.437500
vt 0.562500 0.437500
vt 0.562500 0.500000
vt 0.500000 0.500000
vt 0.562500 0.250000
vt 0.500000 0.250000
vt 0.500000 0.312500
vt 0.750000 0.500000
vt 0.812500 0.500000
vt 0.187500 0.500000
vt 0.250000 0.500000
vt 0.500000 0.000000
vt 0.562500 0.000000
vt 0.500000 0.500000
vt 0.562500 0.500000
vt 0.250000 0.500000
vt 0.312500 0.500000
vt 0.625000 0.500000
vt 0.687500 0.500000
vt 0.375000 0.500000
vt 0.437500 0.500000
vt 0.375000 0.000000
vt 0.437500 0.000000
vt 0.750000 0.500000
vt 0.812500 0.500000
vt 0.125000 0.500000
vt 0.187500 0.500000
vt 0.875000 0.500000
vt 0.625000 0.000000
vt 0.562500 0.250000
vt 0.500000 0.250000
vt 0.562500 0.500000
vt 0.625000 0.500000
vt 0.687500 0.500000
vt 0.750000 0.500000
vt 0.312500 0.500000
vt 0.375000 0.500000
vt 0.437500 0.500000
vt 0.500000 0.500000
vt 0.437500 0.250000
vt 0.375000 0.250000
vt 0.812500 0.500000
vt 0.875000 0.500000
vt 0.625000 0.250000
vt 0.125000 0.500000
vt 0.187500 0.500000
vt 0.125000 0.500000
vt 0.625000 0.500000
vt 0.625000 0.250000
vt 0.125000 0.500000
vt 0.250000 0.500000
vt 0.875000 0.500000
vt 0.875000 0.500000
vt 0.375000 0.250000
vn -0.7972 0.4731 0.3750
vn 0.9437 -0.3295 -0.0308
vn 0.0000 0.0000 1.0000
vn -0.2685 -0.9535 -0.1367
vn 0.1647 0.9537 0.2518
vn 0.1827 0.2548 -0.9496
vn 0.0001 0.3045 -0.9525
vn -0.1040 0.5484 0.8297
vn -0.7226 0.1818 -0.6669
vn 0.1197 -0.4559 -0.8819
vn 0.8227 -0.5685 -0.0075
vn -0.8786 0.4500 0.1600
vn -0.9265 -0.1505 0.3450
vn 0.0613 0.8900 -0.4518
vn -0.0613 -0.8900 0.4518
vn 0.4368 0.8527 0.2865
vn -0.6814 -0.7287 0.0685
vn -0.6809 -0.7285 -0.0749
vn -0.2115 0.9375 0.2764
vn -0.5310 0.2370 -0.8136
vn -0.3090 -0.6934 0.6509
vn 0.0262 0.8895 -0.4562
vn -0.9917 0.1152 0.0580
vn 0.8136 -0.5764 -0.0770
vn -0.3103 -0.8908 -0.3321
vn -0.8199 -0.2063 0.5341
vn 0.6357 0.7463 0.1971
vn -0.0728 -0.5984 0.7979
vn -0.9629 0.2663 -0.0440
vn 0.0625 0.8756 -0.4789
vn -0.8685 -0.1847 0.4600
vn 0.0644 -0.9961 0.0611
vn -0.8331 0.1353 -0.5364
vn 0.0408 0.4500 0.8921
vn -0.8929 0.4496 0.0251
vn -0.1197 0.4559 0.8819
vn -0.9909 -0.0000 -0.1345
vn 0.9377 -0.3462 0.0300
vn -0.5010 -0.7947 0.3428
vn 0.3629 0.2980 -0.8829
vn 0.0223 -0.4537 -0.8909
vn -0.1103 0.4559 0.8832
vn -0.1009 0.4558 0.8843
vn -0.0768 0.4555 0.8869
vn 0.0312 -0.4541 -0.8904
vn -0.1064 -0.8891 0.4452
vn 0.4007 0.8349 -0.3772
vn -0.1680 -0.4370 -0.8837
vn 0.1576 0.8858 -0.4365
vn -0.2337 -0.8763 0.4213
vn -0.1046 -0.8892 0.4455
vn 0.0204 0.3052 -0.9521
vn 0.9755 -0.2141 0.0499
vn 0.5628 -0.8243 0.0613
vn 0.7824 0.6022 0.1590
vn 0.6903 -0.7159 -0.1045
vn -0.9453 0.3116 0.0964
vn -0.8197 -0.5695 -0.0612
vn -0.8402 -0.5402 0.0476
vn 0.7037 -0.7097 -0.0349
vn 0.3703 0.7307 0.5735
vn 0.1114 -0.9848 -0.1331
vn 0.9855 -0.1695 -0.0020
vn -0.8044 0.5761 0.1455
vn -0.8214 0.3902 -0.4160
vn 0.9576 -0.1769 -0.2275
vn 0.2851 0.6072 -0.7416
vn 0.6031 -0.6423 0.4729
vn 0.5684 -0.7044 0.4252
vn -0.9874 0.1088 -0.1151
vn 0.6139 0.0512 -0.7877
vn 0.2744 0.5891 -0.7600
vn 0.9574 -0.2183 -0.1891
vn -0.8004 0.3786 -0.4648
vn -0.8686 0.1181 -0.4812
vn 0.6041 0.4495 -0.6580
vn -0.7834 -0.3347 0.5237
vn 0.4820 -0.6998 0.5273
vn 0.9042 -0.4150 0.1013
vn -0.5469 -0.4758 0.6889
vn 0.3311 0.6178 -0.7132
vn -0.9127 0.3247 -0.2479
vn -0.0993 -0.7828 0.6143
vn 0.0587 0.8662 -0.4963
vn -0.1181 0.3892 0.9136
vn -0.9583 0.1979 -0.2063
vn 0.9581 -0.1983 -0.2069
vn -0.1156 0.6685 -0.7347
vn 0.4559 -0.6823 0.5715
vn -0.5115 0.6048 -0.6104
vn 0.0545 0.9050 -0.4219
vn -0.1308 -0.6619 0.7381
vn -0.9963 0.0675 -0.0538
vn -0.1455 0.0200 0.9892
vn 0.9157 -0.4015 0.0183
vn 0.6358 -0.6281 0.4486
vn -0.0673 0.6963 -0.7146
vn 0.9576 -0.1785 -0.2261
vn 0.1169 -0.3535 -0.9281
vn -0.9633 0.2104 -0.1667
vn -0.5013 -0.5423 0.6743
vn 0.3033 -0.7093 0.6363
usemtl metal.002
s off
f 302/416/167 288/417/167 194/418/167 260/419/167
f 301/420/168 290/421/168 196/422/168 262/423/168
f 270/424/169 226/425/169 192/426/169 259/427/169
f 300/428/170 289/429/170 195/430/170 248/431/170
f 296/432/171 288/433/171 192/434/171 226/435/171
f 239/436/172 201/437/172 205/438/172 241/439/172
f 272/440/173 250/441/173 206/442/173 266/443/173
f 238/444/174 211/445/174 213/446/174 240/447/174
f 258/448/175 251/449/175 214/450/175 241/439/175
f 264/451/176 212/452/176 214/450/176 266/443/176
f 246/453/169 229/454/169 207/455/169 242/456/169
f 298/457/177 291/458/177 210/459/177 237/460/177
f 297/461/178 292/462/178 208/463/178 235/464/178
f 257/465/169 256/466/169 224/467/169 243/468/169
f 245/469/179 234/470/179 223/471/179 244/472/179
f 232/473/180 220/474/180 222/475/180 233/476/180
f 254/477/181 219/478/181 221/479/181 255/480/181
f 299/481/182 293/482/182 218/483/182 253/484/182
f 295/485/183 294/486/183 217/487/183 231/488/183
f 271/489/169 253/490/169 218/491/169 268/492/169
f 287/493/184 295/485/184 231/488/184 191/494/184
f 265/495/185 203/496/185 233/497/185 269/498/185
f 240/447/186 213/446/186 234/470/186 245/469/186
f 243/468/169 224/467/169 229/454/169 246/453/169
f 219/478/181 227/499/181 228/500/181 221/479/181
f 293/482/182 296/432/182 226/435/182 218/483/182
f 268/492/169 218/491/169 226/425/169 270/424/169
f 217/501/169 243/468/169 246/453/169 231/502/169
f 204/503/187 240/447/187 245/469/187 228/504/187
f 245/469/188 244/472/188 280/505/188 284/506/188
f 248/507/169 257/465/169 243/468/169 217/501/169
f 287/508/189 297/461/189 235/464/189 193/509/189
f 289/429/190 298/457/190 237/460/190 195/430/190
f 231/502/169 246/453/169 242/456/169 191/510/169
f 255/511/191 258/448/191 241/439/191 205/438/191
f 221/512/192 244/472/192 258/448/192 255/511/192
f 195/430/169 237/460/169 257/465/169 248/507/169
f 262/423/169 196/422/169 253/490/169 271/489/169
f 290/421/193 299/481/193 253/484/193 196/422/193
f 201/437/194 254/477/194 255/480/194 205/438/194
f 237/460/169 210/459/169 256/466/169 257/465/169
f 244/472/195 223/471/195 251/449/195 258/448/195
f 220/474/196 249/513/196 250/514/196 222/475/196
f 267/515/197 222/516/197 250/441/197 272/440/197
f 294/486/198 300/428/198 248/431/198 217/487/198
f 223/471/199 267/515/199 272/440/199 251/449/199
f 210/459/169 262/423/169 271/489/169 256/466/169
f 224/467/169 268/492/169 270/424/169 229/454/169
f 269/517/200 233/476/200 278/518/200
f 256/466/169 271/489/169 268/492/169 224/467/169
f 234/470/201 269/498/201 267/515/201 223/471/201
f 211/445/202 263/519/202 265/495/202 213/446/202
f 278/518/203 279/520/203 286/521/203
f 229/454/169 270/424/169 259/427/169 207/455/169
f 291/458/204 301/420/204 262/423/204 210/459/204
f 292/462/178 302/416/178 260/419/178 208/463/178
f 267/515/205 269/517/205 286/522/205
f 282/523/203 284/506/203 280/505/203 281/524/203
f 277/525/203 285/526/203 275/527/203 276/528/203
f 278/518/206 269/517/206 286/521/206
f 244/472/207 221/512/207 281/524/207 280/505/207
f 251/449/208 272/440/208 285/526/208 277/525/208
f 228/504/209 245/469/209 284/506/209 282/523/209
f 213/446/210 265/495/210 273/529/210 274/530/210
f 266/443/211 214/450/211 276/528/211 275/527/211
f 234/470/212 213/446/212 274/530/212 283/531/212
f 233/476/213 222/475/213 279/532/213 278/533/213
f 222/516/214 267/515/214 286/522/214 279/520/214
f 272/440/215 266/443/215 275/527/215 285/526/215
f 214/450/216 251/449/216 277/525/216 276/528/216
f 221/479/217 228/500/217 282/534/217 281/535/217
f 274/530/203 273/529/203 283/531/203
f 234/470/218 283/531/218 273/529/218 265/495/218 269/498/218
f 207/536/178 259/537/178 302/416/178 292/462/178
f 209/538/219 261/539/219 301/420/219 291/458/219
f 215/540/220 252/541/220 300/428/220 294/486/220
f 198/542/221 247/543/221 299/481/221 290/421/221
f 197/544/222 236/545/222 298/457/222 289/429/222
f 191/546/223 242/547/223 297/461/223 287/508/223
f 216/548/182 230/549/182 296/432/182 293/482/182
f 193/550/224 225/551/224 295/485/224 287/493/224
f 225/551/225 215/540/225 294/486/225 295/485/225
f 247/543/182 216/548/182 293/482/182 299/481/182
f 242/547/178 207/536/178 292/462/178 297/461/178
f 236/545/226 209/538/226 291/458/226 298/457/226
f 230/549/227 194/552/227 288/433/227 296/432/227
f 252/541/228 197/544/228 289/429/228 300/428/228
f 261/539/229 198/542/229 290/421/229 301/420/229
f 259/537/230 192/553/230 288/417/230 302/416/230
f 208/463/231 260/419/231 318/554/231 307/555/231
f 198/542/232 261/539/232 317/556/232 304/557/232
f 216/548/233 247/543/233 316/558/233 309/559/233
f 197/544/234 252/541/234 315/560/234 303/561/234
f 209/538/235 236/545/235 314/562/235 308/563/235
f 193/509/236 235/464/236 313/564/236 305/565/236
f 194/552/237 230/549/237 311/566/237 306/567/237
f 230/549/238 216/548/238 309/559/238 311/566/238
f 261/539/239 209/538/239 308/563/239 317/556/239
f 235/464/240 208/463/240 307/555/240 313/564/240
f 260/419/241 194/418/241 306/568/241 318/554/241
f 247/543/242 198/542/242 304/557/242 316/558/242
f 225/551/243 193/550/243 305/569/243 312/570/243
f 236/545/244 197/544/244 303/561/244 314/562/244
usemtl pasta.001
f 314/562/245 303/561/245 201/437/245 239/436/245
f 312/570/246 305/569/246 200/571/246 227/499/246
f 316/558/247 304/557/247 202/572/247 249/513/247
f 318/554/248 306/568/248 199/573/248 263/519/248
f 227/499/249 200/571/249 204/574/249 228/500/249
f 249/513/250 202/572/250 206/442/250 250/514/250
f 263/519/251 199/573/251 203/496/251 265/495/251
f 313/564/252 307/555/252 211/445/252 238/444/252
f 317/556/253 308/563/253 212/452/253 264/451/253
f 311/566/254 309/559/254 220/474/254 232/473/254
f 315/560/255 310/575/255 219/478/255 254/477/255
f 306/567/256 311/566/256 232/473/256 199/576/256
f 199/576/257 232/473/257 233/476/257 203/577/257
f 310/575/258 312/570/258 227/499/258 219/478/258
f 305/565/259 313/564/259 238/444/259 200/578/259
f 200/578/260 238/444/260 240/447/260 204/503/260
f 212/452/176 239/436/176 241/439/176 214/450/176
f 308/563/261 314/562/261 239/436/261 212/452/261
f 303/561/262 315/560/262 254/477/262 201/437/262
f 309/559/263 316/558/263 249/513/263 220/474/263
f 304/557/264 317/556/264 264/451/264 202/572/264
f 202/572/265 264/451/265 266/443/265 206/442/265
f 307/555/266 318/554/266 263/519/266 211/445/266
f 215/540/267 225/551/267 312/570/267 310/575/267
f 252/541/268 215/540/268 310/575/268 315/560/268
o hand_l_Cube.001
v 0.076434 1.600504 0.433530
v 0.032102 1.824762 0.486872
v 0.066325 1.984730 0.226709
v 0.066325 2.092330 0.226709
v 0.298345 1.527642 0.618763
v 0.298345 1.824762 0.618763
v 0.173925 1.984730 0.226709
v 0.173925 2.092330 0.226709
v -0.023881 1.385020 0.580044
v -0.032183 1.644472 0.599165
v 0.087914 1.644472 0.870932
v 0.128303 1.407786 0.867155
v -0.127901 1.328110 0.629729
v -0.127901 1.625230 0.629729
v -0.173415 1.625230 0.923343
v -0.173415 1.328110 0.923343
v -1.113508 1.470062 0.620594
v -1.113508 1.483278 0.620594
v -1.115533 1.483278 0.633654
v -1.115533 1.470062 0.633654
v 0.026276 1.492762 0.506787
v -0.000041 1.734617 0.543019
v 0.213324 1.467714 0.742959
v 0.193129 1.734617 0.744847
v 0.001198 1.438891 0.543415
v 0.170814 1.437750 0.805057
v -0.016112 1.689544 0.571092
v 0.140522 1.689544 0.807889
v 0.016031 1.779690 0.514945
v 0.245737 1.779690 0.681805
v 0.051355 1.546633 0.470158
v 0.255835 1.497678 0.680861
v 0.024066 1.802226 0.500909
v 0.272041 1.802226 0.650284
v 0.063894 1.573569 0.451844
v 0.277090 1.512660 0.649812
v 0.038816 1.519698 0.488473
v 0.234579 1.482696 0.711910
v 0.007995 1.757153 0.528982
v 0.219433 1.757153 0.713326
v -0.008076 1.712081 0.557055
v 0.166825 1.712081 0.776368
v 0.013737 1.465827 0.525101
v 0.192069 1.452732 0.774008
v -0.011342 1.411956 0.561730
v 0.149559 1.422768 0.836106
v -0.024148 1.667008 0.585128
v 0.114218 1.667008 0.839410
v 0.054268 1.712633 0.460201
v 0.066325 2.038530 0.226709
v 0.173925 2.038530 0.226709
v 0.298345 1.676202 0.618763
v -0.028032 1.514746 0.589604
v 0.108109 1.526129 0.869043
v -0.127901 1.476670 0.629729
v -0.173415 1.476670 0.923343
v -1.113508 1.476670 0.620594
v -1.115533 1.476670 0.633654
v 0.203227 1.601166 0.743903
v 0.013118 1.613690 0.524903
v 0.155668 1.563647 0.806473
v -0.007457 1.564218 0.557254
v 0.033693 1.663161 0.492552
v 0.250786 1.638684 0.681333
v 0.274565 1.657443 0.650048
v 0.043980 1.687897 0.476376
v 0.023405 1.638425 0.508727
v 0.227006 1.619925 0.712618
v 0.002830 1.588954 0.541078
v 0.179447 1.582406 0.775188
v 0.131888 1.544888 0.837758
v -0.017745 1.539482 0.573429
v 0.066325 2.011630 0.226709
v 0.173925 2.011630 0.226709
v 0.298345 1.601922 0.618763
v 0.118206 1.466958 0.868099
v -0.173415 1.402390 0.923343
v -1.115533 1.473366 0.633654
v 0.208275 1.534440 0.743431
v 0.163241 1.500699 0.805765
v 0.253310 1.568181 0.681097
v 0.275828 1.585051 0.649930
v 0.230793 1.551310 0.712264
v 0.185758 1.517569 0.774598
v 0.140723 1.483828 0.836932
v 0.065351 1.656569 0.446865
v -0.025957 1.449883 0.584824
v -0.127901 1.402390 0.629729
v -1.113508 1.473366 0.620594
v 0.019697 1.553226 0.515845
v -0.003130 1.501554 0.550335
v 0.042524 1.604897 0.481355
v 0.053937 1.630733 0.464110
v 0.031111 1.579062 0.498600
v 0.008284 1.527390 0.533090
v -0.014543 1.475719 0.567579
v 0.043185 1.768698 0.473537
v -0.030108 1.579609 0.594385
v -0.127901 1.550950 0.629729
v -1.113508 1.479974 0.620594
v 0.006539 1.674153 0.533961
v -0.011785 1.626881 0.564173
v 0.024862 1.721425 0.503749
v 0.034023 1.745062 0.488643
v 0.015700 1.697789 0.518855
v -0.002623 1.650517 0.549067
v -0.020946 1.603245 0.579279
v 0.066325 2.065430 0.226709
v 0.173925 2.065430 0.226709
v 0.298345 1.750482 0.618763
v 0.098011 1.585300 0.869987
v -0.173415 1.550950 0.923343
v -1.115533 1.479974 0.633654
v 0.198178 1.667891 0.744375
v 0.148095 1.626596 0.807181
v 0.248262 1.709187 0.681569
v 0.273303 1.729834 0.650166
v 0.223220 1.688539 0.712972
v 0.173136 1.647243 0.775778
v 0.123053 1.605948 0.838584
v 0.066325 2.051980 0.226709
v 0.173925 2.051980 0.226709
v 0.298345 1.713342 0.618763
v 0.103060 1.555715 0.869515
v -0.173415 1.513810 0.923343
v -1.115533 1.478322 0.633654
v 0.200702 1.634528 0.744139
v 0.151881 1.595122 0.806827
v 0.249524 1.673935 0.681451
v 0.273934 1.693639 0.650107
v 0.225113 1.654232 0.712795
v 0.176292 1.614825 0.775483
v 0.127470 1.575418 0.838171
v 0.048727 1.740665 0.466869
v -0.029070 1.547177 0.591995
v -0.127901 1.513810 0.629729
v -1.113508 1.478322 0.620594
v 0.009828 1.643921 0.529432
v -0.009621 1.595549 0.560713
v 0.029277 1.692293 0.498150
v 0.039002 1.716479 0.482510
v 0.019553 1.668107 0.513791
v 0.000104 1.619735 0.545072
v -0.019345 1.571363 0.576354
v 0.037644 1.796730 0.480205
v -0.031146 1.612040 0.596775
v -0.127901 1.588090 0.629729
v -1.113508 1.481626 0.620594
v 0.003249 1.704385 0.538490
v -0.013948 1.658213 0.567632
v 0.020446 1.750557 0.509347
v 0.029045 1.773644 0.494776
v 0.011848 1.727471 0.523918
v -0.005350 1.681299 0.553061
v -0.022547 1.635126 0.582204
v 0.066325 2.078880 0.226709
v 0.173925 2.078880 0.226709
v 0.298345 1.787622 0.618763
v 0.092962 1.614886 0.870459
v -0.173415 1.588090 0.923343
v -1.115533 1.481626 0.633654
v 0.195654 1.701254 0.744611
v 0.144308 1.658070 0.807535
v 0.246999 1.744438 0.681687
v 0.272672 1.766030 0.650225
v 0.221327 1.722846 0.713149
v 0.169981 1.679662 0.776073
v 0.118635 1.636478 0.838997
v 0.059809 1.684601 0.453533
v -0.026994 1.482315 0.587214
v -0.127901 1.439530 0.629729
v -1.113508 1.475018 0.620594
v 0.016408 1.583458 0.520374
v -0.005293 1.532886 0.553794
v 0.038108 1.634029 0.486953
v 0.048959 1.659315 0.470243
v 0.027258 1.608744 0.503664
v 0.005557 1.558172 0.537084
v -0.016144 1.507600 0.570504
v 0.066325 2.025080 0.226709
v 0.173925 2.025080 0.226709
v 0.298345 1.639062 0.618763
v 0.113157 1.496543 0.868571
v -0.173415 1.439530 0.923343
v -1.115533 1.475018 0.633654
v 0.205751 1.567803 0.743667
v 0.159454 1.532173 0.806119
v 0.252048 1.603432 0.681215
v 0.275197 1.621247 0.649989
v 0.228900 1.585617 0.712441
v 0.182603 1.549988 0.774893
v 0.136306 1.514358 0.837345
v 0.066325 1.998180 0.226709
v 0.173925 1.998180 0.226709
v 0.298345 1.564782 0.618763
v 0.123255 1.437372 0.867627
v -0.173415 1.365250 0.923343
v -1.115533 1.471714 0.633654
v 0.210800 1.501077 0.743195
v 0.167027 1.469224 0.805411
v 0.254572 1.532929 0.680979
v 0.276459 1.548856 0.649871
v 0.232686 1.517003 0.712087
v 0.188914 1.485151 0.774303
v 0.145141 1.453298 0.836519
v 0.070892 1.628536 0.440197
v -0.024919 1.417452 0.582434
v -0.127901 1.365250 0.629729
v -1.113508 1.471714 0.620594
v 0.022987 1.522994 0.511316
v -0.000966 1.470223 0.546875
v 0.046940 1.575765 0.475757
v 0.058916 1.602151 0.457977
v 0.034963 1.549380 0.493536
v 0.011010 1.496608 0.529095
v -0.012942 1.443837 0.564655
v -0.069331 1.728866 0.612270
v -0.061295 1.751402 0.598234
v 0.069035 1.728866 0.866552
v 0.095339 1.751402 0.835031
v -0.044878 1.772629 0.589219
v -0.036842 1.795165 0.575183
v 0.130024 1.772629 0.808532
v 0.156328 1.795165 0.777011
v -0.007559 1.833677 0.550578
v 0.222148 1.833677 0.717438
v 0.000477 1.856214 0.536541
v 0.248452 1.856214 0.685916
v -0.045093 1.518719 0.432387
v -0.057632 1.491783 0.450701
v -0.045800 1.633050 0.430868
v -0.050216 1.662182 0.436466
v -0.056651 1.607764 0.447578
v -0.060503 1.637446 0.452642
v -0.029641 1.711654 0.404115
v -0.039928 1.686918 0.420291
v -0.013016 1.627557 0.384112
v -0.018558 1.655590 0.390780
v -0.084875 1.469244 0.490789
v -0.087039 1.500576 0.494249
v -0.024993 1.601172 0.401892
v -0.029971 1.629754 0.408025
v -0.096851 1.442858 0.508569
v -0.098452 1.474740 0.511494
v -0.064212 1.552247 0.459759
v -0.075625 1.526411 0.477004
v -0.093530 1.594570 0.504628
v -0.095693 1.625902 0.508087
v -0.103254 1.570384 0.520268
v -0.104855 1.602266 0.523193
v -0.035182 1.739686 0.410783
v -0.044907 1.715500 0.426424
v -0.067501 1.582479 0.464288
v -0.078352 1.557193 0.480998
v -0.060922 1.522015 0.455230
v -0.048946 1.548401 0.437451
v 0.262029 1.740119 0.800492
v 0.288333 1.762655 0.768970
v 0.220781 1.600623 0.862471
v 0.224568 1.569149 0.862117
v 0.318424 1.679437 0.737095
v 0.319686 1.644185 0.736977
v 0.294013 1.659734 0.768439
v 0.295906 1.625426 0.768262
v 0.196370 1.580920 0.893815
v 0.200788 1.550390 0.893402
v 0.274651 1.573304 0.799311
v 0.277175 1.539942 0.799075
v 0.228354 1.537675 0.861763
v 0.232141 1.506200 0.861409
v 0.297800 1.591119 0.768085
v 0.299693 1.556812 0.767908
v 0.251503 1.555490 0.830537
v 0.254658 1.523071 0.830242
v 0.209623 1.489330 0.892576
v 0.187106 1.472459 0.923743
v 0.344728 1.590553 0.705574
v 0.322210 1.573683 0.736741
v 0.161862 1.620388 0.926104
v 0.166911 1.590802 0.925632
v 0.315899 1.749940 0.737331
v 0.317162 1.714688 0.737213
v 0.341572 1.771532 0.705869
v 0.342203 1.735336 0.705810
v 0.187535 1.641980 0.894642
v 0.191953 1.611450 0.894229
v 0.267078 1.673393 0.800019
v 0.242036 1.652745 0.831423
v 0.269602 1.640030 0.799783
v 0.245192 1.620327 0.831127
v 0.264554 1.706756 0.800255
v 0.290227 1.728348 0.768793
v 0.192155 1.442874 0.923271
v 0.279700 1.506579 0.798839
v 0.323472 1.538431 0.736623
v 0.345359 1.554357 0.705515
v 0.257814 1.490652 0.829947
v 0.214041 1.458800 0.892163
v 0.095975 1.561436 0.413732
v 0.317886 1.488573 0.598965
v -0.004340 1.345952 0.560246
v 0.147844 1.368718 0.847357
v 0.008199 1.372887 0.541932
v 0.169099 1.383700 0.816308
v 0.033278 1.426758 0.505304
v 0.020739 1.399823 0.523618
v 0.211610 1.413664 0.754210
v 0.190355 1.398682 0.785259
v 0.275375 1.458609 0.661063
v 0.070896 1.507565 0.450361
v 0.083435 1.534500 0.432046
v 0.296631 1.473591 0.630014
v 0.058357 1.480629 0.468675
v 0.254120 1.443628 0.692112
v -0.151047 1.665489 0.506868
v -0.143012 1.688026 0.492831
v -0.140848 1.656694 0.489371
v -0.149447 1.633608 0.503943
v -0.117072 1.642403 0.451171
v -0.120361 1.672634 0.455700
v -0.126796 1.618217 0.466812
v -0.129523 1.648998 0.470806
v -0.102038 1.719907 0.425488
v -0.111200 1.696271 0.440594
v -0.106453 1.749039 0.431086
v -0.115052 1.725953 0.445658
vt 0.593750 0.250000
vt 0.625000 0.250000
vt 0.625000 0.500000
vt 0.593750 0.500000
vt 0.406250 0.000000
vt 0.375000 0.000000
vt 0.375000 0.000000
vt 0.406250 0.000000
vt 0.375000 0.750000
vt 0.125000 0.750000
vt 0.125000 0.750000
vt 0.375000 0.750000
vt 0.625000 0.750000
vt 0.875000 0.750000
vt 0.875000 0.750000
vt 0.625000 0.750000
vt 0.593750 0.750000
vt 0.593750 0.750000
vt 0.300473 0.010578
vt 0.300473 0.991566
vt 0.166794 0.520252
vt 0.165739 0.492128
vt 0.593750 0.750000
vt 0.625000 0.750000
vt 0.625000 1.000000
vt 0.593750 1.000000
vt 0.259798 0.006048
vt 0.161862 0.491576
vt 0.006148 0.991718
vt 0.000055 0.005638
vt 0.133275 0.491171
vt 0.132546 0.519651
vt 0.046118 0.995708
vt 0.136272 0.520032
vt 0.468750 0.750000
vt 0.437500 0.750000
vt 0.437500 0.750000
vt 0.468750 0.750000
vt 0.625000 0.750000
vt 0.875000 0.750000
vt 0.875000 0.750000
vt 0.625000 0.750000
vt 0.375000 0.750000
vt 0.125000 0.750000
vt 0.406250 0.000000
vt 0.437500 0.000000
vt 0.437500 0.000000
vt 0.406250 0.000000
vt 0.593750 0.750000
vt 0.625000 0.750000
vt 0.625000 0.750000
vt 0.593750 0.750000
vt 0.875000 0.750000
vt 0.875000 0.750000
vt 0.375000 0.750000
vt 0.125000 0.750000
vt 0.125000 0.750000
vt 0.375000 0.750000
vt 0.406250 0.000000
vt 0.375000 0.000000
vt 0.375000 0.000000
vt 0.406250 0.000000
vt 0.375000 0.000000
vt 0.375000 0.000000
vt 0.406250 0.000000
vt 0.125000 0.750000
vt 0.375000 0.750000
vt 0.375000 0.750000
vt 0.125000 0.750000
vt 0.625000 0.000000
vt 0.625000 0.000000
vt 0.625000 0.000000
vt 0.625000 0.000000
vt 0.593750 0.750000
vt 0.625000 0.750000
vt 0.625000 0.750000
vt 0.593750 0.750000
vt 0.593750 0.750000
vt 0.625000 0.750000
vt 0.375000 0.750000
vt 0.125000 0.750000
vt 0.406250 0.000000
vt 0.375000 0.000000
vt 0.375000 0.000000
vt 0.406250 0.000000
vt 0.375000 0.750000
vt 0.375000 0.750000
vt 0.375000 0.750000
vt 0.875000 0.750000
vt 0.593750 0.750000
vt 0.406250 0.000000
vt 0.375000 0.000000
vt 0.375000 0.750000
vt 0.125000 0.750000
vt 0.625000 0.750000
vt 0.875000 0.750000
vt 0.593750 0.750000
vt 0.875000 0.750000
vt 0.625000 0.750000
vt 0.375000 0.750000
vt 0.125000 0.750000
vt 0.531250 0.000000
vt 0.500000 0.000000
vt 0.500000 0.000000
vt 0.531250 0.000000
vt 0.468750 0.750000
vt 0.500000 0.750000
vt 0.500000 0.750000
vt 0.468750 0.750000
vt 0.500000 0.750000
vt 0.500000 0.750000
vt 0.468750 0.750000
vt 0.531250 0.000000
vt 0.500000 0.000000
vt 0.500000 0.000000
vt 0.531250 0.000000
vt 0.468750 0.750000
vt 0.500000 0.750000
vt 0.500000 0.750000
vt 0.468750 0.750000
vt 0.531250 0.000000
vt 0.500000 0.000000
vt 0.500000 0.000000
vt 0.531250 0.000000
vt 0.375000 0.000000
vt 0.406250 0.000000
vt 0.468750 0.750000
vt 0.500000 0.750000
vt 0.500000 0.750000
vt 0.468750 0.750000
vt 0.531250 0.000000
vt 0.500000 0.000000
vt 0.188743 0.999550
vt 0.152988 0.999945
vt 0.149311 0.520720
vt 0.153794 0.520807
vt 0.114565 0.000055
vt 0.151011 0.000343
vt 0.149696 0.490964
vt 0.145705 0.490857
vt 0.468750 0.750000
vt 0.500000 0.750000
vt 0.500000 1.000000
vt 0.468750 1.000000
vt 0.500000 0.750000
vt 0.468750 0.750000
vt 0.500000 0.000000
vt 0.531250 0.000000
vt 0.468750 0.250000
vt 0.500000 0.250000
vt 0.500000 0.500000
vt 0.468750 0.500000
vt 0.406250 0.250000
vt 0.437500 0.250000
vt 0.437500 0.500000
vt 0.406250 0.500000
vt 0.406250 0.750000
vt 0.406250 0.750000
vt 0.406250 0.750000
vt 0.406250 0.750000
vt 0.406250 0.750000
vt 0.437500 0.750000
vt 0.437500 1.000000
vt 0.406250 1.000000
vt 0.041424 0.002461
vt 0.078032 0.000762
vt 0.141758 0.490836
vt 0.137846 0.490917
vt 0.406250 0.750000
vt 0.437500 0.750000
vt 0.406250 0.750000
vt 0.406250 0.750000
vt 0.437500 0.750000
vt 0.437500 0.750000
vt 0.406250 0.750000
vt 0.562500 0.750000
vt 0.562500 0.750000
vt 0.562500 0.750000
vt 0.562500 0.750000
vt 0.406250 0.750000
vt 0.437500 0.750000
vt 0.437500 0.750000
vt 0.406250 0.750000
vt 0.406250 0.750000
vt 0.437500 0.750000
vt 0.437500 0.750000
vt 0.437500 0.750000
vt 0.437500 0.750000
vt 0.468750 0.000000
vt 0.437500 0.000000
vt 0.437500 0.000000
vt 0.468750 0.000000
vt 0.468750 0.000000
vt 0.468750 0.000000
vt 0.500000 0.000000
vt 0.437500 0.000000
vt 0.437500 0.000000
vt 0.468750 0.000000
vt 0.468750 0.000000
vt 0.437500 0.000000
vt 0.468750 0.000000
vt 0.468750 0.000000
vt 0.437500 0.000000
vt 0.437500 0.000000
vt 0.468750 0.000000
vt 0.117279 0.999565
vt 0.081653 0.998116
vt 0.140039 0.520281
vt 0.144715 0.520566
vt 0.437500 0.000000
vt 0.468750 0.000000
vt 0.593750 0.000000
vt 0.562500 0.000000
vt 0.562500 0.000000
vt 0.593750 0.000000
vt 0.260231 0.995640
vt 0.224502 0.998109
vt 0.158202 0.520762
vt 0.162535 0.520584
vt 0.593750 0.000000
vt 0.562500 0.000000
vt 0.562500 0.000000
vt 0.593750 0.000000
vt 0.593750 0.000000
vt 0.562500 0.000000
vt 0.562500 0.000000
vt 0.593750 0.000000
vt 0.593750 0.000000
vt 0.562500 0.000000
vt 0.562500 0.000000
vt 0.593750 0.000000
vt 0.593750 0.000000
vt 0.562500 0.000000
vt 0.593750 0.000000
vt 0.593750 0.000000
vt 0.531250 0.750000
vt 0.562500 0.750000
vt 0.562500 0.750000
vt 0.531250 0.750000
vt 0.468750 0.750000
vt 0.531250 0.750000
vt 0.562500 0.750000
vt 0.531250 0.750000
vt 0.531250 0.750000
vt 0.562500 0.750000
vt 0.531250 0.750000
vt 0.531250 0.750000
vt 0.562500 0.750000
vt 0.562500 0.750000
vt 0.531250 0.750000
vt 0.187368 0.001262
vt 0.223634 0.003169
vt 0.157802 0.491292
vt 0.153740 0.491086
vt 0.531250 0.750000
vt 0.562500 0.750000
vt 0.562500 1.000000
vt 0.531250 1.000000
vt 0.562500 0.750000
vt 0.531250 0.750000
vt 0.531250 0.250000
vt 0.562500 0.250000
vt 0.562500 0.500000
vt 0.531250 0.500000
vt 0.406250 0.750000
vt 0.531250 0.750000
vt 0.500000 0.750000
vt 0.531250 0.000000
vt 0.625000 0.000000
vt 0.625000 0.000000
vt 0.625000 0.000000
vt 0.625000 0.000000
vt 0.531250 0.000000
vt 0.531250 0.000000
vt 0.531250 0.000000
vt 0.562500 0.000000
vt 0.625000 0.000000
vt 0.625000 0.000000
vt 0.625000 0.000000
vt 0.625000 0.000000
vt 0.625000 0.000000
vt 0.437500 0.750000
vt 0.625000 0.750000
vt 0.593750 0.750000
vt 0.500000 0.000000
vt 0.406250 0.000000
vt 0.437500 0.000000
vt 0.437500 0.750000
vt 0.593750 0.750000
vt 0.562500 0.750000
vt 0.500000 0.750000
vt 0.375000 0.750000
vt 0.375000 1.000000
vt 0.375000 0.750000
vt 0.375000 0.250000
vt 0.375000 0.500000
vt 0.562500 0.000000
vt 0.531250 0.000000
vt 0.125000 0.750000
vt 0.125000 0.750000
vt 0.875000 0.750000
vt 0.625000 0.750000
vt 0.625000 0.000000
vt 0.625000 0.000000
vt 0.625000 0.750000
vt 0.875000 0.750000
vt 0.625000 0.000000
vt 0.625000 0.000000
vt 0.625000 0.750000
vt 0.875000 0.750000
vt 0.875000 0.750000
vt 0.625000 0.750000
vt 0.875000 0.750000
vt 0.375000 0.000000
vt 0.406250 0.000000
vt 0.500000 0.000000
vt 0.500000 0.000000
vt 0.468750 0.000000
vt 0.437500 0.000000
vt 0.437500 0.000000
vt 0.468750 0.000000
vt 0.562500 0.000000
vt 0.531250 0.000000
vt 0.468750 0.000000
vt 0.500000 0.000000
vt 0.406250 0.000000
vt 0.437500 0.000000
vt 0.437500 0.000000
vt 0.406250 0.000000
vt 0.625000 0.750000
vt 0.593750 0.750000
vt 0.437500 0.750000
vt 0.437500 0.750000
vt 0.406250 0.750000
vt 0.437500 0.750000
vt 0.437500 0.750000
vt 0.406250 0.750000
vt 0.406250 0.750000
vt 0.531250 0.750000
vt 0.562500 0.750000
vt 0.562500 0.750000
vt 0.531250 0.750000
vt 0.500000 0.750000
vt 0.531250 0.750000
vt 0.531250 0.750000
vt 0.500000 0.750000
vt 0.531250 0.750000
vt 0.593750 0.750000
vt 0.593750 0.750000
vt 0.593750 0.750000
vt 0.562500 0.750000
vt 0.468750 0.750000
vt 0.468750 0.750000
vt 0.125000 0.750000
vt 0.375000 0.750000
vt 0.375000 0.750000
vt 0.125000 0.750000
vt 0.125000 0.750000
vt 0.375000 0.750000
vt 0.125000 0.750000
vt 0.125000 0.750000
vt 0.125000 0.750000
vt 0.375000 0.000000
vt 0.375000 0.000000
vt 0.375000 0.000000
vt 0.375000 0.000000
vt 0.375000 0.000000
vt 0.375000 0.000000
vt 0.125000 0.750000
vt 0.375000 0.000000
vt 0.375000 0.000000
vt 0.593750 0.000000
vt 0.562500 0.000000
vt 0.562500 0.000000
vt 0.593750 0.000000
vt 0.531250 0.000000
vt 0.562500 0.000000
vt 0.125000 0.500000
vt 0.875000 0.500000
vt 0.875000 0.750000
vt 0.375000 0.000000
vt 0.406250 0.000000
vt 0.875000 0.750000
vt 0.625000 0.750000
vt 0.593750 0.750000
vt 0.375000 0.750000
vt 0.125000 0.750000
vt 0.500000 0.750000
vt 0.468750 0.750000
vt 0.500000 0.000000
vt 0.531250 0.000000
vt 0.437500 0.750000
vt 0.406250 0.750000
vt 0.437500 0.000000
vt 0.468750 0.000000
vt 0.562500 0.000000
vt 0.593750 0.000000
vt 0.562500 0.750000
vt 0.531250 0.750000
vt 0.625000 0.000000
vn 0.0000 0.0000 -1.0000
vn -0.8348 0.0112 -0.5504
vn -0.6602 -0.5751 0.4832
vn -0.5949 0.7487 0.2923
vn 0.7297 0.1050 0.6757
vn -0.1423 0.9896 -0.0221
vn -0.9882 0.0000 -0.1532
vn -0.2939 0.0000 0.9558
vn -0.1423 -0.9896 -0.0221
vn 0.0093 0.0000 -1.0000
vn -0.6249 -0.0528 0.7789
vn -0.4298 0.7826 0.4503
vn 0.3844 -0.8167 -0.4304
vn -0.5337 -0.2653 0.8030
vn 0.7431 0.0740 0.6651
vn -0.5152 0.7710 0.3745
vn -0.6902 -0.5707 0.4449
vn -0.8286 0.0020 -0.5599
vn -0.8163 -0.0155 -0.5774
vn 0.2781 -0.8177 -0.5040
vn -0.8502 -0.0244 -0.5259
vn 0.7647 0.0187 0.6441
vn 0.7692 0.0061 0.6390
vn 0.6493 0.5763 -0.4963
vn -0.8133 -0.0197 -0.5815
vn -0.8194 -0.0113 -0.5732
vn 0.7984 0.0983 0.5940
vn -0.3862 0.7846 0.4851
vn 0.7599 0.0317 0.6493
vn -0.8255 -0.0025 -0.5644
vn 0.4347 -0.8112 -0.3912
vn -0.6086 -0.6277 0.4854
vn 0.7491 0.0594 0.6598
vn 0.7366 0.0892 0.6704
vn 0.6351 0.6482 -0.4201
vn 0.5271 -0.7909 -0.3108
vn -0.8317 0.0065 -0.5552
vn -0.8485 0.0029 -0.5292
vn 0.7690 0.0939 0.6323
vn 0.7803 0.0624 0.6223
vn -0.8413 -0.0074 -0.5406
vn 0.7899 0.0332 0.6124
vn -0.8341 -0.0173 -0.5513
vn 0.5417 0.2092 -0.8141
vn 0.7979 0.0064 0.6027
vn 0.7941 0.0195 0.6075
vn -0.8306 -0.0221 -0.5564
vn -0.8449 -0.0023 -0.5350
vn 0.7749 0.0778 0.6273
vn -0.8377 -0.0124 -0.5460
vn 0.7853 0.0475 0.6173
vn 0.7626 0.1107 0.6373
vn -0.8521 0.0083 -0.5233
vn 0.2892 -0.9192 -0.2672
vn 0.8010 0.0486 0.5967
vn 0.7913 0.0798 0.6062
vn 0.3299 -0.8879 -0.3207
vn 0.8126 0.0065 0.5828
vn 0.8052 0.0340 0.5920
vn 0.2981 -0.9129 -0.2788
vn 0.7857 0.0964 0.6110
vn -0.8396 0.0049 -0.5432
vn 0.5380 0.2370 -0.8090
vn -0.8263 -0.0141 -0.5630
vn -0.8198 -0.0230 -0.5721
vn -0.8231 -0.0186 -0.5677
vn -0.8362 -0.0000 -0.5484
vn -0.8296 -0.0095 -0.5583
vn -0.8430 0.0099 -0.5379
vn -0.8625 0.0064 -0.5060
vn -0.8468 -0.0158 -0.5317
vn -0.8546 -0.0050 -0.5193
vn -0.8391 -0.0261 -0.5433
vn -0.8353 -0.0311 -0.5489
vn 0.4286 -0.5910 -0.6834
vn -0.8507 -0.0105 -0.5256
vn -0.8585 0.0007 -0.5128
vn 0.7526 0.0915 0.6520
vn -0.3066 0.9066 0.2900
vn 0.7747 0.0325 0.6315
vn 0.7834 0.0062 0.6215
vn 0.7792 0.0191 0.6264
vn 0.7588 0.0759 0.6468
vn 0.7698 0.0464 0.6365
vn 0.7460 0.1078 0.6572
vn 0.7542 0.1092 0.6474
vn 0.7775 0.0469 0.6271
vn 0.7668 0.0768 0.6372
vn 0.7866 0.0193 0.6171
vn 0.7906 0.0063 0.6122
vn 0.6249 0.0528 -0.7789
vn 0.7724 0.0616 0.6322
vn 0.6221 0.0836 -0.7785
vn -0.8572 0.0074 -0.5150
vn -0.8421 -0.0141 -0.5391
vn -0.8496 -0.0036 -0.5274
vn -0.8347 -0.0240 -0.5501
vn -0.8311 -0.0289 -0.5554
vn -0.8384 -0.0191 -0.5447
vn -0.4316 0.5828 0.6886
vn -0.4471 0.6055 0.6584
vn 0.5146 0.1815 -0.8380
vn -0.8559 -0.0122 -0.5171
vn -0.8478 -0.0231 -0.5298
vn -0.8398 -0.0335 -0.5418
vn -0.8438 -0.0284 -0.5359
vn -0.8600 -0.0065 -0.5103
vn -0.8518 -0.0177 -0.5236
vn -0.8682 0.0054 -0.4962
vn 0.7446 0.0903 0.6614
vn 0.7568 0.0601 0.6509
vn 0.7673 0.0321 0.6405
vn 0.7763 0.0062 0.6304
vn 0.7509 0.0749 0.6561
vn 0.7622 0.0458 0.6457
vn 0.6260 0.0386 -0.7789
vn -0.8474 0.0091 -0.5308
vn -0.8335 -0.0109 -0.5524
vn -0.8404 -0.0011 -0.5419
vn -0.8267 -0.0203 -0.5622
vn -0.8234 -0.0248 -0.5670
vn 0.5500 0.1291 -0.8251
vn -0.8370 -0.0061 -0.5472
vn -0.8439 0.0039 -0.5365
vn 0.7711 0.1122 0.6267
vn 0.6203 0.1003 -0.7780
vn 0.3147 -0.9003 -0.3006
vn 0.8015 0.0198 0.5976
vn 0.8052 0.0065 0.5929
vn 0.7975 0.0336 0.6024
vn 0.7883 0.0631 0.6120
vn 0.7773 0.0952 0.6218
vn 0.7942 0.0977 0.5998
vn 0.8044 0.0647 0.5905
vn 0.8129 0.0344 0.5813
vn 0.8200 0.0066 0.5724
vn 0.8166 0.0202 0.5768
vn 0.7995 0.0808 0.5951
vn 0.8089 0.0492 0.5859
vn 0.7883 0.1152 0.6044
vn -0.5519 -0.1036 0.8275
vn -0.8291 -0.0036 -0.5591
vn -0.8227 -0.0126 -0.5683
vn 0.4340 -0.6359 -0.6382
vn -0.8196 -0.0170 -0.5727
vn -0.8323 0.0010 -0.5543
vn -0.8259 -0.0082 -0.5638
vn -0.8388 0.0106 -0.5444
vn -0.5560 0.7612 0.3340
vn 0.6830 0.1894 0.7054
vn -0.6688 -0.6482 0.3639
vn -0.6856 -0.1928 -0.7020
vn -0.4729 0.7781 0.4133
vn 0.5624 0.6277 -0.5382
vn 0.7332 0.0874 0.6744
vn -0.7614 -0.1248 -0.6362
vn -0.3426 0.7841 0.5175
vn -0.4610 -0.6203 0.6346
vn 0.4047 0.6203 -0.6719
vn 0.7873 -0.0609 0.6135
vn -0.8224 -0.0070 -0.5689
vn -0.8271 -0.0268 -0.5614
vn -0.8329 -0.0048 -0.5534
vn -0.8534 0.0018 -0.5213
vn -0.8301 -0.0157 -0.5574
vn -0.8355 0.0057 -0.5494
vn -0.8165 -0.0213 -0.5770
vn -0.4442 0.6124 0.6539
vn 0.5450 0.1819 -0.8185
vn 0.4415 -0.6188 -0.6497
vn 0.4442 -0.6124 -0.6539
vn 0.4471 -0.6055 -0.6584
vn -0.4415 0.6188 0.6497
vn 0.4364 -0.6306 -0.6418
vn -0.5417 -0.2092 0.8141
vn -0.4389 0.6249 0.6457
vn 0.4389 -0.6249 -0.6457
vn 0.5288 0.2939 -0.7962
vn -0.5477 -0.1552 0.8221
vn -0.4501 0.5982 0.6630
vn -0.5450 -0.1819 0.8185
vn -0.4364 0.6306 0.6418
vn 0.7547 0.0453 0.6545
vn 0.7797 0.1137 0.6158
vn 0.8090 0.0200 0.5874
vn 0.7963 0.0639 0.6015
vn 0.7646 0.0608 0.6417
vn 0.7823 0.0328 0.6221
vn 0.7608 0.0927 0.6423
vn 0.7719 0.0189 0.6354
vn 0.7378 0.1064 0.6666
vn 0.7931 0.0481 0.6072
vn 0.7831 0.0788 0.6169
vn -0.2981 0.9129 0.2788
vn -0.6269 -0.0251 0.7787
vn 0.3147 -0.9003 -0.3007
vn -0.6221 -0.0836 0.7785
vn 0.6269 0.0251 -0.7787
vn 0.6277 0.0122 -0.7784
vn -0.3370 0.8817 0.3301
vn -0.6182 -0.1179 0.7771
vn -0.6236 -0.0678 0.7788
vn 0.3370 -0.8817 -0.3301
vn -0.3225 0.8941 0.3109
vn 0.6236 0.0678 -0.7788
vn -0.6260 -0.0386 0.7789
vn 0.3225 -0.8941 -0.3109
vn -0.3438 0.8757 0.3391
vn -0.6203 -0.1003 0.7780
vn -0.3299 0.8879 0.3207
vn 0.5685 -0.7769 -0.2705
vn 0.4824 -0.8025 -0.3512
vn 0.2234 -0.8131 -0.5375
vn 0.3319 -0.8189 -0.4682
vn -0.7082 -0.5672 0.4204
vn -0.6381 -0.5773 0.5095
vn 0.6806 0.5723 -0.4575
vn -0.7738 -0.0679 -0.6297
vn 0.6994 0.5690 -0.4326
vn 0.6263 0.5782 -0.5229
vn -0.8429 -0.0210 -0.5376
vn -0.8458 -0.0089 -0.5334
vn -0.8641 -0.0006 -0.5034
vn -0.4256 0.5987 0.6786
vn -0.5212 -0.1039 0.8471
vn -0.5116 -0.2086 0.8335
vn -0.5172 -0.1550 0.8417
vn 0.4229 -0.6058 -0.6739
vn 0.5194 0.1291 -0.8447
vn -0.4286 0.5910 0.6834
vn 0.5080 0.2362 -0.8283
vn 0.4256 -0.5987 -0.6786
vn -0.9710 -0.0944 -0.2199
vn 0.9532 0.0000 -0.3025
vn 0.3326 -0.5110 -0.7926
vn -0.2245 0.7379 0.6365
vn -0.4347 0.0244 -0.9003
vn -0.1040 0.9945 0.0137
vn 0.1950 0.0078 0.9808
vn 0.3142 -0.9491 -0.0205
vn -0.2994 0.7814 0.5474
vn 0.1872 0.0072 0.9823
vn -0.3729 0.0263 -0.9275
vn -0.9775 -0.1008 -0.1853
vn -0.9806 -0.1043 -0.1662
vn 0.1838 0.0070 0.9829
vn -0.4051 0.0254 -0.9139
vn -0.3377 0.0273 -0.9409
vn 0.1910 0.0075 0.9816
vn -0.9743 -0.0975 -0.2032
vn -0.9759 -0.0991 -0.1944
vn 0.1891 0.0074 0.9819
vn -0.3557 0.0268 -0.9342
vn -0.3189 0.0278 -0.9474
vn 0.1930 0.0077 0.9812
vn -0.9726 -0.0959 -0.2117
vn -0.3894 0.0258 -0.9207
vn -0.9791 -0.1025 -0.1759
vn 0.1855 0.0071 0.9826
vn 0.1821 0.0068 0.9832
vn -0.9820 -0.1061 -0.1560
vn -0.4202 0.0249 -0.9071
usemtl Material.003
s off
f 474/579/269 322/580/269 326/581/269 475/582/269
f 534/583/270 363/584/270 327/585/270 525/586/270
f 356/587/271 355/588/271 631/589/271 632/590/271
f 366/591/272 365/592/272 328/593/272 329/594/272
f 486/595/273 366/591/273 329/594/273 477/596/273
f 333/597/274 332/598/274 336/599/274 337/600/274
f 479/601/275 337/602/275 336/603/275 466/604/275
f 478/605/276 333/597/276 337/600/276 479/606/276
f 331/607/277 334/608/277 338/609/277 335/610/277
f 526/611/278 331/607/278 335/610/278 527/612/278
f 504/613/279 397/614/279 586/615/279 585/616/279
f 358/617/280 357/618/280 340/619/280 342/620/280
f 355/588/281 356/587/281 341/621/281 339/622/281
f 531/623/282 411/624/282 560/625/282 559/626/282
f 485/627/283 360/628/283 346/629/283 481/630/283
f 360/628/284 359/631/284 345/632/284 346/629/284
f 344/633/285 343/634/285 624/635/285 626/636/285
f 533/637/286 361/638/286 343/639/286 529/640/286
f 531/623/287 353/641/287 349/642/287 530/643/287
f 353/644/288 354/645/288 350/646/288 349/647/288
f 351/648/289 347/649/289 543/650/289 545/651/289
f 483/652/290 352/653/290 348/654/290 482/655/290
f 476/656/291 324/657/291 352/653/291 483/652/291
f 349/647/292 350/646/292 627/658/292 628/659/292
f 524/660/293 319/661/293 353/641/293 531/623/293
f 530/643/294 349/642/294 355/662/294 532/663/294
f 323/664/295 354/645/295 630/665/295 618/666/295
f 348/654/296 347/667/296 357/618/296 358/617/296
f 482/655/297 348/654/297 358/617/297 484/668/297
f 528/669/298 339/670/298 361/638/298 533/637/298
f 339/622/299 341/621/299 362/671/299 361/672/299
f 359/631/300 360/628/300 541/673/300 539/674/300
f 480/675/301 342/620/301 360/628/301 485/627/301
f 481/630/302 346/629/302 366/591/302 486/595/302
f 346/629/303 345/632/303 536/676/303 538/677/303
f 343/634/304 344/633/304 364/678/304 363/679/304
f 529/640/305 343/639/305 363/584/305 534/583/305
f 457/680/306 380/681/306 390/682/306 462/683/306
f 505/684/307 379/685/307 389/686/307 510/687/307
f 504/613/308 377/688/308 388/689/308 509/690/308
f 456/691/309 378/692/309 387/693/309 461/694/309
f 506/695/310 382/696/310 386/697/310 508/698/310
f 458/699/311 381/700/311 385/701/311 460/702/311
f 532/663/312 355/662/312 547/703/312 574/704/312
f 500/705/313 370/706/313 383/707/313 507/708/313
f 507/708/314 383/707/314 382/696/314 506/695/314
f 459/709/315 384/710/315 381/700/315 458/699/315
f 461/694/316 387/693/316 380/681/316 457/680/316
f 509/690/317 388/689/317 379/685/317 505/684/317
f 460/702/318 385/701/318 378/692/318 456/691/318
f 508/698/319 386/697/319 377/688/319 504/613/319
f 454/711/278 373/712/278 375/713/278 455/714/278
f 502/715/276 374/716/276 376/717/276 503/718/276
f 503/719/275 376/720/275 375/721/275 490/722/275
f 510/687/320 389/686/320 372/723/320 501/724/320
f 462/683/321 390/682/321 371/725/321 453/726/321
f 498/727/269 368/728/269 369/729/269 499/730/269
f 511/731/269 391/732/269 392/733/269 512/734/269
f 514/735/322 523/736/322 616/737/322 611/738/322
f 516/739/275 396/740/275 407/741/275 527/742/275
f 515/743/276 395/744/276 396/745/276 516/746/276
f 521/747/323 401/748/323 397/614/323 517/749/323
f 522/750/324 402/751/324 398/752/324 518/753/324
f 434/754/325 435/755/325 602/756/325 600/757/325
f 513/758/326 393/759/326 400/760/326 520/761/326
f 519/762/327 399/763/327 401/748/327 521/747/327
f 398/752/328 402/751/328 592/764/328 588/765/328
f 518/753/329 398/752/329 403/766/329 523/736/329
f 492/767/330 409/768/330 414/769/330 497/770/330
f 381/700/331 493/771/331 549/772/331 550/773/331
f 493/771/332 410/774/332 412/775/332 495/776/332
f 487/777/333 404/778/333 411/624/333 494/779/333
f 494/779/334 411/624/334 410/774/334 493/771/334
f 496/780/335 413/781/335 409/768/335 492/767/335
f 495/776/336 412/775/336 408/782/336 491/783/336
f 489/784/278 406/785/278 407/786/278 490/787/278
f 497/770/337 414/769/337 405/788/337 488/789/337
f 473/790/338 425/791/338 416/792/338 464/793/338
f 465/794/278 417/795/278 418/796/278 466/797/278
f 471/798/339 423/799/339 419/800/339 467/801/339
f 472/802/340 424/803/340 420/804/340 468/805/340
f 470/806/341 422/807/341 421/808/341 469/809/341
f 463/810/342 415/811/342 422/807/342 470/806/342
f 468/805/343 473/790/343 636/812/343 635/813/343
f 467/801/344 419/800/344 424/803/344 472/802/344
f 468/805/345 420/804/345 425/791/345 473/790/345
f 446/814/346 433/815/346 438/816/346 451/817/346
f 508/698/347 504/613/347 585/616/347 589/818/347
f 447/819/348 434/754/348 436/820/348 449/821/348
f 441/822/349 428/823/349 435/755/349 448/824/349
f 448/824/350 435/755/350 434/754/350 447/819/350
f 450/825/351 437/826/351 433/815/351 446/814/351
f 449/821/352 436/820/352 432/827/352 445/828/352
f 443/829/276 430/830/276 431/831/276 444/832/276
f 444/833/275 431/834/275 418/835/275 455/836/275
f 451/817/353 438/816/353 429/837/353 442/838/353
f 439/839/269 426/840/269 427/841/269 440/842/269
f 368/728/269 439/839/269 440/842/269 369/729/269
f 389/686/354 451/817/354 442/838/354 372/723/354
f 376/720/275 444/833/275 455/836/275 375/721/275
f 374/716/276 443/829/276 444/832/276 376/717/276
f 386/697/355 449/821/355 445/828/355 377/688/355
f 388/689/356 450/825/356 446/814/356 379/685/356
f 383/707/357 448/824/357 447/819/357 382/696/357
f 370/706/358 441/822/358 448/824/358 383/707/358
f 517/749/359 397/614/359 586/615/359 612/843/359
f 377/688/360 445/828/360 450/825/360 388/689/360
f 379/685/361 446/814/361 577/844/361 578/845/361
f 425/791/362 462/683/362 453/726/362 416/792/362
f 417/795/278 454/711/278 455/714/278 418/796/278
f 423/799/363 460/702/363 456/691/363 419/800/363
f 424/803/364 461/694/364 457/680/364 420/804/364
f 422/807/365 459/709/365 458/699/365 421/808/365
f 415/811/366 452/846/366 459/709/366 422/807/366
f 421/808/367 458/699/367 460/702/367 423/799/367
f 365/847/368 345/848/368 634/849/368 633/850/368
f 459/709/369 452/846/369 569/851/369 570/852/369
f 419/800/370 456/691/370 637/853/370 638/854/370
f 340/855/371 467/801/371 472/802/371 359/856/371
f 347/649/372 469/809/372 471/798/372 357/857/372
f 320/858/373 463/810/373 470/806/373 351/648/373
f 351/648/374 470/806/374 469/809/374 347/649/374
f 359/856/375 472/802/375 468/805/375 345/848/375
f 357/857/376 471/798/376 467/801/376 340/855/376
f 332/598/278 465/794/278 466/797/278 336/599/278
f 365/847/377 473/790/377 464/793/377 328/859/377
f 433/815/378 481/630/378 486/595/378 438/816/378
f 432/827/379 480/675/379 485/627/379 437/826/379
f 434/754/380 482/655/380 484/668/380 436/820/380
f 428/823/381 476/656/381 483/652/381 435/755/381
f 397/614/328 401/748/328 590/860/328 586/615/328
f 437/826/382 485/627/382 481/630/382 433/815/382
f 436/820/383 484/668/383 480/675/383 432/827/383
f 430/830/276 478/605/276 479/606/276 431/831/276
f 431/834/275 479/601/275 466/604/275 418/835/275
f 484/668/384 358/617/384 576/861/384 610/862/384
f 426/840/269 474/579/269 475/582/269 427/841/269
f 390/682/385 497/770/385 488/789/385 371/725/385
f 373/712/278 489/784/278 490/787/278 375/713/278
f 385/701/386 495/776/386 491/783/386 378/692/386
f 387/693/387 496/780/387 492/767/387 380/681/387
f 384/710/388 494/779/388 493/771/388 381/700/388
f 367/863/389 487/777/389 494/779/389 384/710/389
f 409/768/390 529/640/390 557/864/390 558/865/390
f 378/692/391 491/783/391 496/780/391 387/693/391
f 380/681/392 492/767/392 497/770/392 390/682/392
f 391/732/269 498/727/269 499/730/269 392/733/269
f 403/766/393 510/687/393 501/724/393 394/866/393
f 396/740/275 503/719/275 490/722/275 407/741/275
f 395/744/276 502/715/276 503/718/276 396/745/276
f 438/816/394 486/595/394 603/867/394 604/868/394
f 389/686/395 379/685/395 578/845/395 584/869/395
f 400/760/396 507/708/396 506/695/396 399/763/396
f 393/759/397 500/705/397 507/708/397 400/760/397
f 399/763/398 506/695/398 508/698/398 401/748/398
f 397/614/399 504/613/399 509/690/399 402/751/399
f 398/752/400 505/684/400 510/687/400 403/766/400
f 344/633/401 518/753/401 523/736/401 364/678/401
f 341/621/402 517/749/402 522/750/402 362/671/402
f 350/646/403 519/762/403 521/747/403 356/587/403
f 323/664/404 513/758/404 520/761/404 354/645/404
f 354/645/405 520/761/405 519/762/405 350/646/405
f 362/671/406 522/750/406 518/753/406 344/633/406
f 356/587/407 521/747/407 517/749/407 341/621/407
f 334/608/276 515/743/276 516/746/276 338/609/276
f 338/870/275 516/739/275 527/742/275 335/871/275
f 364/678/408 523/736/408 514/735/408 330/872/408
f 321/873/269 511/731/269 512/734/269 325/874/269
f 462/683/409 425/791/409 568/875/409 567/876/409
f 408/782/410 528/669/410 533/637/410 413/781/410
f 410/774/411 530/643/411 532/663/411 412/775/411
f 355/588/412 339/622/412 548/877/412 547/878/412
f 411/624/413 531/623/413 530/643/413 410/774/413
f 413/781/414 533/637/414 529/640/414 409/768/414
f 412/775/415 532/663/415 528/669/415 408/782/415
f 406/785/278 526/611/278 527/612/278 407/786/278
f 414/769/416 534/583/416 525/586/416 405/788/416
f 538/677/417 536/676/417 535/879/417 537/880/417
f 366/591/418 346/629/418 538/677/418 537/880/418
f 365/592/419 366/591/419 537/880/419 535/879/419
f 345/848/420 365/847/420 535/881/420 536/882/420
f 542/883/421 540/884/421 539/674/421 541/673/421
f 342/620/422 340/619/422 540/884/422 542/883/422
f 360/628/423 342/620/423 542/883/423 541/673/423
f 340/855/424 359/856/424 539/885/424 540/886/424
f 546/887/425 545/888/425 543/889/425 544/890/425
f 347/667/426 348/654/426 544/890/426 543/889/426
f 352/653/427 351/891/427 545/888/427 546/887/427
f 348/654/428 352/653/428 546/887/428 544/890/428
f 574/704/429 547/703/429 548/892/429 573/893/429
f 569/851/430 553/894/430 554/895/430 570/852/430
f 571/896/431 563/897/431 564/898/431 572/899/431
f 566/900/432 565/901/432 567/876/432 568/875/432
f 550/773/433 549/772/433 551/902/433 552/903/433
f 558/865/434 557/864/434 561/904/434 562/905/434
f 556/906/435 555/907/435 559/626/435 560/625/435
f 385/701/436 381/700/436 550/773/436 552/903/436
f 491/783/437 408/782/437 563/897/437 571/896/437
f 493/771/438 495/776/438 551/902/438 549/772/438
f 384/710/282 459/709/282 570/852/282 554/895/282
f 367/863/439 384/710/439 554/895/439 553/894/439
f 457/680/440 462/683/440 567/876/440 565/901/440
f 496/780/441 491/783/441 571/896/441 572/899/441
f 534/583/409 414/769/409 562/905/409 561/904/409
f 529/640/442 534/583/442 561/904/442 557/864/442
f 495/776/443 385/701/443 552/903/443 551/902/443
f 414/769/444 409/768/444 558/865/444 562/905/444
f 408/782/445 413/781/445 564/898/445 563/897/445
f 420/804/390 457/680/390 565/901/390 566/900/390
f 524/660/442 531/623/442 559/626/442 555/907/442
f 404/778/446 524/660/446 555/907/446 556/906/446
f 413/781/447 496/780/447 572/899/447 564/898/447
f 425/791/448 420/804/448 566/900/448 568/875/448
f 411/624/444 404/778/444 556/906/444 560/625/444
f 452/846/446 367/863/446 553/894/446 569/851/446
f 339/670/449 528/669/449 573/893/449 548/892/449
f 528/669/450 532/663/450 574/704/450 573/893/450
f 610/862/451 576/861/451 575/908/451 609/909/451
f 616/737/452 593/910/452 594/911/452 611/738/452
f 614/912/453 595/913/453 596/914/453 613/915/453
f 612/843/454 586/615/454 592/764/454 615/916/454
f 607/917/455 605/918/455 606/919/455 608/920/455
f 580/921/456 579/922/456 581/923/456 582/924/456
f 578/845/457 577/844/457 583/925/457 584/869/457
f 602/756/458 601/926/458 599/927/458 600/757/458
f 604/868/459 603/867/459 597/928/459 598/929/459
f 590/860/460 589/818/460 585/616/460 586/615/460
f 592/764/461 591/930/461 587/931/461 588/765/461
f 509/690/347 505/684/347 587/931/347 591/930/347
f 400/760/462 399/763/462 596/914/462 595/913/462
f 399/763/463 519/762/463 613/915/463 596/914/463
f 386/697/464 382/696/464 580/921/464 582/924/464
f 505/684/465 398/752/465 588/765/465 587/931/465
f 382/696/466 447/819/466 579/922/466 580/921/466
f 520/761/467 400/760/467 595/913/467 614/912/467
f 483/652/468 482/655/468 599/927/468 601/926/468
f 445/828/359 432/827/359 605/918/359 607/917/359
f 477/596/469 429/837/469 598/929/469 597/928/469
f 397/614/462 402/751/462 592/764/462 586/615/462
f 402/751/470 522/750/470 615/916/470 592/764/470
f 480/675/471 484/668/471 610/862/471 609/909/471
f 401/748/384 508/698/384 589/818/384 590/860/384
f 522/750/322 517/749/322 612/843/322 615/916/322
f 447/819/472 449/821/472 581/923/472 579/922/472
f 523/736/394 403/766/394 593/910/394 616/737/394
f 402/751/473 509/690/473 591/930/473 592/764/473
f 449/821/474 386/697/474 582/924/474 581/923/474
f 450/825/475 445/828/475 607/917/475 608/920/475
f 358/617/476 342/620/476 575/908/476 576/861/476
f 429/837/325 438/816/325 604/868/325 598/929/325
f 446/814/472 451/817/472 583/925/472 577/844/472
f 437/826/470 450/825/470 608/920/470 606/919/470
f 519/762/322 520/761/322 614/912/322 613/915/322
f 482/655/463 434/754/463 600/757/463 599/927/463
f 342/620/279 480/675/279 609/909/279 575/908/279
f 403/766/462 394/866/462 594/911/462 593/910/462
f 486/595/468 477/596/468 597/928/468 603/867/468
f 451/817/477 389/686/477 584/869/477 583/925/477
f 435/755/467 483/652/467 601/926/467 602/756/467
f 394/866/469 514/735/469 611/738/469 594/911/469
f 432/827/478 437/826/478 606/919/478 605/918/478
f 621/932/479 622/933/479 620/934/479 619/935/479
f 623/936/480 625/937/480 626/636/480 624/635/480
f 617/938/481 618/666/481 630/665/481 629/939/481
f 628/659/482 627/658/482 632/590/482 631/589/482
f 330/872/483 327/940/483 619/935/483 620/934/483
f 354/645/484 353/644/484 629/939/484 630/665/484
f 361/672/485 362/671/485 625/937/485 623/936/485
f 343/639/486 361/638/486 623/941/486 624/942/486
f 362/671/295 344/633/295 626/636/295 625/937/295
f 363/679/487 364/678/487 622/933/487 621/932/487
f 327/585/486 363/584/486 621/943/486 619/944/486
f 355/662/486 349/642/486 628/945/486 631/946/486
f 350/646/295 356/587/295 632/590/295 627/658/295
f 319/947/488 323/664/488 618/666/488 617/938/488
f 353/641/486 319/661/486 617/948/486 629/949/486
f 364/678/295 330/872/295 620/934/295 622/933/295
f 643/950/489 641/951/489 642/952/489 644/953/489
f 638/854/490 637/853/490 639/954/490 640/955/490
f 634/849/491 635/813/491 636/812/491 633/850/491
f 424/803/492 419/800/492 638/854/492 640/955/492
f 473/790/493 365/847/493 633/850/493 636/812/493
f 423/799/494 471/798/494 644/953/494 642/952/494
f 461/694/495 424/803/495 640/955/495 639/954/495
f 456/691/496 461/694/496 639/954/496 637/853/496
f 345/848/497 468/805/497 635/813/497 634/849/497
f 471/798/498 469/809/498 643/950/498 644/953/498
f 469/809/499 421/808/499 641/951/499 643/950/499
f 421/808/500 423/799/500 642/952/500 641/951/500
usemtl psata
f 463/810/501 320/858/501 322/580/501 474/579/501
f 475/582/502 326/581/502 324/657/502 476/656/502
f 321/956/503 325/874/503 323/664/503 319/947/503
f 326/581/504 322/957/504 320/958/504 324/657/504
f 525/586/505 327/585/505 331/959/505 526/960/505
f 329/594/506 328/593/506 332/961/506 333/962/506
f 477/596/507 329/594/507 333/962/507 478/963/507
f 327/940/508 330/872/508 334/964/508 331/965/508
f 324/657/509 320/958/509 351/891/509 352/653/509
f 501/724/510 372/723/510 374/966/510 502/967/510
f 453/726/511 371/725/511 373/968/511 454/969/511
f 499/730/502 369/729/502 370/706/502 500/705/502
f 487/777/512 367/863/512 368/728/512 498/727/512
f 524/660/513 404/778/513 391/732/513 511/731/513
f 512/734/502 392/733/502 393/759/502 513/758/502
f 514/735/514 394/866/514 395/970/514 515/971/514
f 488/789/515 405/788/515 406/972/515 489/973/515
f 464/793/516 416/792/516 417/974/516 465/975/516
f 442/838/517 429/837/517 430/976/517 443/977/517
f 440/842/502 427/841/502 428/823/502 441/822/502
f 452/846/518 415/811/518 426/840/518 439/839/518
f 367/863/519 452/846/519 439/839/519 368/728/519
f 369/729/502 440/842/502 441/822/502 370/706/502
f 372/723/520 442/838/520 443/977/520 374/966/520
f 416/792/521 453/726/521 454/969/521 417/974/521
f 328/859/522 464/793/522 465/975/522 332/978/522
f 429/837/523 477/596/523 478/963/523 430/976/523
f 427/841/502 475/582/502 476/656/502 428/823/502
f 415/811/524 463/810/524 474/579/524 426/840/524
f 371/725/525 488/789/525 489/973/525 373/968/525
f 404/778/526 487/777/526 498/727/526 391/732/526
f 392/733/502 499/730/502 500/705/502 393/759/502
f 394/866/527 501/724/527 502/967/527 395/970/527
f 330/872/528 514/735/528 515/971/528 334/964/528
f 325/874/502 512/734/502 513/758/502 323/664/502
f 319/661/529 524/660/529 511/731/529 321/873/529
f 405/788/530 525/586/530 526/960/530 406/972/530
