# Blender v2.92.0 OBJ File: 'zombie_sphaggeti.blend'
# www.blender.org
mtllib eye.mtl
o eye_l_Sphere.001
v -0.209932 2.204908 0.063583
v -0.231678 2.126880 0.061670
v -0.209932 2.060328 0.102447
v -0.148447 2.199468 0.043348
v -0.144724 2.119188 0.033053
v -0.148447 2.054889 0.082212
v -0.093729 2.208556 0.077155
v -0.067342 2.132040 0.080864
v -0.093729 2.063977 0.116020
v -0.086983 2.225328 0.139546
v -0.057802 2.155758 0.169099
v -0.086983 2.080748 0.178411
v -0.133289 2.237154 0.183540
v -0.123287 2.172483 0.231315
v -0.133289 2.092574 0.222405
v -0.157435 2.248703 0.107065
v -0.197776 2.235129 0.176008
v -0.214487 2.169620 0.220664
v -0.197776 2.090549 0.214873
v -0.231886 2.220778 0.122622
v -0.262725 2.149324 0.145164
v -0.231886 2.076199 0.161487
v -0.157435 2.044237 0.162028
vt 0.714286 0.500000
vt 0.714286 0.750000
vt 0.571429 0.750000
vt 0.571429 0.500000
vt 0.714286 0.250000
vt 0.571429 0.250000
vt 0.642857 1.000000
vt 0.642857 0.000000
vt 0.428571 0.500000
vt 0.428571 0.250000
vt 0.500000 1.000000
vt 0.428571 0.750000
vt 0.500000 0.000000
vt 0.285714 0.500000
vt 0.285714 0.250000
vt 0.357143 1.000000
vt 0.285714 0.750000
vt 0.357143 0.000000
vt 0.142857 0.750000
vt 0.142857 0.500000
vt 0.142857 0.250000
vt 0.214286 1.000000
vt 0.214286 0.000000
vt 0.071429 0.000000
vt 0.000000 0.250000
vt 0.319579 0.403131
vt 0.319580 0.653131
vt 0.176722 0.653131
vt 0.176722 0.403131
vt 0.319580 0.153131
vt 0.176722 0.153131
vt 0.248151 0.903131
vt 0.782853 0.084370
vt 0.854282 0.334370
vt 0.711424 0.334370
vt 0.773087 0.496875
vt 0.773087 0.746875
vt 0.519200 0.746875
vt 0.519200 0.496875
vt 0.773087 0.246875
vt 0.519200 0.246875
vt 0.953494 0.606259
vt 0.928571 0.753140
vt 0.810637 0.606259
vt 0.639996 0.084370
vt 0.568567 0.334370
vt 0.265313 0.746875
vt 0.265313 0.496875
vt 0.265313 0.246875
vt 0.736108 0.903131
vn -0.3022 0.1074 -0.9472
vn -0.3022 -0.5679 -0.7656
vn -0.1347 0.7748 -0.6177
vn -0.1347 -0.9801 -0.1460
vn 0.5049 -0.5425 -0.6714
vn 0.2251 0.7861 -0.5757
vn 0.2251 -0.9688 -0.1039
vn 0.5049 0.1328 -0.8529
vn 0.9318 -0.3629 -0.0032
vn 0.4155 0.8662 -0.2778
vn 0.4155 -0.8887 0.1940
vn 0.9318 0.3124 -0.1847
vn 0.6571 0.5110 0.5542
vn 0.6570 -0.1643 0.7357
vn 0.2929 0.9547 0.0517
vn 0.2929 -0.8001 0.5234
vn -0.0502 -0.7698 0.6363
vn -0.1125 0.5791 0.8075
vn -0.1125 -0.0962 0.9890
vn -0.0502 0.9851 0.1646
vn -0.3555 -0.8205 0.4477
vn -0.7973 0.4654 0.3843
vn -0.7973 -0.2099 0.5659
vn -0.3555 0.9344 -0.0240
vn -0.3931 -0.9141 0.0995
vn -0.8818 0.2555 -0.3965
vn -0.8818 -0.4199 -0.2150
vn -0.3931 0.8408 -0.3722
usemtl Material.001
s off
f 2/1/1 1/2/1 4/3/1 5/4/1
f 3/5/2 2/1/2 5/4/2 6/6/2
f 1/2/3 16/7/3 4/3/3
f 23/8/4 3/5/4 6/6/4
f 6/6/5 5/4/5 8/9/5 9/10/5
f 4/3/6 16/11/6 7/12/6
f 23/13/7 6/6/7 9/10/7
f 5/4/8 4/3/8 7/12/8 8/9/8
f 9/10/9 8/9/9 11/14/9 12/15/9
f 7/12/10 16/16/10 10/17/10
f 23/18/11 9/10/11 12/15/11
f 8/9/12 7/12/12 10/17/12 11/14/12
f 11/14/13 10/17/13 13/19/13 14/20/13
f 12/15/14 11/14/14 14/20/14 15/21/14
f 10/17/15 16/22/15 13/19/15
f 23/23/16 12/15/16 15/21/16
f 23/24/17 15/21/17 19/25/17
f 14/26/18 13/27/18 17/28/18 18/29/18
f 15/30/19 14/26/19 18/29/19 19/31/19
f 13/27/20 16/32/20 17/28/20
f 23/33/21 19/34/21 22/35/21
f 18/36/22 17/37/22 20/38/22 21/39/22
f 19/40/23 18/36/23 21/39/23 22/41/23
f 17/42/24 16/43/24 20/44/24
f 23/45/25 22/35/25 3/46/25
f 21/39/26 20/38/26 1/47/26 2/48/26
f 22/41/27 21/39/27 2/48/27 3/49/27
f 20/44/28 16/50/28 1/2/28
