# Blender v2.92.0 OBJ File: 'zombie_sphaggeti.blend'
# www.blender.org
mtllib leg_right.mtl
o leg_r_Cube.002
v 0.000000 -0.031147 -0.071609
v 0.000000 0.031147 -0.071609
v -0.229992 -0.031147 -0.301601
v -0.302806 -0.011023 -0.301601
v 0.229992 -0.031147 -0.301601
v 0.229992 0.031147 -0.301601
v 0.000000 -0.031147 -0.531593
v 0.000000 0.031147 -0.531593
v -0.114996 -0.031147 -0.416597
v -0.187810 -0.011023 -0.416597
v 0.114996 -0.031147 -0.186605
v 0.114996 0.031147 -0.186605
v -0.114996 -0.031147 -0.186605
v -0.187810 -0.011023 -0.186605
v 0.114996 -0.031147 -0.416597
v 0.114996 0.031147 -0.416597
v -0.072814 -0.011023 -0.301601
v 0.000000 -0.031147 -0.301601
v 0.339333 0.538245 -0.361814
v 0.399546 0.538245 -0.301601
v 0.339333 0.538245 -0.241388
v 0.240994 0.516164 -0.301601
v 0.003534 1.179669 -0.161814
v 0.063746 1.179669 -0.101601
v 0.003534 1.179669 -0.041388
v -0.094805 1.157588 -0.101601
v 0.227164 0.284696 -0.213997
v 0.084090 0.252570 -0.301601
v 0.227164 0.284696 -0.389206
v 0.314769 0.284696 -0.301601
v 0.283249 0.411470 -0.227692
v 0.162542 0.484512 -0.301601
v 0.283249 0.411470 -0.375510
v 0.357157 0.411470 -0.301601
v -0.162886 0.522698 -0.413156
v 0.255207 0.348083 -0.382358
v 0.335963 0.348083 -0.301601
v 0.255207 0.348083 -0.220844
vt 0.375000 0.125000
vt 0.625000 0.125000
vt 0.625000 0.250000
vt 0.375000 0.250000
vt 0.375000 0.375000
vt 0.625000 0.375000
vt 0.625000 0.500000
vt 0.375000 0.500000
vt -0.025691 0.999977
vt -0.027558 0.948509
vt 0.025728 0.947690
vt 0.027294 0.999524
vt 0.375000 0.875000
vt 0.625000 0.875000
vt 0.625000 1.000000
vt 0.375000 1.000000
vt 0.250000 0.625000
vt 0.375000 0.625000
vt 0.375000 0.750000
vt 0.250000 0.750000
vt 0.750000 0.625000
vt 1.000737 0.625000
vt 1.000737 0.875737
vt 0.750000 0.875737
vt 0.887481 0.095156
vt 0.999956 0.189693
vt 0.769178 0.123847
vt 0.820606 0.095281
vt 0.125000 0.625000
vt 0.125000 0.750000
vt 0.079137 0.948012
vt 0.079697 0.999281
vt 0.125000 0.500000
vt 0.250000 0.500000
vt 0.499263 0.374263
vt 0.750000 0.374263
vt 0.499263 0.625000
vt 1.000737 0.374263
vt 0.625000 0.625000
vt 0.375000 0.000000
vt 0.625000 0.000000
vt 0.768793 0.066749
vt 0.024385 0.105685
vt 0.000967 0.076864
vt 0.999956 0.000044
vt 0.019447 0.632114
vt -0.014286 0.633011
vt -0.010034 0.528722
vt 0.017409 0.528739
vt 0.053208 0.632692
vt 0.044778 0.528469
vt 0.625000 0.625000
vt 0.750000 0.625000
vt 0.750000 0.750000
vt 0.625000 0.750000
vt 0.052295 0.001097
vt 0.079697 0.000023
vt 0.000044 0.133812
vt 0.024854 0.000289
vt 0.021534 0.736237
vt 0.061558 0.736920
vt -0.018456 0.737299
vt 0.153115 0.253059
vt 0.000050 0.126555
vt 0.883345 0.126555
vt 0.999950 0.222926
vt 0.153115 0.000050
vt 0.999950 0.030184
vt 0.057381 0.684807
vt 0.020490 0.684171
vt -0.016369 0.685156
vt 0.642291 0.072216
vt 0.184462 0.194442
vt 0.006164 0.061309
vt 0.358924 0.000098
vt 0.121317 0.720851
vt 0.000098 0.438030
vt 0.999902 0.859400
vt 0.618638 0.964921
vt 0.999902 0.474849
vn -0.2574 -0.9314 0.2574
vn -0.5021 -0.4436 -0.7424
vn 0.7071 0.0000 -0.7071
vn 0.7071 0.0000 0.7071
vn 0.0000 -1.0000 0.0000
vn -0.1366 0.9812 -0.1366
vn -0.4036 0.4133 0.8162
vn -0.2574 -0.9314 -0.2574
vn -0.1366 0.9812 0.1366
vn 0.0000 1.0000 0.0000
vn -0.5021 -0.4436 0.7424
vn -0.5211 -0.0067 -0.8535
vn -0.4036 0.4133 -0.8162
vn 0.6881 -0.2301 -0.6881
vn 0.6881 -0.2301 0.6881
vn -0.1379 0.9904 -0.0000
vn 0.6993 0.1481 0.6993
vn -0.3891 -0.4537 0.8018
vn 0.6088 0.5086 -0.6088
vn -0.5458 0.3249 -0.7723
vn -0.5458 0.3249 0.7723
vn 0.2149 0.6014 -0.7695
vn -0.2895 0.3343 0.8969
vn -0.4401 0.0297 0.8974
vn -0.1938 -0.4074 -0.8925
usemtl metal
s off
f 13/1/1 14/2/1 4/3/1 3/4/1
f 9/5/2 10/6/2 8/7/2 7/8/2
f 15/9/3 16/10/3 6/11/3 5/12/3
f 11/13/4 12/14/4 2/15/4 1/16/4
f 18/17/5 15/18/5 5/19/5 11/20/5
f 17/21/6 14/22/6 2/23/6 12/24/6
f 32/25/7 31/26/7 21/27/7 22/28/7
f 13/29/5 18/17/5 11/20/5 1/30/5
f 5/12/4 6/11/4 12/31/4 11/32/4
f 3/4/8 4/3/8 10/6/8 9/5/8
f 3/33/5 9/34/5 18/17/5 13/29/5
f 8/35/9 10/36/9 17/21/9 16/37/9
f 10/36/10 4/38/10 14/22/10 17/21/10
f 9/34/5 7/8/5 15/18/5 18/17/5
f 7/8/3 8/7/3 16/39/3 15/18/3
f 1/40/11 2/41/11 14/2/11 13/1/11
f 19/42/12 22/28/12 26/43/12 23/44/12
f 33/45/13 32/25/13 22/28/13 19/42/13
f 34/46/14 33/47/14 19/48/14 20/49/14
f 31/50/15 34/46/15 20/49/15 21/51/15
f 23/52/16 26/53/16 25/54/16 24/55/16
f 21/51/17 20/49/17 24/56/17 25/57/17
f 22/28/18 21/27/18 25/58/18 26/43/18
f 20/49/19 19/48/19 23/59/19 24/56/19
f 12/31/15 6/11/15 30/60/15 27/61/15
f 6/11/14 16/10/14 29/62/14 30/60/14
f 16/63/20 17/64/20 28/65/20 29/66/20
f 17/64/21 12/67/21 27/68/21 28/65/21
f 38/69/15 37/70/15 34/46/15 31/50/15
f 37/70/14 36/71/14 33/47/14 34/46/14
f 36/72/22 35/73/22 32/74/22 33/75/22
f 35/73/23 38/76/23 31/77/23 32/74/23
f 28/78/24 27/79/24 38/76/24 35/73/24
f 29/80/25 28/78/25 35/73/25 36/72/25
f 30/60/14 29/62/14 36/71/14 37/70/14
f 27/61/15 30/60/15 37/70/15 38/69/15
