# Blender v2.92.0 OBJ File: 'zombie_sphaggeti.blend'
# www.blender.org
mtllib leg_left.mtl
o leg_l_Cube.003
v 0.000000 -0.031147 0.535075
v 0.000000 0.031147 0.535075
v -0.229992 -0.031147 0.305083
v -0.302806 -0.011023 0.305083
v 0.229992 -0.031147 0.305083
v 0.229992 0.031147 0.305083
v 0.000000 -0.031147 0.075091
v 0.000000 0.031147 0.075091
v -0.114996 -0.031147 0.190087
v -0.187810 -0.011023 0.190087
v 0.114996 -0.031147 0.420079
v 0.114996 0.031147 0.420079
v -0.114996 -0.031147 0.420079
v -0.187810 -0.011023 0.420079
v 0.114996 -0.031147 0.190087
v 0.114996 0.031147 0.190087
v -0.072814 -0.011023 0.305083
v 0.000000 -0.031147 0.305083
v 0.339333 0.538245 0.244870
v 0.399546 0.538245 0.305083
v 0.339333 0.538245 0.365296
v 0.240994 0.516164 0.305083
v 0.003534 1.179669 0.044870
v 0.063746 1.179669 0.105083
v 0.003534 1.179669 0.165296
v -0.094805 1.157588 0.105083
v 0.317404 0.545981 0.436146
v 0.210319 0.464632 0.305083
v 0.317404 0.488676 0.239515
v 0.382972 0.488676 0.305083
v 0.184630 0.421474 0.305083
v 0.299039 0.447163 0.235030
v 0.369092 0.447163 0.305083
v 0.299039 0.447163 0.375136
vt 0.375000 0.125000
vt 0.625000 0.125000
vt 0.625000 0.250000
vt 0.375000 0.250000
vt 0.375000 0.375000
vt 0.625000 0.375000
vt 0.625000 0.500000
vt 0.375000 0.500000
vt 0.058085 0.000760
vt 0.056613 0.052093
vt 0.030946 0.051357
vt 0.032419 0.000024
vt 0.375000 0.875000
vt 0.625000 0.875000
vt 0.625000 1.000000
vt 0.375000 1.000000
vt 0.250000 0.625000
vt 0.375000 0.625000
vt 0.375000 0.750000
vt 0.250000 0.750000
vt 0.346229 0.346229
vt 0.346229 0.000100
vt 0.999900 0.109682
vt 0.999899 0.455810
vt 0.450992 0.577474
vt 0.339191 0.134499
vt 0.363563 0.089755
vt 0.476561 0.200177
vt 0.125000 0.625000
vt 0.125000 0.750000
vt 0.069917 0.002576
vt 0.064818 0.132159
vt 0.000026 0.129610
vt 0.005125 0.000026
vt 0.125000 0.500000
vt 0.250000 0.500000
vt 0.109682 0.999900
vt 0.000100 0.346229
vt 0.455811 0.999900
vt 0.000100 0.000100
vt 0.071877 0.093490
vt 0.071877 0.000033
vt 0.118605 0.000033
vt 0.118605 0.093490
vt 0.375000 0.000000
vt 0.625000 0.000000
vt 0.071810 0.968851
vt 0.036782 0.999967
vt 0.036784 0.031148
vt 0.071810 0.000033
vt 0.632050 0.392271
vt 0.626653 0.026089
vt 0.003047 0.428274
vt 0.017681 0.428694
vt 0.013463 0.469494
vt 0.000024 0.469109
vt 0.087970 0.254255
vt 0.305926 0.000079
vt 0.625000 0.625000
vt 0.750000 0.625000
vt 0.750000 0.750000
vt 0.625000 0.750000
vt 0.000016 0.000735
vt 0.025242 0.000016
vt 0.025242 0.999266
vt 0.000016 0.999984
vt 0.000034 0.970903
vt 0.000033 0.002083
vt 0.058085 0.999976
vt 0.044647 0.999590
vt 0.165462 0.668792
vt 0.000079 0.621180
vt 0.005578 0.394076
vt 0.021213 0.394524
vt 0.632050 0.747754
vt 0.351343 0.999921
vt 0.000040 0.082044
vt 0.099262 0.000040
vt 0.999959 0.032092
vt 0.939514 0.082048
vt 0.099262 0.164049
vt 0.999959 0.132005
vt 0.069917 0.999974
vt 0.030448 0.998420
vn -0.2574 -0.9314 0.2574
vn -0.5021 -0.4436 -0.7424
vn 0.7071 0.0000 -0.7071
vn 0.7071 0.0000 0.7071
vn 0.0000 -1.0000 0.0000
vn -0.1366 0.9812 -0.1366
vn -0.5339 0.8368 0.1209
vn -0.2574 -0.9314 -0.2574
vn -0.1366 0.9812 0.1366
vn 0.0000 1.0000 0.0000
vn -0.5021 -0.4436 0.7424
vn -0.3891 -0.4537 -0.8018
vn -0.5458 0.3249 -0.7723
vn 0.6881 -0.2301 -0.6881
vn 0.8452 0.1084 0.5233
vn -0.1379 0.9904 0.0000
vn 0.6088 0.5086 0.6088
vn -0.5211 -0.0067 0.8535
vn 0.6993 0.1481 -0.6993
vn 0.6952 -0.4149 0.5870
vn -0.6302 -0.1332 0.7649
vn -0.5458 0.3249 0.7723
vn 0.6881 -0.2301 0.6881
usemtl metal.001
s off
f 13/1/1 14/2/1 4/3/1 3/4/1
f 9/5/2 10/6/2 8/7/2 7/8/2
f 15/9/3 16/10/3 6/11/3 5/12/3
f 11/13/4 12/14/4 2/15/4 1/16/4
f 18/17/5 15/18/5 5/19/5 11/20/5
f 17/21/6 14/22/6 2/23/6 12/24/6
f 28/25/7 27/26/7 21/27/7 22/28/7
f 13/29/5 18/17/5 11/20/5 1/30/5
f 5/31/4 6/32/4 12/33/4 11/34/4
f 3/4/8 4/3/8 10/6/8 9/5/8
f 3/35/5 9/36/5 18/17/5 13/29/5
f 8/37/9 10/38/9 17/21/9 16/39/9
f 10/38/10 4/40/10 14/22/10 17/21/10
f 9/36/5 7/8/5 15/18/5 18/17/5
f 7/41/3 8/42/3 16/43/3 15/44/3
f 1/45/11 2/46/11 14/2/11 13/1/11
f 19/47/12 22/48/12 26/49/12 23/50/12
f 29/51/13 28/25/13 22/28/13 19/52/13
f 30/53/14 29/54/14 19/55/14 20/56/14
f 27/26/15 30/57/15 20/58/15 21/27/15
f 23/59/16 26/60/16 25/61/16 24/62/16
f 21/63/17 20/64/17 24/65/17 25/66/17
f 22/48/18 21/67/18 25/68/18 26/49/18
f 20/56/19 19/55/19 23/69/19 24/70/19
f 34/71/20 33/72/20 30/57/20 27/26/20
f 33/73/14 32/74/14 29/54/14 30/53/14
f 32/75/13 31/76/13 28/25/13 29/51/13
f 31/76/21 34/71/21 27/26/21 28/25/21
f 17/77/22 12/78/22 34/79/22 31/80/22
f 16/81/13 17/77/13 31/80/13 32/82/13
f 6/11/14 16/10/14 32/74/14 33/73/14
f 12/33/23 6/32/23 33/83/23 34/84/23
