# Blender v2.92.0 OBJ File: 'zombie_sphaggeti.blend'
# www.blender.org
mtllib body.mtl
o body_Cylinder
v 0.143530 1.073370 0.260504
v 0.224375 2.158557 0.237260
v 0.266397 0.998069 0.173596
v 0.302788 2.159351 0.158434
v 0.302937 0.970237 0.044953
v 0.338274 2.171588 0.052694
v 0.283649 0.970989 -0.091527
v 0.322586 2.192422 -0.055392
v 0.212934 1.000151 -0.204698
v 0.223771 2.201845 -0.144980
v 0.070911 1.076198 -0.253337
v 0.082243 2.193968 -0.193360
v -0.067726 1.145510 -0.238313
v -0.054027 2.167872 -0.183663
v -0.168948 1.194763 -0.155101
v -0.173179 2.139866 -0.118869
v -0.223996 1.221140 -0.016066
v -0.206431 2.128400 -0.019783
v -0.205357 1.220414 0.115825
v -0.151667 2.134203 0.107289
v 0.006265 1.142628 0.285235
v -0.050237 2.148286 0.201405
v -0.113977 1.192622 0.233868
v 0.091276 2.156157 0.249833
v 0.032232 2.628653 0.275562
v 0.024228 2.600674 0.304994
v -0.105148 2.516478 0.220163
v -0.119997 2.475855 0.246870
v -0.186714 2.408000 0.113619
v -0.215838 2.375634 0.124420
v -0.216521 2.326295 -0.034552
v -0.237614 2.267073 -0.029545
v -0.167763 2.326295 -0.155536
v -0.179489 2.267073 -0.173770
v -0.043544 2.408000 -0.241634
v -0.057040 2.375634 -0.269611
v 0.089106 2.516478 -0.261847
v 0.096925 2.475855 -0.291387
v 0.226510 2.628653 -0.206506
v 0.241150 2.600674 -0.233263
v 0.320065 2.710014 -0.096303
v 0.336991 2.700068 -0.110813
v 0.327514 2.733925 0.039342
v 0.358767 2.700323 0.043152
v 0.275482 2.733925 0.168452
v 0.300643 2.700323 0.187377
v 0.176058 2.710014 0.261026
v 0.178193 2.700068 0.283218
v 0.021747 0.997637 0.279306
v 0.024228 1.056292 0.304994
v -0.119997 1.056211 0.246870
v -0.100350 1.042914 0.227939
v -0.215838 1.123541 0.124420
v -0.192742 1.067129 0.109895
v -0.237614 1.123541 -0.029545
v -0.211395 1.067129 -0.021995
v -0.179489 1.056211 -0.173770
v -0.155363 1.042914 -0.161031
v -0.057040 1.056292 -0.269611
v -0.052300 0.997637 -0.244243
v 0.096925 0.975952 -0.291387
v 0.088929 0.933773 -0.259266
v 0.241150 0.871859 -0.233263
v 0.233804 0.863310 -0.210627
v 0.336991 0.871712 -0.110813
v 0.305600 0.836922 -0.097456
v 0.358767 0.871712 0.043152
v 0.324903 0.836922 0.039024
v 0.300643 0.871859 0.187377
v 0.287307 0.863310 0.167667
v 0.178193 0.975952 0.283218
v 0.161603 0.933773 0.254575
vt 1.000000 0.510832
vt 1.000000 0.989365
vt 0.916667 0.988383
vt 0.916667 0.511711
vt 0.750000 0.514359
vt 0.750000 0.985783
vt 0.666667 0.986531
vt 0.666667 0.513622
vt 0.583333 0.987535
vt 0.583333 0.512585
vt 0.500000 0.988978
vt 0.500000 0.511174
vt 0.416667 0.990456
vt 0.416667 0.509715
vt 0.333333 0.991076
vt 0.333333 0.509170
vt 0.250000 0.991143
vt 0.250000 0.509170
vt 0.166667 0.991143
vt 0.166667 0.509209
vt 0.083333 0.990559
vt 0.083333 0.509781
vt 0.749982 0.468670
vt 0.863103 0.442770
vt 0.938742 0.355661
vt 0.966286 0.252866
vt 0.944335 0.139608
vt 0.859320 0.060617
vt 0.750786 0.035590
vt 0.637535 0.061859
vt 0.562658 0.142797
vt 0.534156 0.249169
vt 0.558532 0.356702
vt 0.643475 0.436077
vt 0.833333 0.986900
vt 0.833333 0.513178
vt 0.359335 0.435624
vt 0.246816 0.465800
vt 0.137653 0.439431
vt 0.058222 0.358955
vt 0.029438 0.251531
vt 0.057989 0.142121
vt 0.139343 0.064704
vt 0.251875 0.034577
vt 0.362175 0.061541
vt 0.444800 0.143859
vt 0.471772 0.244521
vt 0.441376 0.357123
vt 0.000000 0.989365
vt 0.000000 0.510832
vt 0.997173 1.000000
vt 0.919479 1.000000
vt 0.913638 1.000000
vt 0.836359 1.000000
vt 0.830383 1.000000
vt 0.755503 1.000000
vt 0.743286 1.000000
vt 0.673381 1.000000
vt 0.661164 1.000000
vt 0.586283 1.000000
vt 0.580308 1.000000
vt 0.503029 1.000000
vt 0.497188 1.000000
vt 0.419494 1.000000
vt 0.413611 1.000000
vt 0.338758 1.000000
vt 0.326904 1.000000
vt 0.254367 1.000000
vt 0.245633 1.000000
vt 0.171034 1.000000
vt 0.162300 1.000000
vt 0.089763 1.000000
vt 0.077909 1.000000
vt 0.003056 1.000000
vt 0.743286 1.000000
vt 0.673381 1.000000
vt 0.830383 1.000000
vt 0.755503 1.000000
vt 0.162300 1.000000
vt 0.089763 1.000000
vt 0.913638 1.000000
vt 0.836359 1.000000
vt 0.245633 1.000000
vt 0.171034 1.000000
vt 0.997173 1.000000
vt 0.919479 1.000000
vt 0.326904 1.000000
vt 0.254367 1.000000
vt 0.413611 1.000000
vt 0.338758 1.000000
vt 0.497188 1.000000
vt 0.419494 1.000000
vt 0.077909 1.000000
vt 0.003056 1.000000
vt 0.580308 1.000000
vt 0.503029 1.000000
vt 0.661164 1.000000
vt 0.586283 1.000000
vt 0.922641 0.500000
vt 0.993621 0.500000
vt 0.838815 0.500000
vt 0.911185 0.500000
vt 0.755974 0.500000
vt 0.827359 0.500000
vt 0.672148 0.500000
vt 0.744519 0.500000
vt 0.589713 0.500000
vt 0.660693 0.500000
vt 0.503695 0.500000
vt 0.577668 0.500000
vt 0.422591 0.500000
vt 0.496542 0.500000
vt 0.338065 0.500000
vt 0.409541 0.500000
vt 0.254732 0.500000
vt 0.328602 0.500000
vt 0.173793 0.500000
vt 0.245268 0.500000
vt 0.086792 0.500000
vt 0.160743 0.500000
vt 0.005666 0.500000
vt 0.079638 0.500000
vt 0.589713 0.500000
vt 0.660693 0.500000
vt 0.672148 0.500000
vt 0.744519 0.500000
vt 0.755974 0.500000
vt 0.827359 0.500000
vt 0.086792 0.500000
vt 0.160743 0.500000
vt 0.838815 0.500000
vt 0.911185 0.500000
vt 0.173793 0.500000
vt 0.245268 0.500000
vt 0.922641 0.500000
vt 0.993621 0.500000
vt 0.254732 0.500000
vt 0.328602 0.500000
vt 0.338065 0.500000
vt 0.409541 0.500000
vt 0.422591 0.500000
vt 0.496542 0.500000
vt 0.005666 0.500000
vt 0.079638 0.500000
vt 0.503695 0.500000
vt 0.577668 0.500000
vn -0.3738 0.0000 0.9275
vn -0.9275 0.0000 -0.3738
vn -0.6164 0.0000 -0.7875
vn -0.1400 0.0000 -0.9901
vn 0.3738 0.0000 -0.9275
vn 0.7875 0.0000 -0.6164
vn 0.9901 0.0000 -0.1400
vn 0.9275 0.0000 0.3738
vn 0.6164 0.0000 0.7875
vn -0.4389 -0.8967 0.0571
vn -0.7875 0.0000 0.6164
vn -0.0905 0.9923 0.0845
vn -0.9901 0.0000 0.1400
vn 0.1400 0.0000 0.9901
vn -0.6749 0.5888 0.4448
vn -0.8198 0.5586 0.1260
vn -0.8783 0.4577 -0.1383
vn -0.8887 0.2862 -0.3582
vn -0.7287 0.4577 -0.5094
vn -0.5033 0.5586 -0.6592
vn -0.1778 0.5888 -0.7885
vn 0.0684 0.7601 -0.6462
vn 0.6492 0.7497 -0.1281
vn 0.6877 0.6710 0.2771
vn 0.3790 0.7497 0.5425
vn -0.3988 0.7601 0.5131
vn 0.9345 0.0584 0.3513
vn 0.9446 0.0847 -0.3172
vn -0.6920 -0.0248 -0.7215
vn 0.6939 0.1249 -0.7091
vn -0.9360 -0.0324 -0.3505
vn 0.3122 0.0924 -0.9455
vn -0.9955 -0.0075 0.0946
vn -0.7315 0.0737 0.6778
vn -0.4042 0.1614 0.9003
vn -0.1083 0.0367 -0.9934
vn -0.0012 0.2193 0.9757
vn 0.4602 0.1759 0.8702
vn -0.3957 -0.5503 0.7352
vn -0.7227 -0.6042 0.3356
vn -0.9058 -0.4038 0.1281
vn -0.7874 -0.6042 -0.1221
vn -0.5840 -0.5503 -0.5967
vn -0.3276 -0.4600 -0.8253
vn -0.1659 -0.6998 -0.6948
vn 0.4722 -0.7734 -0.4230
vn 0.7189 -0.6877 -0.1017
vn 0.5710 -0.7734 0.2755
vn 0.0333 -0.6998 0.7136
vn -0.0859 -0.4600 0.8838
vn 0.6400 0.0316 0.7677
vn 0.9307 0.0657 0.3598
vn 0.9865 0.0863 -0.1392
vn -0.5916 -0.0493 -0.8047
vn 0.7955 0.0923 -0.5989
vn -0.9587 -0.1424 -0.2462
vn 0.4148 0.0775 -0.9066
vn -0.9764 -0.1665 0.1376
vn -0.8527 -0.1566 0.4984
vn -0.3606 -0.0896 0.9284
vn -0.1656 0.0216 -0.9860
vn 0.0926 -0.0300 0.9953
usemtl pasta
s off
f 50/1/1 26/2/1 28/3/1 51/4/1
f 55/5/2 32/6/2 34/7/2 57/8/2
f 57/8/3 34/7/3 36/9/3 59/10/3
f 59/10/4 36/9/4 38/11/4 61/12/4
f 61/12/5 38/11/5 40/13/5 63/14/5
f 63/14/6 40/13/6 42/15/6 65/16/6
f 65/16/7 42/15/7 44/17/7 67/18/7
f 67/18/8 44/17/8 46/19/8 69/20/8
f 69/20/9 46/19/9 48/21/9 71/22/9
f 21/23/10 23/24/10 19/25/10 17/26/10 15/27/10 13/28/10 11/29/10 9/30/10 7/31/10 5/32/10 3/33/10 1/34/10
f 51/4/11 28/3/11 30/35/11 53/36/11
f 22/37/12 24/38/12 2/39/12 4/40/12 6/41/12 8/42/12 10/43/12 12/44/12 14/45/12 16/46/12 18/47/12 20/48/12
f 53/36/13 30/35/13 32/6/13 55/5/13
f 71/22/14 48/21/14 26/49/14 50/50/14
f 28/3/15 26/2/15 25/51/15 27/52/15
f 30/35/16 28/3/16 27/53/16 29/54/16
f 32/6/17 30/35/17 29/55/17 31/56/17
f 34/7/18 32/6/18 31/57/18 33/58/18
f 36/9/19 34/7/19 33/59/19 35/60/19
f 38/11/20 36/9/20 35/61/20 37/62/20
f 40/13/21 38/11/21 37/63/21 39/64/21
f 42/15/22 40/13/22 39/65/22 41/66/22
f 44/17/23 42/15/23 41/67/23 43/68/23
f 46/19/24 44/17/24 43/69/24 45/70/24
f 48/21/25 46/19/25 45/71/25 47/72/25
f 26/49/26 48/21/26 47/73/26 25/74/26
f 33/58/27 31/57/27 18/75/27 16/76/27
f 31/56/28 29/55/28 20/77/28 18/78/28
f 47/72/29 45/71/29 4/79/29 2/80/29
f 29/54/30 27/53/30 22/81/30 20/82/30
f 45/70/31 43/69/31 6/83/31 4/84/31
f 27/52/32 25/51/32 24/85/32 22/86/32
f 43/68/33 41/67/33 8/87/33 6/88/33
f 41/66/34 39/65/34 10/89/34 8/90/34
f 39/64/35 37/63/35 12/91/35 10/92/35
f 25/74/36 47/73/36 2/93/36 24/94/36
f 37/62/37 35/61/37 14/95/37 12/96/37
f 35/60/38 33/59/38 16/97/38 14/98/38
f 50/1/39 51/4/39 52/99/39 49/100/39
f 51/4/40 53/36/40 54/101/40 52/102/40
f 53/36/41 55/5/41 56/103/41 54/104/41
f 55/5/42 57/8/42 58/105/42 56/106/42
f 57/8/43 59/10/43 60/107/43 58/108/43
f 59/10/44 61/12/44 62/109/44 60/110/44
f 61/12/45 63/14/45 64/111/45 62/112/45
f 63/14/46 65/16/46 66/113/46 64/114/46
f 65/16/47 67/18/47 68/115/47 66/116/47
f 67/18/48 69/20/48 70/117/48 68/118/48
f 69/20/49 71/22/49 72/119/49 70/120/49
f 71/22/50 50/50/50 49/121/50 72/122/50
f 58/108/51 60/107/51 13/123/51 15/124/51
f 56/106/52 58/105/52 15/125/52 17/126/52
f 54/104/53 56/103/53 17/127/53 19/128/53
f 70/120/54 72/119/54 1/129/54 3/130/54
f 52/102/55 54/101/55 19/131/55 23/132/55
f 68/118/56 70/117/56 3/133/56 5/134/56
f 49/100/57 52/99/57 23/135/57 21/136/57
f 66/116/58 68/115/58 5/137/58 7/138/58
f 64/114/59 66/113/59 7/139/59 9/140/59
f 62/112/60 64/111/60 9/141/60 11/142/60
f 72/122/61 49/121/61 21/143/61 1/144/61
f 60/110/62 62/109/62 11/145/62 13/146/62
